<svg xmlns="http://www.w3.org/2000/svg" width="107.821" height="107.441" viewBox="0 0 107.821 107.441">
  <g id="Group_217" data-name="Group 217" transform="translate(-208.026 -41.419)">
    <path id="Path_439" data-name="Path 439" d="M313.55,134.118,251.077,98.049c-2.776-1.6-6.974-1.777-9.378-.389l-32.05,18.5c-2.4,1.387-2.1,3.812.674,5.414l62.472,36.069c2.776,1.6,6.975,1.776,9.379.388l32.05-18.5C316.628,138.144,316.326,135.72,313.55,134.118Z" transform="translate(0 -12.965)" fill="#e3e5ef" style="mix-blend-mode: multiply;isolation: isolate"/>
    <g id="Group_216" data-name="Group 216" transform="translate(208.716 41.419)">
      <g id="Group_174" data-name="Group 174" transform="translate(0 39.262)">
        <path id="Path_440" data-name="Path 440" d="M315.454,134.644s-.219.282-.518.687a4.412,4.412,0,0,0-2.134-2.3L251.547,97.665c-2.722-1.572-6.839-1.742-9.2-.381l-31.426,18.143a3.469,3.469,0,0,0-1.252,1.151c-.442-.678-.79-.9-.74.037a4.341,4.341,0,0,0,2.162,3.812h0c.153.106.316.209.488.309L272.842,156.1c2.722,1.572,6.839,1.742,9.2.381l31.426-18.144a4.529,4.529,0,0,0,.427-.28l.006,0C315.594,137.056,315.454,134.644,315.454,134.644Z" transform="translate(-208.928 -93.563)" fill="#342c2e"/>
        <path id="Path_441" data-name="Path 441" d="M315.454,134.421s-.114.136-.288.348a4.159,4.159,0,0,0-2.207-2.577L251.514,96.718c-2.73-1.576-6.859-1.748-9.223-.383l-31.522,18.2a3.27,3.27,0,0,0-1.38,1.391c-.225-.5-.41-.663-.454.019a3.947,3.947,0,0,0,1.465,3.186l0-.009a6.406,6.406,0,0,0,1.034.738l61.444,35.475c2.73,1.576,6.859,1.748,9.223.383l31.523-18.2c.086-.05.162-.1.241-.156.017-.01.027-.012.045-.023A3.043,3.043,0,0,0,315.454,134.421Z" transform="translate(-208.928 -93.34)" fill="#41363a"/>
        <path id="Path_442" data-name="Path 442" d="M315.456,134.162a5.76,5.76,0,0,0-.4-1.659c-.082-.187-.191-.145-.311.021a5.683,5.683,0,0,0-1.558-1.27L251.469,95.62c-2.742-1.583-6.89-1.755-9.265-.384L210.54,113.517a4.272,4.272,0,0,0-.636.451c.06-.382,0-.609-.239-.356a4.2,4.2,0,0,0-.728,2.074l.011,0c-.082,1.1.682,2.274,2.258,3.185L272.924,154.5c2.742,1.583,6.89,1.755,9.266.384L313.853,136.6a2.7,2.7,0,0,0,1.593-2.436Z" transform="translate(-208.93 -93.081)" fill="#534046"/>
        <path id="Path_443" data-name="Path 443" d="M315.2,132.493l.008-.021a4.712,4.712,0,0,0-.566-1.213c-.073-.08-.076-.013-.041.128a5.648,5.648,0,0,0-1.569-1.285L251.59,94.629c-2.73-1.576-6.859-1.747-9.223-.383l-31.522,18.2c-.08.046-.148.1-.221.143.168-.256.2-.379-.087-.173a2.832,2.832,0,0,0-1.227,1.84l.007-.008c-.3,1.187.452,2.519,2.191,3.523l61.444,35.475c2.73,1.576,6.859,1.748,9.223.383l31.523-18.2A2.551,2.551,0,0,0,315.2,132.493Z" transform="translate(-209.004 -92.85)" fill="#4e4145"/>
        <path id="Path_444" data-name="Path 444" d="M314.765,131.285h0a6.359,6.359,0,0,0-2.538-2.363c-.443-.256-.615-.229-.612-.055L251.672,94.26c-2.722-1.572-6.839-1.742-9.2-.381L211.8,111.591a.524.524,0,0,0-.206.074,6.953,6.953,0,0,0-1.232.849l0,0c-1.568,1.39-1.069,3.419,1.347,4.815L272.967,152.7c2.722,1.571,6.839,1.742,9.2.381l31.426-18.144C315.206,134,315.574,132.588,314.765,131.285Z" transform="translate(-209.053 -92.764)" fill="#5b4c51"/>
        <path id="Path_445" data-name="Path 445" d="M312.45,128.863,252.043,93.986c-2.684-1.549-6.745-1.718-9.069-.376L211.984,111.5c-2.324,1.342-2.033,3.686.652,5.236l60.407,34.877c2.684,1.549,6.745,1.718,9.069.376L313.1,134.1C315.426,132.757,315.135,130.413,312.45,128.863Z" transform="translate(-209.276 -92.705)" fill="#67565b"/>
        <path id="Path_446" data-name="Path 446" d="M229.6,109.517a1.7,1.7,0,0,0-1.537,0,.468.468,0,0,0,0,.887,1.7,1.7,0,0,0,1.537,0A.468.468,0,0,0,229.6,109.517Z" transform="translate(-213.337 -96.603)" fill="#82767a"/>
        <path id="Path_447" data-name="Path 447" d="M233.292,107.778a1.265,1.265,0,0,0-1.144,0,.348.348,0,0,0,0,.66,1.261,1.261,0,0,0,1.143,0A.349.349,0,0,0,233.292,107.778Z" transform="translate(-214.315 -96.206)" fill="#82767a"/>
        <path id="Path_448" data-name="Path 448" d="M238.211,104.452l-1.009.582c-.191.11-.166.3.054.429h0a.828.828,0,0,0,.743.031l1.009-.583c.19-.11.166-.3-.054-.429h0A.824.824,0,0,0,238.211,104.452Z" transform="translate(-215.526 -95.441)" fill="#82767a"/>
        <path id="Path_449" data-name="Path 449" d="M312.206,129.226,251.8,94.35a9.259,9.259,0,0,0-4.5-1.113,6.781,6.781,0,0,0-3.308.737l-5.969,3.447a.6.6,0,0,0,0,1.042l.346.2a1.394,1.394,0,0,1,0,2.414l-11.5,6.642a4.118,4.118,0,0,1-4.119,0l-.074-.043a2.415,2.415,0,0,0-2.414,0L213,111.866c-.351.2-.939.625-.939,1.182,0,.586.609,1.3,1.589,1.869l60.408,34.877a9.264,9.264,0,0,0,4.5,1.112h0a6.788,6.788,0,0,0,3.307-.736l30.991-17.893c.351-.2.938-.625.938-1.181C313.8,130.508,313.187,129.793,312.206,129.226Z" transform="translate(-209.663 -92.829)" fill="#b8c1ff"/>
        <g id="Group_173" data-name="Group 173" transform="translate(2.4 9.532)" style="mix-blend-mode: screen;isolation: isolate">
          <path id="Path_450" data-name="Path 450" d="M258.384,147.1h52.351l8.393-4.845c.351-.2.938-.625.938-1.181,0-.587-.609-1.3-1.589-1.87l-5.9-3.405h-73.77Z" transform="translate(-218.333 -112.339)" fill="#21232b"/>
          <path id="Path_451" data-name="Path 451" d="M265.674,105.155h-29.53l-9.279,5.357a4.118,4.118,0,0,1-4.119,0l-.074-.043a2.415,2.415,0,0,0-2.414,0L213,114.66c-.351.2-.939.625-.939,1.182,0,.586.609,1.3,1.589,1.869l7.718,4.456h73.77Z" transform="translate(-212.063 -105.155)" fill="#21232b"/>
        </g>
        <path id="Path_452" data-name="Path 452" d="M313.816,135.9s2,2.095-1.36,4.034-30.8,17.792-30.8,17.792a7.608,7.608,0,0,1-7.223-.138c-4.273-2.463-62.414-36.271-62.414-36.271-1.083-.716-2.239-2.313.409-3.877-1.919,1.318-1.434,2.4.121,3.306l62.3,36.206s3.8,1.773,6.555.179c3.111-1.8,31.289-18.064,31.289-18.064S315.1,137.5,313.816,135.9Z" transform="translate(-209.369 -98.503)" fill="#95898d"/>
        <path id="Path_453" data-name="Path 453" d="M300.42,170a6.457,6.457,0,0,1-3.865.671,7.875,7.875,0,0,1-2.95-1.141,13.36,13.36,0,0,0,3.415.847A7.975,7.975,0,0,0,300.42,170Z" transform="translate(-228.777 -110.715)" fill="#cac4c6"/>
      </g>
      <g id="Group_199" data-name="Group 199" transform="translate(2.403)">
        <g id="Group_175" data-name="Group 175" transform="translate(0 52.059)">
          <path id="Path_454" data-name="Path 454" d="M283.752,136.613,240.32,111.538l3.668-2.118L287.421,134.5Z" transform="translate(-218.69 -109.42)" fill="#95898d"/>
          <path id="Path_455" data-name="Path 455" d="M275.45,134.959H244.865a9.358,9.358,0,0,1-4.694-1.256L212.066,117.51c0-.556.587-.978.934-1.186l6.927-3.994,3.072-.012,3.64-.013,12.144-.044v1.533Z" transform="translate(-212.066 -110.086)" fill="#c3c6d4" style="mix-blend-mode: multiply;isolation: isolate"/>
          <path id="Path_456" data-name="Path 456" d="M285.8,134.907l-1.325.773-.972-.562-.708-.409-1.416-.818-26.482-15.284-5.9-3.4-2.163-1.254-.708-.409-2.751-1.586,1.332-.767,1.419.819.708.409,3.027,1.747,4.17,2.4,26.547,15.33,2.215,1.28.708.409Z" transform="translate(-219.405 -109.835)" fill="#67565b"/>
        </g>
        <g id="Group_198" data-name="Group 198" transform="translate(26.718)">
          <g id="Group_197" data-name="Group 197">
            <path id="Path_457" data-name="Path 457" d="M284.558,64.154q0,26.54,0,53.075v1.533l-.708-.409-1.416-.818L255.952,102.25l-5.9-3.4-2.163-1.253V42.985a1.992,1.992,0,0,1,.234-1.007l.078-.116c.377-.514,1.072-.6,1.864-.143q16.155,9.325,32.322,18.661A4.8,4.8,0,0,1,284.558,64.154Z" transform="translate(-247.183 -41.419)" fill="#db6309"/>
            <g id="Group_196" data-name="Group 196" transform="translate(0 0.424)">
              <g id="Group_195" data-name="Group 195">
                <path id="Path_458" data-name="Path 458" d="M283.633,64.692v53.79l-1.416-.818L255.735,102.38l-5.9-3.4-2.163-1.253-.708-.41V43.524a1.648,1.648,0,0,1,.513-1.332,1.747,1.747,0,0,1,.175-.11,1.525,1.525,0,0,1,.188-.071.006.006,0,0,0,.007.006.5.5,0,0,1,.136-.025,1.711,1.711,0,0,1,1.15.266q16.164,9.325,32.328,18.662A4.812,4.812,0,0,1,283.633,64.692Z" transform="translate(-246.966 -41.973)" fill="#f1861e"/>
                <path id="Path_459" data-name="Path 459" d="M282.22,117.677l-20.587-11.883-.1-.065-.161-.088-.037-.021-.1-.058-.16-.095-1.458-.838-.1-.058-.161-.095-.036-.022-.1-.058-.16-.095-3.032-1.749-.285-.161-5.9-3.4-.285-.168-1.881-1.086-.707-.409V43.538a1.668,1.668,0,0,1,.51-1.334c.059-.037.117-.08.175-.109a1.539,1.539,0,0,1,.189-.073.007.007,0,0,0,.008.008.576.576,0,0,1,.058.087c6.882,10,11.672,19.406,13.749,30.407,1.393,7.326,1.794,14.442,6.357,21.724,4.359,6.947,10.112,13.895,13.406,21.433C281.7,116.342,281.972,117.006,282.22,117.677Z" transform="translate(-246.966 -41.984)" fill="#db6309"/>
                <g id="Group_176" data-name="Group 176" transform="translate(29.464 22.522)">
                  <path id="Path_460" data-name="Path 460" d="M287.645,75.786a.72.72,0,0,1-.194-.027,1.64,1.64,0,0,1-.912-.8l-.817-1.421c-.378-.657-.357-1.357.049-1.594l.817-.477a.626.626,0,0,1,.488-.051,1.64,1.64,0,0,1,.91.8l.818,1.421c.377.657.356,1.357-.05,1.594l-.817.478A.579.579,0,0,1,287.645,75.786Zm-.871-.962a1.4,1.4,0,0,0,.747.673.36.36,0,0,0,.279-.022l.818-.478c.266-.155.243-.716-.049-1.224l-.818-1.421a1.4,1.4,0,0,0-.745-.673.359.359,0,0,0-.282.022l-.816.478c-.266.155-.243.716.049,1.224Z" transform="translate(-285.452 -71.391)" fill="#fff"/>
                </g>
                <g id="Group_177" data-name="Group 177" transform="translate(29.464 21.057)">
                  <path id="Path_461" data-name="Path 461" d="M287.645,73.874a.746.746,0,0,1-.193-.027,1.642,1.642,0,0,1-.913-.8l-.817-1.421c-.378-.657-.357-1.357.049-1.593l.817-.478a.628.628,0,0,1,.487-.051,1.641,1.641,0,0,1,.911.8l.818,1.422c.377.657.356,1.357-.05,1.593l-.817.478A.572.572,0,0,1,287.645,73.874Zm-.871-.962a1.4,1.4,0,0,0,.747.672.353.353,0,0,0,.279-.022l.818-.478c.266-.155.243-.716-.049-1.223l-.818-1.422a1.393,1.393,0,0,0-.746-.673.357.357,0,0,0-.281.023l-.816.477c-.266.155-.243.717.049,1.224Z" transform="translate(-285.452 -69.478)" fill="#fff"/>
                </g>
                <g id="Group_178" data-name="Group 178" transform="translate(30.013 27.586)">
                  <path id="Path_462" data-name="Path 462" d="M288.378,80.584c-.111.1-.289.092-.487-.023a1.159,1.159,0,0,1-.483-.574c-.1.175-.3.2-.553.057a1.331,1.331,0,0,1-.469-.485,1.635,1.635,0,0,1-.188-.909v-.643l2.317,1.338v.6C288.514,80.233,288.514,80.46,288.378,80.584ZM288.27,79.5l-.758-.438v.3a1.074,1.074,0,0,0,.125.65.768.768,0,0,0,.254.243.31.31,0,0,0,.254.05c.125-.044.125-.23.125-.505Zm-1-.579-.828-.478v.344a1.163,1.163,0,0,0,.122.665.86.86,0,0,0,.292.289.317.317,0,0,0,.292.047c.122-.063.122-.245.122-.524Z" transform="translate(-286.176 -78.006)" fill="#fff"/>
                  <path id="Path_463" data-name="Path 463" d="M287.69,82.973c-.157.07-.362-.047-.511-.134l-.988-.57v-.283l.2.115a1.092,1.092,0,0,1-.219-.62.465.465,0,0,1,.119-.351.325.325,0,0,1,.393,0,1.054,1.054,0,0,1,.4.472,1.444,1.444,0,0,1,.118.642v.331c.108.062.247.142.341.1.066-.031.1-.116.1-.269a2.275,2.275,0,0,0-.09-.582l.219.041a2.612,2.612,0,0,1,.1.673C287.874,82.776,287.808,82.919,287.69,82.973Zm-1.218-1.564a.3.3,0,0,0-.073.224.837.837,0,0,0,.164.478,1.217,1.217,0,0,0,.424.334v-.331a.963.963,0,0,0-.074-.438.578.578,0,0,0-.222-.263A.193.193,0,0,0,286.472,81.409Z" transform="translate(-286.17 -78.722)" fill="#fff"/>
                  <path id="Path_464" data-name="Path 464" d="M287.86,84.642l-.174-.1a1,1,0,0,1,.194.557c0,.239-.09.356-.177.4-.171.087-.373-.029-.616-.17l-.89-.514V84.53l.89.514c.216.124.362.209.463.15a.272.272,0,0,0,.1-.25.748.748,0,0,0-.1-.365,1.092,1.092,0,0,0-.463-.384l-.89-.514V83.4l1.663.96Z" transform="translate(-286.176 -79.27)" fill="#fff"/>
                  <path id="Path_465" data-name="Path 465" d="M288.514,87.629l-1.52-.878.866,1.256v.331l-.755-1.111-.908.211v-.327l.741-.167-.261-.377-.48-.277v-.283l2.317,1.337Z" transform="translate(-286.176 -79.882)" fill="#fff"/>
                  <path id="Path_466" data-name="Path 466" d="M288.3,91.413l-.191-.292a.448.448,0,0,0,.181-.421,1.03,1.03,0,0,0-.174-.566,2.021,2.021,0,0,0-.762-.585c-.4-.231-.6-.346-.758-.3-.108.035-.178.152-.178.367a1.317,1.317,0,0,0,.205.677l-.174.106a1.872,1.872,0,0,1-.275-.923c0-.323.115-.5.279-.55.222-.07.465.07.9.322a2.358,2.358,0,0,1,.9.724,1.591,1.591,0,0,1,.275.866A.65.65,0,0,1,288.3,91.413Z" transform="translate(-286.17 -80.562)" fill="#fff"/>
                  <path id="Path_467" data-name="Path 467" d="M287.69,93.308c-.157.071-.362-.047-.511-.133l-.988-.57v-.283l.2.115a1.093,1.093,0,0,1-.219-.62.468.468,0,0,1,.119-.352.327.327,0,0,1,.393,0,1.05,1.05,0,0,1,.4.472,1.443,1.443,0,0,1,.118.642v.332c.108.062.247.142.341.1.066-.031.1-.116.1-.269a2.274,2.274,0,0,0-.09-.581l.219.041a2.611,2.611,0,0,1,.1.672C287.874,93.111,287.808,93.255,287.69,93.308Zm-1.218-1.564a.3.3,0,0,0-.073.225.837.837,0,0,0,.164.478,1.225,1.225,0,0,0,.424.334V92.45a.968.968,0,0,0-.074-.439.576.576,0,0,0-.222-.262A.2.2,0,0,0,286.472,91.744Z" transform="translate(-286.17 -81.146)" fill="#fff"/>
                  <path id="Path_468" data-name="Path 468" d="M287.846,95.7l-.223-.2a.46.46,0,0,0,.028-.178.783.783,0,0,0-.122-.413,1.339,1.339,0,0,0-.5-.411l-.831-.479v-.283l1.663.96v.282l-.191-.11a1.093,1.093,0,0,1,.212.608A.705.705,0,0,1,287.846,95.7Z" transform="translate(-286.176 -81.693)" fill="#fff"/>
                  <path id="Path_469" data-name="Path 469" d="M287.662,97.579l.845.488v.282l-2.317-1.337V96.73l.191.11a1.091,1.091,0,0,1-.212-.608c0-.238.083-.38.205-.427.188-.073.417.059.647.191a1.676,1.676,0,0,1,.647.556,1.251,1.251,0,0,1,.205.664C287.874,97.416,287.795,97.546,287.662,97.579Zm-.139-.888a1.339,1.339,0,0,0-.5-.411c-.188-.108-.379-.219-.5-.168-.073.031-.122.119-.122.273a.788.788,0,0,0,.122.414,1.342,1.342,0,0,0,.5.41c.188.108.38.219.5.168.073-.031.122-.12.122-.273A.779.779,0,0,0,287.524,96.691Z" transform="translate(-286.17 -82.174)" fill="#fff"/>
                </g>
                <path id="Path_470" data-name="Path 470" d="M256.812,114.573v3.969l-.286-.163-5.9-3.4-.286-.168v-3.969c0-.552.383-.779.864-.5,1.9,1.092,2.845,1.644,4.742,2.735A1.909,1.909,0,0,1,256.812,114.573Z" transform="translate(-247.758 -57.972)" fill="#e5e5e6"/>
                <g id="Group_185" data-name="Group 185" transform="translate(7.212 11.539)">
                  <g id="Group_180" data-name="Group 180" transform="translate(0.26)">
                    <path id="Path_471" data-name="Path 471" d="M265.414,103.083c0,.188-.134.265-.3.17l-1.723-1a.644.644,0,0,1-.3-.514v-1.006c0-.2.132-.266.3-.17l1.723,1a.659.659,0,0,1,.3.514Zm-2.022-1.167,1.723,1V101.9l-1.723-1Z" transform="translate(-258.22 -67.238)" fill="#56638d"/>
                    <path id="Path_472" data-name="Path 472" d="M265.414,106.821c0,.188-.134.264-.3.17l-1.723-1a.646.646,0,0,1-.3-.514v-1.007c0-.194.132-.266.3-.169l1.723,1a.657.657,0,0,1,.3.514Zm-2.022-1.167,1.723,1v-1.007l-1.723-1Z" transform="translate(-258.22 -68.114)" fill="#56638d"/>
                    <path id="Path_473" data-name="Path 473" d="M265.414,110.558c0,.188-.134.265-.3.17l-1.723-1a.644.644,0,0,1-.3-.514v-1.006c0-.2.132-.266.3-.17l1.723,1a.659.659,0,0,1,.3.514Zm-2.022-1.167,1.723,1v-1.006l-1.723-1Z" transform="translate(-258.22 -68.99)" fill="#56638d"/>
                    <path id="Path_474" data-name="Path 474" d="M265.414,99.346c0,.188-.134.264-.3.17l-1.723-1a.644.644,0,0,1-.3-.514V97c0-.2.132-.266.3-.17l1.723,1a.657.657,0,0,1,.3.514Zm-2.022-1.167,1.723,1V98.167l-1.723-.994Z" transform="translate(-258.22 -66.362)" fill="#56638d"/>
                    <path id="Path_475" data-name="Path 475" d="M265.414,121.77c0,.188-.134.265-.3.17l-1.723-1a.644.644,0,0,1-.3-.514v-1.006c0-.2.132-.266.3-.17l1.723,1a.659.659,0,0,1,.3.514Zm-2.022-1.167,1.723,1v-1.006l-1.723-1Z" transform="translate(-258.22 -71.619)" fill="#56638d"/>
                    <path id="Path_476" data-name="Path 476" d="M265.116,123.986c-.685-.4-1.035-.6-1.72-.991-.124-.073-.226-.058-.269.037a.1.1,0,0,0-.015.044.184.184,0,0,0-.015.087v.263l.036.022.161.095.1.058v-.27c.664.387,1.014.583,1.662.962a.364.364,0,0,0,.058.037v.263l.037.021.161.088.1.065V124.5A.656.656,0,0,0,265.116,123.986Z" transform="translate(-258.22 -72.495)" fill="#56638d"/>
                    <path id="Path_477" data-name="Path 477" d="M265.414,118.033c0,.188-.134.264-.3.17l-1.723-1a.646.646,0,0,1-.3-.514v-1.006c0-.2.132-.266.3-.17l1.723,1a.657.657,0,0,1,.3.514Zm-2.022-1.167,1.723,1v-1.007l-1.723-1Z" transform="translate(-258.22 -70.743)" fill="#56638d"/>
                    <path id="Path_478" data-name="Path 478" d="M265.414,84.373c0,.188-.134.265-.3.17l-1.723-1a.644.644,0,0,1-.3-.514V82.027c0-.2.132-.266.3-.17l1.723,1a.657.657,0,0,1,.3.514Zm-2.022-1.167,1.723,1V83.194l-1.723-.994Z" transform="translate(-258.22 -62.852)" fill="#56638d"/>
                    <path id="Path_479" data-name="Path 479" d="M265.414,88.11c0,.188-.134.265-.3.17l-1.723-1a.644.644,0,0,1-.3-.514V85.764c0-.2.132-.266.3-.17l1.723,1a.659.659,0,0,1,.3.514Zm-2.022-1.167,1.723,1V86.931l-1.723-1Z" transform="translate(-258.22 -63.728)" fill="#56638d"/>
                    <path id="Path_480" data-name="Path 480" d="M265.414,91.848c0,.188-.134.264-.3.17l-1.723-1a.644.644,0,0,1-.3-.514V89.5c0-.194.132-.266.3-.169l1.723,1a.657.657,0,0,1,.3.514Zm-2.022-1.167,1.723,1V90.669l-1.723-1Z" transform="translate(-258.22 -64.604)" fill="#56638d"/>
                    <path id="Path_481" data-name="Path 481" d="M265.414,80.635c0,.188-.134.265-.3.17l-1.723-.994a.646.646,0,0,1-.3-.515V78.289c0-.194.132-.266.3-.17l1.723,1a.659.659,0,0,1,.3.514Zm-2.022-1.167,1.723,1V79.456l-1.723-1Z" transform="translate(-258.22 -61.975)" fill="#56638d"/>
                    <path id="Path_482" data-name="Path 482" d="M265.414,65.708c0,.188-.134.264-.3.17l-1.723-1a.646.646,0,0,1-.3-.514V63.361c0-.194.132-.266.3-.169l1.723,1a.657.657,0,0,1,.3.514Zm-2.022-1.167,1.723,1V64.529l-1.723-1Z" transform="translate(-258.22 -58.476)" fill="#56638d"/>
                    <path id="Path_483" data-name="Path 483" d="M265.414,69.445c0,.188-.134.265-.3.17l-1.723-1a.644.644,0,0,1-.3-.514V67.1c0-.2.132-.266.3-.17l1.723,1a.659.659,0,0,1,.3.514Zm-2.022-1.167,1.723,1V68.266l-1.723-1Z" transform="translate(-258.22 -59.352)" fill="#56638d"/>
                    <path id="Path_484" data-name="Path 484" d="M265.414,73.182c0,.188-.134.265-.3.171l-1.723-1a.646.646,0,0,1-.3-.514V70.836c0-.194.132-.266.3-.169l1.723,1a.656.656,0,0,1,.3.514Zm-2.022-1.167,1.723.994V72l-1.723-1Z" transform="translate(-258.22 -60.228)" fill="#56638d"/>
                    <path id="Path_485" data-name="Path 485" d="M265.414,61.97c0,.188-.134.265-.3.17l-1.723-1a.644.644,0,0,1-.3-.514V59.624c0-.2.132-.266.3-.17l1.723,1a.659.659,0,0,1,.3.514ZM263.393,60.8l1.723,1V60.791l-1.723-1Z" transform="translate(-258.22 -57.599)" fill="#56638d"/>
                    <path id="Path_486" data-name="Path 486" d="M260.769,60.978c0,.118-.084.165-.187.106l-1.076-.622a.4.4,0,0,1-.187-.322v-.629c0-.122.082-.166.187-.106l1.076.622a.414.414,0,0,1,.187.322Zm-1.263-.729,1.076.622v-.629l-1.076-.622Z" transform="translate(-257.335 -57.592)" fill="#56638d"/>
                    <path id="Path_487" data-name="Path 487" d="M260.769,63.313c0,.118-.084.165-.187.106l-1.076-.622a.4.4,0,0,1-.187-.322v-.629c0-.122.082-.166.187-.106l1.076.622a.414.414,0,0,1,.187.322Zm-1.263-.729,1.076.622v-.629l-1.076-.622Z" transform="translate(-257.335 -58.139)" fill="#56638d"/>
                    <path id="Path_488" data-name="Path 488" d="M260.769,65.648c0,.118-.084.165-.187.106l-1.076-.622a.4.4,0,0,1-.187-.322v-.629c0-.122.082-.166.187-.106l1.076.622a.412.412,0,0,1,.187.321Zm-1.263-.729,1.076.622v-.629l-1.076-.622Z" transform="translate(-257.335 -58.687)" fill="#56638d"/>
                    <path id="Path_489" data-name="Path 489" d="M260.769,58.643c0,.117-.084.165-.187.106l-1.076-.622a.4.4,0,0,1-.187-.322v-.629c0-.122.082-.166.187-.106l1.076.622a.413.413,0,0,1,.187.322Zm-1.263-.73,1.076.622v-.629l-1.076-.622Z" transform="translate(-257.335 -57.045)" fill="#56638d"/>
                    <g id="Group_179" data-name="Group 179" transform="translate(0 23.681)">
                      <path id="Path_490" data-name="Path 490" d="M258.176,89.576c0,.118-.083.165-.186.106l-1.077-.622a.4.4,0,0,1-.186-.322V88.11c0-.122.082-.166.186-.106l1.077.622a.411.411,0,0,1,.186.322Zm-1.263-.729,1.077.622V88.84l-1.077-.622Z" transform="translate(-256.727 -87.978)" fill="#56638d"/>
                      <path id="Path_491" data-name="Path 491" d="M258.176,91.655c0,.118-.083.165-.186.106l-1.077-.622a.4.4,0,0,1-.186-.322v-.629c0-.122.082-.166.186-.106l1.077.622a.411.411,0,0,1,.186.321Zm-1.263-.729,1.077.622v-.629l-1.077-.622Z" transform="translate(-256.727 -88.465)" fill="#56638d"/>
                      <path id="Path_492" data-name="Path 492" d="M256.792,92.291a.223.223,0,0,1-.065-.142c0-.054.039-.084.087-.056a.4.4,0,0,1,.1.1l1.194,1.49a.243.243,0,0,1,.07.145c0,.056-.039.083-.087.054a.27.27,0,0,1-.073-.065Z" transform="translate(-256.727 -88.94)" fill="#56638d"/>
                      <path id="Path_493" data-name="Path 493" d="M258.176,95.813c0,.118-.083.165-.186.106l-1.077-.622a.4.4,0,0,1-.186-.322v-.629c0-.122.082-.167.186-.106l1.077.622a.412.412,0,0,1,.186.322Zm-1.263-.73,1.077.622v-.629l-1.077-.622Z" transform="translate(-256.727 -89.44)" fill="#56638d"/>
                      <path id="Path_494" data-name="Path 494" d="M258.176,97.892c0,.118-.083.165-.186.106l-1.077-.622a.4.4,0,0,1-.186-.321v-.629c0-.122.082-.167.186-.106l1.077.622a.411.411,0,0,1,.186.322Zm-1.263-.73,1.077.622v-.629l-1.077-.622Z" transform="translate(-256.727 -89.927)" fill="#56638d"/>
                    </g>
                  </g>
                  <g id="Group_182" data-name="Group 182" transform="translate(0.157 0.073)">
                    <path id="Path_495" data-name="Path 495" d="M265.28,103.178c0,.188-.135.265-.3.17l-1.723-.994a.644.644,0,0,1-.3-.514v-1.007c0-.194.131-.266.3-.169l1.723.994a.661.661,0,0,1,.3.514Zm-2.022-1.167,1.723,1V102l-1.723-1Z" transform="translate(-258.085 -67.333)" fill="#56638d"/>
                    <path id="Path_496" data-name="Path 496" d="M265.28,106.916c0,.188-.135.264-.3.17l-1.723-1a.643.643,0,0,1-.3-.514V104.57c0-.2.131-.266.3-.17l1.723,1a.661.661,0,0,1,.3.514Zm-2.022-1.167,1.723,1v-1.007l-1.723-.994Z" transform="translate(-258.085 -68.209)" fill="#56638d"/>
                    <path id="Path_497" data-name="Path 497" d="M265.28,110.653c0,.188-.135.265-.3.17l-1.723-1a.643.643,0,0,1-.3-.514v-1.006c0-.2.131-.266.3-.17l1.723,1a.661.661,0,0,1,.3.514Zm-2.022-1.167,1.723,1v-1.006l-1.723-1Z" transform="translate(-258.085 -69.085)" fill="#56638d"/>
                    <path id="Path_498" data-name="Path 498" d="M265.28,99.441c0,.188-.135.265-.3.17l-1.723-1a.643.643,0,0,1-.3-.514V97.095c0-.2.131-.266.3-.17l1.723,1a.661.661,0,0,1,.3.514Zm-2.022-1.167,1.723,1V98.262l-1.723-1Z" transform="translate(-258.085 -66.457)" fill="#56638d"/>
                    <path id="Path_499" data-name="Path 499" d="M265.28,121.865c0,.188-.135.265-.3.17l-1.723-1a.642.642,0,0,1-.3-.514v-1.007c0-.2.131-.266.3-.169l1.723.994a.661.661,0,0,1,.3.514Zm-2.022-1.167,1.723,1v-1.006l-1.723-1Z" transform="translate(-258.085 -71.714)" fill="#56638d"/>
                    <path id="Path_500" data-name="Path 500" d="M264.983,124.083c-.692-.4-1.035-.6-1.72-.991a.221.221,0,0,0-.168-.037.082.082,0,0,0-.058.022.214.214,0,0,0-.073.182v.131l.1.058.036.022.161.095v-.139a.768.768,0,0,0,.1.058c.62.364.962.561,1.618.94v.132l.1.058.037.021.161.088V124.6A.672.672,0,0,0,264.983,124.083Z" transform="translate(-258.086 -72.591)" fill="#56638d"/>
                    <path id="Path_501" data-name="Path 501" d="M265.28,118.128c0,.188-.135.265-.3.17l-1.723-1a.643.643,0,0,1-.3-.514v-1.006c0-.2.131-.266.3-.17l1.723,1a.661.661,0,0,1,.3.514Zm-2.022-1.167,1.723,1v-1.006l-1.723-1Z" transform="translate(-258.085 -70.838)" fill="#56638d"/>
                    <path id="Path_502" data-name="Path 502" d="M265.28,84.468c0,.188-.135.265-.3.17l-1.723-1a.643.643,0,0,1-.3-.514V82.122c0-.2.131-.266.3-.17l1.723,1a.661.661,0,0,1,.3.514ZM263.259,83.3l1.723,1V83.289l-1.723-1Z" transform="translate(-258.085 -62.947)" fill="#56638d"/>
                    <path id="Path_503" data-name="Path 503" d="M265.28,88.2c0,.188-.135.265-.3.17l-1.723-.994a.644.644,0,0,1-.3-.514V85.859c0-.194.131-.266.3-.169l1.723.994a.661.661,0,0,1,.3.514Zm-2.022-1.167,1.723,1V87.027l-1.723-1Z" transform="translate(-258.085 -63.823)" fill="#56638d"/>
                    <path id="Path_504" data-name="Path 504" d="M265.28,91.943c0,.188-.135.265-.3.17l-1.723-1a.643.643,0,0,1-.3-.514V89.6c0-.2.131-.266.3-.17l1.723,1a.661.661,0,0,1,.3.514Zm-2.022-1.167,1.723,1V90.764l-1.723-.994Z" transform="translate(-258.085 -64.699)" fill="#56638d"/>
                    <path id="Path_505" data-name="Path 505" d="M265.28,80.73c0,.188-.135.265-.3.171l-1.723-1a.644.644,0,0,1-.3-.514V78.384c0-.194.131-.266.3-.169l1.723,1a.658.658,0,0,1,.3.514Zm-2.022-1.167,1.723,1V79.552l-1.723-1Z" transform="translate(-258.085 -62.07)" fill="#56638d"/>
                    <path id="Path_506" data-name="Path 506" d="M265.28,65.8c0,.188-.135.265-.3.17l-1.723-1a.643.643,0,0,1-.3-.514V63.457c0-.2.131-.266.3-.17l1.723,1a.661.661,0,0,1,.3.514Zm-2.022-1.167,1.723,1V64.624l-1.723-1Z" transform="translate(-258.085 -58.571)" fill="#56638d"/>
                    <path id="Path_507" data-name="Path 507" d="M265.28,69.54c0,.188-.135.265-.3.17l-1.723-.994a.644.644,0,0,1-.3-.514V67.194c0-.194.131-.266.3-.169l1.723.994a.661.661,0,0,1,.3.514Zm-2.022-1.167,1.723,1V68.362l-1.723-1Z" transform="translate(-258.085 -59.447)" fill="#56638d"/>
                    <path id="Path_508" data-name="Path 508" d="M265.28,73.278c0,.188-.135.264-.3.17l-1.723-1a.643.643,0,0,1-.3-.514V70.932c0-.2.131-.266.3-.17l1.723,1a.659.659,0,0,1,.3.514Zm-2.022-1.167,1.723,1V72.1l-1.723-1Z" transform="translate(-258.085 -60.323)" fill="#56638d"/>
                    <path id="Path_509" data-name="Path 509" d="M265.28,62.065c0,.188-.135.265-.3.17l-1.723-.994a.644.644,0,0,1-.3-.514V59.719c0-.194.131-.266.3-.169l1.723.994a.661.661,0,0,1,.3.514ZM263.259,60.9l1.723.994V60.887l-1.723-1Z" transform="translate(-258.085 -57.695)" fill="#56638d"/>
                    <path id="Path_510" data-name="Path 510" d="M260.634,61.073c0,.118-.083.165-.186.106l-1.077-.622a.4.4,0,0,1-.186-.322v-.629c0-.122.082-.166.186-.106l1.077.622a.411.411,0,0,1,.186.321Zm-1.263-.729,1.077.622v-.629l-1.077-.622Z" transform="translate(-257.2 -57.687)" fill="#56638d"/>
                    <path id="Path_511" data-name="Path 511" d="M260.634,63.408c0,.117-.083.165-.186.106l-1.077-.622a.4.4,0,0,1-.186-.322v-.629c0-.122.082-.166.186-.106l1.077.622a.411.411,0,0,1,.186.321Zm-1.263-.73,1.077.622v-.629l-1.077-.622Z" transform="translate(-257.2 -58.234)" fill="#56638d"/>
                    <path id="Path_512" data-name="Path 512" d="M260.634,65.743c0,.117-.083.165-.186.106l-1.077-.622a.4.4,0,0,1-.186-.322v-.629c0-.122.082-.166.186-.106l1.077.622a.411.411,0,0,1,.186.321Zm-1.263-.73,1.077.622v-.629l-1.077-.622Z" transform="translate(-257.2 -58.782)" fill="#56638d"/>
                    <path id="Path_513" data-name="Path 513" d="M260.634,58.738c0,.118-.083.165-.186.106l-1.077-.622a.4.4,0,0,1-.186-.322v-.629c0-.122.082-.166.186-.106l1.077.622a.413.413,0,0,1,.186.322Zm-1.263-.729,1.077.622V58l-1.077-.622Z" transform="translate(-257.2 -57.14)" fill="#56638d"/>
                    <g id="Group_181" data-name="Group 181" transform="translate(0 23.681)">
                      <path id="Path_514" data-name="Path 514" d="M258.042,89.671c0,.117-.084.165-.186.106l-1.077-.622a.4.4,0,0,1-.187-.322v-.628c0-.122.083-.167.187-.106l1.077.622a.413.413,0,0,1,.186.322Zm-1.263-.73,1.077.622v-.629l-1.077-.622Z" transform="translate(-256.592 -88.073)" fill="#56638d"/>
                      <path id="Path_515" data-name="Path 515" d="M258.042,91.75c0,.118-.084.166-.186.106l-1.077-.622a.4.4,0,0,1-.187-.322v-.629c0-.122.083-.166.187-.106l1.077.622a.413.413,0,0,1,.186.322Zm-1.263-.729,1.077.622v-.629l-1.077-.622Z" transform="translate(-256.592 -88.56)" fill="#56638d"/>
                      <path id="Path_516" data-name="Path 516" d="M256.658,92.387a.226.226,0,0,1-.066-.142c0-.054.04-.084.088-.057a.408.408,0,0,1,.1.1l1.194,1.489a.244.244,0,0,1,.071.145c0,.055-.039.082-.087.054a.262.262,0,0,1-.073-.066Z" transform="translate(-256.592 -89.035)" fill="#56638d"/>
                      <path id="Path_517" data-name="Path 517" d="M258.042,95.908c0,.118-.084.165-.186.106l-1.077-.622a.4.4,0,0,1-.187-.322v-.629c0-.122.083-.166.187-.106l1.077.622a.413.413,0,0,1,.186.321Zm-1.263-.73,1.077.622v-.629l-1.077-.622Z" transform="translate(-256.592 -89.535)" fill="#56638d"/>
                      <path id="Path_518" data-name="Path 518" d="M258.042,97.987c0,.118-.084.165-.186.106l-1.077-.622a.406.406,0,0,1-.187-.322v-.629c0-.122.083-.166.187-.106l1.077.622a.415.415,0,0,1,.186.322Zm-1.263-.73,1.077.622v-.629l-1.077-.622Z" transform="translate(-256.592 -90.022)" fill="#56638d"/>
                    </g>
                  </g>
                  <g id="Group_184" data-name="Group 184" transform="translate(0 0.096)">
                    <path id="Path_519" data-name="Path 519" d="M265.075,103.208c0,.188-.134.265-.3.17l-1.724-1a.642.642,0,0,1-.3-.514v-1.007c0-.2.131-.266.3-.169l1.724.994a.66.66,0,0,1,.3.514Zm-2.022-1.167,1.724,1v-1.006l-1.724-1Z" transform="translate(-257.88 -67.363)" fill="#fff"/>
                    <path id="Path_520" data-name="Path 520" d="M265.075,106.946c0,.188-.134.264-.3.17l-1.724-1a.644.644,0,0,1-.3-.514V104.6c0-.2.131-.266.3-.17l1.724,1a.659.659,0,0,1,.3.514Zm-2.022-1.167,1.724,1v-1.007l-1.724-.994Z" transform="translate(-257.88 -68.239)" fill="#fff"/>
                    <path id="Path_521" data-name="Path 521" d="M265.075,110.683c0,.188-.134.265-.3.17l-1.724-1a.644.644,0,0,1-.3-.514v-1.006c0-.2.131-.266.3-.17l1.724,1a.66.66,0,0,1,.3.514Zm-2.022-1.167,1.724,1V109.5l-1.724-1Z" transform="translate(-257.88 -69.115)" fill="#fff"/>
                    <path id="Path_522" data-name="Path 522" d="M265.075,99.471c0,.188-.134.265-.3.17l-1.724-1a.644.644,0,0,1-.3-.514V97.125c0-.2.131-.266.3-.17l1.724,1a.659.659,0,0,1,.3.514ZM263.053,98.3l1.724,1V98.292l-1.724-.994Z" transform="translate(-257.88 -66.487)" fill="#fff"/>
                    <path id="Path_523" data-name="Path 523" d="M265.075,121.895c0,.188-.134.265-.3.17l-1.724-1a.644.644,0,0,1-.3-.514v-1.006c0-.2.131-.266.3-.17l1.724,1a.66.66,0,0,1,.3.514Zm-2.022-1.167,1.724,1v-1.006l-1.724-1Z" transform="translate(-257.88 -71.744)" fill="#fff"/>
                    <path id="Path_524" data-name="Path 524" d="M265.035,124.453a.521.521,0,0,0-.058-.132.569.569,0,0,0-.2-.211c-.686-.394-1.028-.6-1.721-.991-.007-.007-.015-.007-.021-.015l-.044-.021c-.139-.044-.233.036-.233.2v.015l.16.095.1.058.036.022v-.015c.059.029.109.065.161.087a.69.69,0,0,0,.1.058c.525.306.867.5,1.458.846v.015l.16.095.1.058.037.021v-.015A.492.492,0,0,0,265.035,124.453Z" transform="translate(-257.88 -72.619)" fill="#fff"/>
                    <path id="Path_525" data-name="Path 525" d="M265.075,118.158c0,.188-.134.264-.3.17l-1.724-1a.644.644,0,0,1-.3-.514v-1.006c0-.2.131-.266.3-.17l1.724,1a.659.659,0,0,1,.3.514Zm-2.022-1.167,1.724,1v-1.007l-1.724-.994Z" transform="translate(-257.88 -70.868)" fill="#fff"/>
                    <path id="Path_526" data-name="Path 526" d="M265.075,84.5c0,.188-.134.265-.3.17l-1.724-1a.644.644,0,0,1-.3-.514V82.152c0-.2.131-.266.3-.17l1.724,1a.66.66,0,0,1,.3.514Zm-2.022-1.167,1.724,1V83.319l-1.724-1Z" transform="translate(-257.88 -62.977)" fill="#fff"/>
                    <path id="Path_527" data-name="Path 527" d="M265.075,88.235c0,.188-.134.265-.3.17l-1.724-.994a.645.645,0,0,1-.3-.514V85.889c0-.194.131-.266.3-.169l1.724.994a.66.66,0,0,1,.3.514Zm-2.022-1.167,1.724,1V87.056l-1.724-1Z" transform="translate(-257.88 -63.853)" fill="#fff"/>
                    <path id="Path_528" data-name="Path 528" d="M265.075,91.973c0,.188-.134.264-.3.17l-1.724-1a.644.644,0,0,1-.3-.514V89.627c0-.2.131-.266.3-.17l1.724,1a.659.659,0,0,1,.3.514Zm-2.022-1.167,1.724,1V90.794l-1.724-.994Z" transform="translate(-257.88 -64.729)" fill="#fff"/>
                    <path id="Path_529" data-name="Path 529" d="M265.075,80.76c0,.188-.134.265-.3.17l-1.724-.994a.645.645,0,0,1-.3-.514V78.414c0-.194.131-.266.3-.169l1.724.994a.66.66,0,0,1,.3.514Zm-2.022-1.167,1.724.994V79.582l-1.724-1Z" transform="translate(-257.88 -62.1)" fill="#fff"/>
                    <path id="Path_530" data-name="Path 530" d="M265.075,65.833c0,.188-.134.265-.3.17l-1.724-1a.644.644,0,0,1-.3-.514V63.487c0-.2.131-.266.3-.17l1.724,1a.66.66,0,0,1,.3.514Zm-2.022-1.167,1.724,1V64.654l-1.724-1Z" transform="translate(-257.88 -58.601)" fill="#fff"/>
                    <path id="Path_531" data-name="Path 531" d="M265.075,69.57c0,.188-.134.265-.3.17l-1.724-1a.644.644,0,0,1-.3-.514V67.224c0-.2.131-.266.3-.17l1.724,1a.66.66,0,0,1,.3.514ZM263.053,68.4l1.724,1V68.391l-1.724-1Z" transform="translate(-257.88 -59.477)" fill="#fff"/>
                    <path id="Path_532" data-name="Path 532" d="M265.075,73.308c0,.188-.134.264-.3.17l-1.724-1a.645.645,0,0,1-.3-.514V70.961c0-.194.131-.266.3-.169l1.724,1a.659.659,0,0,1,.3.514Zm-2.022-1.167,1.724.994V72.129l-1.724-1Z" transform="translate(-257.88 -60.353)" fill="#fff"/>
                    <path id="Path_533" data-name="Path 533" d="M265.075,62.095c0,.188-.134.265-.3.17l-1.724-.994a.645.645,0,0,1-.3-.514V59.749c0-.194.131-.266.3-.169l1.724.994a.66.66,0,0,1,.3.514Zm-2.022-1.167,1.724,1V60.917l-1.724-1Z" transform="translate(-257.88 -57.725)" fill="#fff"/>
                    <path id="Path_534" data-name="Path 534" d="M260.429,61.1c0,.118-.084.165-.186.106l-1.077-.622a.4.4,0,0,1-.186-.322v-.629c0-.122.082-.166.186-.106l1.077.622a.413.413,0,0,1,.186.321Zm-1.263-.729,1.077.622v-.629l-1.077-.622Z" transform="translate(-256.995 -57.717)" fill="#fff"/>
                    <path id="Path_535" data-name="Path 535" d="M260.429,63.438c0,.118-.084.165-.186.106l-1.077-.622a.4.4,0,0,1-.186-.322v-.629c0-.122.082-.166.186-.106l1.077.622a.413.413,0,0,1,.186.321Zm-1.263-.729,1.077.622V62.7l-1.077-.622Z" transform="translate(-256.995 -58.264)" fill="#fff"/>
                    <path id="Path_536" data-name="Path 536" d="M260.429,65.773c0,.118-.084.166-.186.106l-1.077-.622a.4.4,0,0,1-.186-.322v-.629c0-.122.082-.166.186-.106l1.077.622a.413.413,0,0,1,.186.321Zm-1.263-.729,1.077.622v-.629l-1.077-.622Z" transform="translate(-256.995 -58.812)" fill="#fff"/>
                    <path id="Path_537" data-name="Path 537" d="M260.429,58.768c0,.118-.084.165-.186.106l-1.077-.622a.4.4,0,0,1-.186-.322V57.3c0-.122.082-.166.186-.106l1.077.622a.416.416,0,0,1,.186.322Zm-1.263-.729,1.077.622v-.629l-1.077-.622Z" transform="translate(-256.995 -57.17)" fill="#fff"/>
                    <g id="Group_183" data-name="Group 183" transform="translate(0 23.681)">
                      <path id="Path_538" data-name="Path 538" d="M257.837,89.7c0,.117-.084.165-.187.106l-1.077-.622a.4.4,0,0,1-.186-.322v-.629c0-.122.082-.166.186-.106l1.077.622a.412.412,0,0,1,.187.322Zm-1.264-.73,1.077.622v-.629l-1.077-.622Z" transform="translate(-256.387 -88.103)" fill="#fff"/>
                      <path id="Path_539" data-name="Path 539" d="M257.837,91.78c0,.118-.084.165-.187.106l-1.077-.622a.4.4,0,0,1-.186-.322v-.629c0-.122.082-.166.186-.106l1.077.622a.412.412,0,0,1,.187.322Zm-1.264-.729,1.077.622v-.629l-1.077-.622Z" transform="translate(-256.387 -88.59)" fill="#fff"/>
                      <path id="Path_540" data-name="Path 540" d="M256.452,92.417a.227.227,0,0,1-.065-.143c0-.053.039-.084.087-.056a.4.4,0,0,1,.1.1l1.194,1.49a.244.244,0,0,1,.071.145c0,.055-.04.082-.088.054a.27.27,0,0,1-.073-.065Z" transform="translate(-256.387 -89.065)" fill="#fff"/>
                      <path id="Path_541" data-name="Path 541" d="M257.837,95.938c0,.118-.084.165-.187.106l-1.077-.622a.4.4,0,0,1-.186-.322v-.629c0-.122.082-.166.186-.106l1.077.622a.414.414,0,0,1,.187.322Zm-1.264-.73,1.077.622V95.2l-1.077-.622Z" transform="translate(-256.387 -89.565)" fill="#fff"/>
                      <path id="Path_542" data-name="Path 542" d="M257.837,98.017c0,.118-.084.165-.187.106l-1.076-.622a.4.4,0,0,1-.187-.322v-.629c0-.122.082-.167.186-.106l1.077.622a.413.413,0,0,1,.187.322Zm-1.263-.73,1.076.622v-.628l-1.077-.622C256.573,96.91,256.573,97.036,256.574,97.287Z" transform="translate(-256.387 -90.052)" fill="#fff"/>
                    </g>
                  </g>
                </g>
                <g id="Group_186" data-name="Group 186" transform="translate(3.566 6.849)">
                  <path id="Path_543" data-name="Path 543" d="M251.626,51.131c0-.155.053-.213.168-.212h.331a.338.338,0,0,1,.186.052.674.674,0,0,1,.2.171l.329.379a.584.584,0,0,1,.17.416v.351c0,.045-.021.09-.089.051a.184.184,0,0,1-.089-.154v-.345a.212.212,0,0,0-.074-.185l-.309-.358a.5.5,0,0,0-.135-.121.2.2,0,0,0-.122-.028l-.307,0c-.073,0-.078.016-.078.109v.337c0,.045-.021.09-.089.052a.185.185,0,0,1-.089-.155Z" transform="translate(-251.624 -50.919)" fill="#fff"/>
                  <path id="Path_544" data-name="Path 544" d="M252.917,53.636a.221.221,0,0,1,.09.158c0,.068-.044.067-.09.055l-1.2-.3c-.043-.01-.089-.093-.089-.15s.046-.07.089-.06l.213.047V52.95l-.213-.2a.24.24,0,0,1-.089-.162c0-.057.046-.087.089-.048Zm-.331-.083v0l-.481-.439v.324Z" transform="translate(-251.624 -51.294)" fill="#fff"/>
                  <path id="Path_545" data-name="Path 545" d="M251.715,54.75a.165.165,0,0,1-.089-.155c0-.074.032-.084.089-.052l1.292.746v.693c0,.163-.1.269-.257.178l-.122-.07a.565.565,0,0,1-.252-.472v-.19l-.572.134a.113.113,0,0,1-.094,0,.186.186,0,0,1-.083-.153.056.056,0,0,1,.05-.062l.7-.165v-.047Zm.838.484v.458a.208.208,0,0,0,.075.191l.122.07c.071.041.08-.038.08-.1v-.459Z" transform="translate(-251.624 -51.765)" fill="#fff"/>
                  <path id="Path_546" data-name="Path 546" d="M252.829,57.4V57.32c0-.067.021-.113.089-.074a.191.191,0,0,1,.089.171v.345c0,.161-.057.208-.178.208l-.312,0a.364.364,0,0,1-.206-.057.749.749,0,0,1-.2-.172l-.323-.374a.579.579,0,0,1-.167-.423V56.6c0-.054.025-.089.089-.052a.178.178,0,0,1,.089.155v.1ZM251.8,57.01v.039a.219.219,0,0,0,.074.188l.316.364a.447.447,0,0,0,.116.106.239.239,0,0,0,.145.033l.3,0c.076,0,.074-.018.074-.113V57.6Z" transform="translate(-251.624 -52.236)" fill="#fff"/>
                  <path id="Path_547" data-name="Path 547" d="M252.228,59.059l-.513-.3a.165.165,0,0,1-.089-.155c0-.074.032-.085.089-.052l1.2.7a.165.165,0,0,1,.089.155c0,.074-.032.084-.089.051l-.513-.3v.607l.513.3a.163.163,0,0,1,.089.154c0,.074-.032.085-.089.052l-1.2-.7a.165.165,0,0,1-.089-.154c0-.074.032-.085.089-.052l.513.3Z" transform="translate(-251.624 -52.705)" fill="#fff"/>
                  <path id="Path_548" data-name="Path 548" d="M252.508,62.08a.37.37,0,0,1-.2-.06.8.8,0,0,1-.211-.19l-.327-.378a.54.54,0,0,1-.147-.337c0-.12.062-.166.147-.167h.327a.368.368,0,0,1,.211.054.705.705,0,0,1,.2.168l.354.41a.542.542,0,0,1,.145.334c0,.116-.062.164-.145.165Zm.269-.231c.028,0,.053,0,.053-.039a.15.15,0,0,0-.053-.1l-.322-.371a.52.52,0,0,0-.144-.131.214.214,0,0,0-.117-.032l-.338,0c-.024,0-.053,0-.053.04a.162.162,0,0,0,.053.1l.338.393a.43.43,0,0,0,.117.1.227.227,0,0,0,.144.036Z" transform="translate(-251.624 -53.27)" fill="#fff"/>
                  <path id="Path_549" data-name="Path 549" d="M251.8,63.524c0,.054-.025.089-.089.052a.176.176,0,0,1-.089-.155v-.916l1.292.746a.165.165,0,0,1,.089.154c0,.074-.032.085-.089.052l-1.115-.644Z" transform="translate(-251.624 -53.635)" fill="#fff"/>
                  <path id="Path_550" data-name="Path 550" d="M252.829,65.42v-.077c0-.068.021-.113.089-.074a.19.19,0,0,1,.089.171v.345c0,.161-.057.208-.178.209h-.312a.363.363,0,0,1-.206-.057.767.767,0,0,1-.2-.173l-.323-.374a.578.578,0,0,1-.167-.422v-.342c0-.054.025-.089.089-.052a.177.177,0,0,1,.089.155v.1Zm-1.026-.387v.039a.218.218,0,0,0,.074.188l.316.364a.461.461,0,0,0,.116.106.239.239,0,0,0,.145.033l.3,0c.077,0,.074-.018.074-.114v-.024Z" transform="translate(-251.624 -54.117)" fill="#fff"/>
                  <path id="Path_551" data-name="Path 551" d="M251.8,67.536c0,.054-.025.089-.089.052a.177.177,0,0,1-.089-.155v-.916l1.381.8v.916c0,.054-.024.089-.089.052a.179.179,0,0,1-.089-.155v-.71l-.424-.245v.3c0,.054-.024.089-.089.052a.177.177,0,0,1-.089-.155v-.3l-.424-.245Z" transform="translate(-251.624 -54.576)" fill="#fff"/>
                  <path id="Path_552" data-name="Path 552" d="M251.715,68.791a.165.165,0,0,1-.089-.155c0-.074.032-.084.089-.051l1.292.746v.694c0,.163-.1.268-.257.177l-.122-.07a.564.564,0,0,1-.252-.472v-.19l-.572.135a.119.119,0,0,1-.094,0,.188.188,0,0,1-.083-.154.056.056,0,0,1,.05-.062l.7-.165v-.047Zm.838.484v.458c0,.058,0,.151.075.191l.122.071c.071.041.08-.038.08-.1v-.46Z" transform="translate(-251.624 -55.057)" fill="#fff"/>
                  <path id="Path_553" data-name="Path 553" d="M252.916,74.107a.163.163,0,0,1,.089.154c0,.075-.032.085-.089.052l-1.292-.746v-.273l1.065.077h0v0l-.976-.564a.164.164,0,0,1-.089-.154c0-.074.032-.085.089-.052l1.292.746v.272l-1.078-.083v0Z" transform="translate(-251.624 -55.997)" fill="#fff"/>
                  <path id="Path_554" data-name="Path 554" d="M252.917,75.7a.219.219,0,0,1,.09.158c0,.068-.044.067-.09.055l-1.2-.3a.178.178,0,0,1-.089-.151c0-.064.046-.07.089-.06l.213.047v-.439l-.213-.2a.237.237,0,0,1-.089-.162c0-.057.046-.087.089-.047Zm-.33-.083v0l-.482-.439V75.5Z" transform="translate(-251.624 -56.467)" fill="#fff"/>
                  <path id="Path_555" data-name="Path 555" d="M253.007,78.117v.257l-1.292-.746a.165.165,0,0,1-.089-.155c0-.074.032-.085.089-.052l1.047.6v0l-.25-.341-.028-.016a.193.193,0,0,1-.106-.165c0-.074.051-.073.106-.041l.028.016.25-.052v0l-1.047-.6a.164.164,0,0,1-.089-.154c0-.074.032-.085.089-.052l1.292.746v.257l-.312.072Z" transform="translate(-251.624 -56.938)" fill="#fff"/>
                  <path id="Path_556" data-name="Path 556" d="M251.8,79.572c0,.054-.025.089-.089.052a.177.177,0,0,1-.089-.155v-.916l1.381.8v.916c0,.054-.024.089-.089.051a.177.177,0,0,1-.089-.154v-.71l-.424-.245v.3c0,.054-.024.089-.089.052a.177.177,0,0,1-.089-.155v-.3l-.424-.245Z" transform="translate(-251.624 -57.398)" fill="#fff"/>
                </g>
                <g id="Group_194" data-name="Group 194" transform="translate(17.532 14.861)">
                  <g id="Group_187" data-name="Group 187">
                    <path id="Path_557" data-name="Path 557" d="M270.023,69.039V62.1c0-.5.348-.7.778-.455l3.545,2.047a1.723,1.723,0,0,1,.777,1.352v6.938c0,.5-.348.7-.777.454L270.8,70.39A1.722,1.722,0,0,1,270.023,69.039Z" transform="translate(-269.904 -61.421)" fill="#fbe090"/>
                    <path id="Path_558" data-name="Path 558" d="M274.656,72.626a.818.818,0,0,1-.406-.122L270.7,70.457A1.829,1.829,0,0,1,269.867,69V62.065a.666.666,0,0,1,.289-.612.658.658,0,0,1,.668.054l3.545,2.047a1.828,1.828,0,0,1,.837,1.455v6.938a.665.665,0,0,1-.289.612A.516.516,0,0,1,274.656,72.626Zm-4.236-11a.289.289,0,0,0-.144.036.442.442,0,0,0-.17.4V69a1.618,1.618,0,0,0,.718,1.248l3.545,2.047a.434.434,0,0,0,.429.054.441.441,0,0,0,.169-.4V65.009a1.6,1.6,0,0,0-.717-1.249L270.7,61.713A.585.585,0,0,0,270.42,61.624Z" transform="translate(-269.867 -61.384)" fill="#68575c"/>
                  </g>
                  <g id="Group_188" data-name="Group 188" transform="translate(4.108 4.72)">
                    <path id="Path_559" data-name="Path 559" d="M275.473,73.722h-.239V67.55l1.171.677-.12.207-.812-.469Z" transform="translate(-275.234 -67.55)" fill="#68575c"/>
                  </g>
                  <g id="Group_189" data-name="Group 189" transform="translate(1.688 6.509)">
                    <path id="Path_560" data-name="Path 560" d="M273.623,73.63h-.239V70.92l-1.073-.619v2.572h-.239V69.886l1.551.9Z" transform="translate(-272.072 -69.886)" fill="#68575c"/>
                  </g>
                  <g id="Group_190" data-name="Group 190" transform="translate(1.688 0.751)">
                    <path id="Path_561" data-name="Path 561" d="M273.623,66.11l-1.551-.9V62.366h.239v2.71l1.073.62V63.123h.239Z" transform="translate(-272.072 -62.366)" fill="#68575c"/>
                  </g>
                  <g id="Group_191" data-name="Group 191" transform="translate(0.048 2.446)">
                    <rect id="Rectangle_92" data-name="Rectangle 92" width="0.239" height="1.962" transform="translate(0 0.207) rotate(-60.004)" fill="#68575c"/>
                  </g>
                  <g id="Group_192" data-name="Group 192" transform="translate(3 4.288)">
                    <path id="Path_562" data-name="Path 562" d="M274.954,70.915l-1.168-.675V66.985h.239V70.1l1.049.605Z" transform="translate(-273.786 -66.985)" fill="#68575c"/>
                  </g>
                  <g id="Group_193" data-name="Group 193" transform="translate(0.048 5.632)">
                    <rect id="Rectangle_93" data-name="Rectangle 93" width="0.239" height="1.962" transform="translate(0 0.207) rotate(-60.004)" fill="#68575c"/>
                  </g>
                </g>
              </g>
            </g>
          </g>
          <path id="Path_563" data-name="Path 563" d="M256.614,119.47l-5.9-3.4a1.676,1.676,0,0,1,.864-1.039,2.236,2.236,0,0,1,2.085.266,6.21,6.21,0,0,1,2.085,2.137A7.294,7.294,0,0,1,256.614,119.47Z" transform="translate(-247.845 -58.64)" fill="#efeff0"/>
        </g>
      </g>
      <g id="Group_208" data-name="Group 208" transform="translate(68.571 0.695)">
        <g id="Group_207" data-name="Group 207">
          <g id="Group_206" data-name="Group 206">
            <g id="Group_205" data-name="Group 205">
              <path id="Path_564" data-name="Path 564" d="M320.822,69.667c-3.112-4.107-6.193-5.74-11.163-6.445-4.938-.7-8.09-2.389-11.162-6.444V42.327c3.072,4.055,6.224,5.745,11.162,6.444,4.97.7,8.051,2.337,11.163,6.444Z" transform="translate(-298.497 -42.327)" fill="#f1861e"/>
              <path id="Path_565" data-name="Path 565" d="M301.842,60.86v-.355c-.014-1.7-1.138-3.381-2.142-4.652-.124-.154-.185-.233-.309-.4V48.2c.124.162.185.241.309.4,1.181,1.468,2.142,1.092,2.142-.263v-.355c5.863,4.264,9.647,1.363,16.053,5.806v.355a8.514,8.514,0,0,0,2.141,4.652c.124.154.186.233.31.4v7.258c-.124-.162-.186-.241-.31-.4-1.181-1.467-2.141-1.092-2.141.263v.355C311.668,62.611,306.856,64.859,301.842,60.86Z" transform="translate(-298.707 -43.651)" fill="#ff903e"/>
              <path id="Path_566" data-name="Path 566" d="M320.131,65.877V59.329a9.593,9.593,0,0,1-2.451-5.255c-6.306-4.083-9.672-1.468-15.434-5.311.2,1.876-1.749,1.527-2.451.371v6.548a9.313,9.313,0,0,1,2.451,5.256c4.744,3.682,9.626,1.689,15.434,5.311C317.478,64.372,319.43,64.722,320.131,65.877Z" transform="translate(-298.801 -43.836)" fill="#db6309"/>
              <g id="Group_201" data-name="Group 201" transform="translate(6.267 8.015)">
                <g id="Group_200" data-name="Group 200">
                  <path id="Path_567" data-name="Path 567" d="M316.33,59.506a4.214,4.214,0,0,1-4.688,4.4c-2.935-.387-4.657-3.638-4.688-6.361a4.214,4.214,0,0,1,4.688-4.4C314.577,53.532,316.3,56.783,316.33,59.506Z" transform="translate(-306.747 -52.87)" fill="#db6309"/>
                  <path id="Path_568" data-name="Path 568" d="M311.578,64.068c-3.083-.42-4.861-3.834-4.894-6.676a4.384,4.384,0,0,1,4.894-4.556c3.071.4,4.861,3.834,4.894,6.676A4.383,4.383,0,0,1,311.578,64.068Zm0-10.758a4.046,4.046,0,0,0-4.481,4.234c.028,2.6,1.687,5.681,4.481,6.051a4.048,4.048,0,0,0,4.482-4.234C316.032,56.759,314.383,53.692,311.578,53.309Z" transform="translate(-306.684 -52.797)" fill="#f1861e"/>
                </g>
              </g>
              <g id="Group_204" data-name="Group 204" transform="translate(1.474 9.735)">
                <g id="Group_202" data-name="Group 202">
                  <path id="Path_569" data-name="Path 569" d="M302.2,57.168a11.872,11.872,0,0,1-1.773-1.713v-.412a11.911,11.911,0,0,0,1.773,1.713Z" transform="translate(-300.423 -55.043)" fill="#f1861e"/>
                </g>
                <g id="Group_203" data-name="Group 203" transform="translate(0 1.125)">
                  <path id="Path_570" data-name="Path 570" d="M302.2,58.638a11.873,11.873,0,0,1-1.773-1.713v-.413a11.881,11.881,0,0,0,1.773,1.714Z" transform="translate(-300.423 -56.512)" fill="#f1861e"/>
                </g>
              </g>
            </g>
          </g>
        </g>
      </g>
      <g id="Group_210" data-name="Group 210" transform="translate(13.417 88.012)">
        <g id="Group_209" data-name="Group 209">
          <path id="Path_571" data-name="Path 571" d="M244.031,162.079l-.769-.006c-1.458-1.891-4.828-3.161-8.6-3.029-3.316.116-6.078,1.279-7.387,2.9l-.814-.007v2.144c0,.03,0,.059,0,.089v.007h0c0,.079.008.158.017.238.324,2.8,4.512,4.927,9.355,4.758,4.6-.161,8.136-2.34,8.2-4.957h0Z" transform="translate(-226.454 -157.005)" fill="#f1861e"/>
          <path id="Path_572" data-name="Path 572" d="M230.383,168.19c.223.113.456.219.7.318v-8.276c-.243.1-.474.206-.7.318Z" transform="translate(-227.374 -157.286)" fill="#db6309"/>
          <path id="Path_573" data-name="Path 573" d="M234.682,169.071c.337.059.681.107,1.033.142v-9.707h-1.033Z" transform="translate(-228.382 -157.116)" fill="#db6309"/>
          <path id="Path_574" data-name="Path 574" d="M226.831,166.249a3.773,3.773,0,0,0,.328.586v-4l-.328,0Z" transform="translate(-226.542 -157.895)" fill="#db6309"/>
          <path id="Path_575" data-name="Path 575" d="M228.9,167.689q.258.191.547.367v-6.989c-.193.117-.374.24-.547.367Z" transform="translate(-227.026 -157.482)" fill="#db6309"/>
          <path id="Path_576" data-name="Path 576" d="M237.068,169.271c.377.018.759.024,1.146.014v-9.779h-1.146Z" transform="translate(-228.942 -157.116)" fill="#db6309"/>
          <path id="Path_577" data-name="Path 577" d="M227.726,167.1a5.57,5.57,0,0,0,.463.457V162a5.356,5.356,0,0,0-.463.459Z" transform="translate(-226.751 -157.7)" fill="#db6309"/>
          <path id="Path_578" data-name="Path 578" d="M232.228,168.608c.331.11.678.205,1.033.291v-9.383q-.535.125-1.033.289Z" transform="translate(-227.807 -157.118)" fill="#db6309"/>
          <path id="Path_579" data-name="Path 579" d="M244.987,168.462a8.947,8.947,0,0,0,1.014-.527v-6.923a8.929,8.929,0,0,0-1.014-.54Z" transform="translate(-230.798 -157.342)" fill="#db6309"/>
          <path id="Path_580" data-name="Path 580" d="M246.961,167.872a5.971,5.971,0,0,0,.7-.6V162.22a6.158,6.158,0,0,0-.7-.6Z" transform="translate(-231.261 -157.611)" fill="#db6309"/>
          <path id="Path_581" data-name="Path 581" d="M248.434,163v4.1a3.831,3.831,0,0,0,.5-.851v-3.248Z" transform="translate(-231.606 -157.935)" fill="#db6309"/>
          <path id="Path_582" data-name="Path 582" d="M239.784,169.232c.393-.036.773-.09,1.146-.155v-9.571h-1.146Z" transform="translate(-229.578 -157.116)" fill="#db6309"/>
          <path id="Path_583" data-name="Path 583" d="M242.432,168.913c.4-.1.782-.206,1.146-.334V159.93q-.549-.2-1.146-.347Zm.256-5.225a.206.206,0,0,1,0,.411A.206.206,0,0,1,242.688,163.688Z" transform="translate(-230.199 -157.134)" fill="#db6309"/>
          <path id="Path_584" data-name="Path 584" d="M235.828,166.522c-4.843.169-9.031-1.961-9.355-4.758s3.34-5.2,8.183-5.371,9.031,1.961,9.354,4.758S240.671,166.353,235.828,166.522Z" transform="translate(-226.453 -156.384)" fill="#db6309"/>
          <path id="Path_585" data-name="Path 585" d="M235.889,166.345c-4.7.165-8.772-1.9-9.086-4.621s3.244-5.053,7.947-5.217,8.771,1.9,9.086,4.622S240.592,166.181,235.889,166.345Z" transform="translate(-226.531 -156.41)" fill="#f1861e"/>
          <path id="Path_586" data-name="Path 586" d="M236.249,165.745c-3.875.135-7.225-1.569-7.485-3.807s2.673-4.162,6.547-4.3,7.225,1.569,7.484,3.806S240.124,165.609,236.249,165.745Z" transform="translate(-226.991 -156.677)" fill="#f1861e"/>
          <path id="Path_587" data-name="Path 587" d="M236.318,165.7c-3.714.129-6.925-1.5-7.174-3.649s2.562-3.989,6.275-4.119,6.926,1.5,7.174,3.649S240.033,165.574,236.318,165.7Z" transform="translate(-227.08 -156.746)" fill="#db6309"/>
          <ellipse id="Ellipse_54" data-name="Ellipse 54" cx="3.564" cy="6.173" rx="3.564" ry="6.173" transform="translate(2.596 8.939) rotate(-89.69)" fill="#f1861e"/>
        </g>
      </g>
      <g id="Group_212" data-name="Group 212" transform="translate(37.959 98.5)">
        <g id="Group_211" data-name="Group 211">
          <path id="Path_588" data-name="Path 588" d="M271.416,174.264l-.565,0c-1.07-1.389-3.545-2.321-6.317-2.224a7.412,7.412,0,0,0-5.423,2.129l-.6,0v1.574c0,.022,0,.044,0,.066v0h0c0,.058.005.116.012.175.237,2.053,3.313,3.617,6.869,3.493,3.378-.119,5.973-1.719,6.02-3.639h0Z" transform="translate(-258.511 -170.539)" fill="#f1861e"/>
          <path id="Path_589" data-name="Path 589" d="M261.4,178.752c.164.083.335.16.512.234v-6.076c-.178.072-.348.151-.512.233Z" transform="translate(-259.187 -170.745)" fill="#db6309"/>
          <path id="Path_590" data-name="Path 590" d="M264.553,179.4c.247.043.5.078.758.1v-7.127h-.758Z" transform="translate(-259.927 -170.62)" fill="#db6309"/>
          <path id="Path_591" data-name="Path 591" d="M258.788,177.325a2.822,2.822,0,0,0,.241.431v-2.939l-.241,0Z" transform="translate(-258.576 -171.192)" fill="#db6309"/>
          <path id="Path_592" data-name="Path 592" d="M260.306,178.383c.127.094.26.184.4.269v-5.131c-.142.086-.274.177-.4.269Z" transform="translate(-258.932 -170.889)" fill="#db6309"/>
          <path id="Path_593" data-name="Path 593" d="M266.3,179.544c.277.013.557.018.841.01v-7.179H266.3Z" transform="translate(-260.338 -170.62)" fill="#db6309"/>
          <path id="Path_594" data-name="Path 594" d="M259.446,177.948a3.91,3.91,0,0,0,.34.335v-4.077a3.812,3.812,0,0,0-.34.336Z" transform="translate(-258.73 -171.05)" fill="#db6309"/>
          <path id="Path_595" data-name="Path 595" d="M262.751,179.058c.243.081.5.151.759.214v-6.889q-.394.092-.759.211Z" transform="translate(-259.505 -170.622)" fill="#db6309"/>
          <path id="Path_596" data-name="Path 596" d="M272.119,178.951a6.469,6.469,0,0,0,.744-.387v-5.083a6.565,6.565,0,0,0-.744-.4Z" transform="translate(-261.701 -170.786)" fill="#db6309"/>
          <path id="Path_597" data-name="Path 597" d="M273.568,178.518a4.436,4.436,0,0,0,.513-.443v-3.707a4.567,4.567,0,0,0-.513-.442Z" transform="translate(-262.041 -170.984)" fill="#db6309"/>
          <path id="Path_598" data-name="Path 598" d="M274.65,174.943v3.013a2.827,2.827,0,0,0,.364-.625v-2.385Z" transform="translate(-262.295 -171.222)" fill="#db6309"/>
          <path id="Path_599" data-name="Path 599" d="M268.3,179.516c.289-.026.567-.067.841-.114v-7.027H268.3Z" transform="translate(-260.806 -170.62)" fill="#db6309"/>
          <path id="Path_600" data-name="Path 600" d="M270.243,179.282c.292-.071.574-.152.841-.246v-6.35a8.774,8.774,0,0,0-.841-.254Zm.188-3.837a.151.151,0,0,1,0,.3A.151.151,0,0,1,270.431,175.445Z" transform="translate(-261.261 -170.634)" fill="#db6309"/>
          <path id="Path_601" data-name="Path 601" d="M265.394,177.527c-3.556.125-6.631-1.439-6.869-3.493s2.452-3.819,6.008-3.943,6.631,1.439,6.868,3.493S268.949,177.4,265.394,177.527Z" transform="translate(-258.511 -170.083)" fill="#db6309"/>
          <path id="Path_602" data-name="Path 602" d="M265.439,177.4c-3.453.121-6.44-1.4-6.671-3.393s2.382-3.709,5.835-3.83,6.44,1.4,6.67,3.393S268.892,177.276,265.439,177.4Z" transform="translate(-258.568 -170.103)" fill="#f1861e"/>
          <path id="Path_603" data-name="Path 603" d="M265.7,176.955c-2.844.1-5.3-1.151-5.494-2.794s1.961-3.056,4.806-3.156,5.3,1.152,5.5,2.8S268.548,176.856,265.7,176.955Z" transform="translate(-258.906 -170.298)" fill="#f1861e"/>
          <path id="Path_604" data-name="Path 604" d="M265.755,176.926c-2.727.095-5.085-1.1-5.267-2.679s1.88-2.929,4.607-3.025,5.085,1.1,5.267,2.679S268.482,176.83,265.755,176.926Z" transform="translate(-258.972 -170.349)" fill="#db6309"/>
          <ellipse id="Ellipse_55" data-name="Ellipse 55" cx="2.617" cy="4.533" rx="2.617" ry="4.533" transform="translate(1.906 6.563) rotate(-89.69)" fill="#f1861e"/>
        </g>
      </g>
      <g id="Group_214" data-name="Group 214" transform="translate(4.126 76.201)">
        <g id="Group_213" data-name="Group 213">
          <path id="Path_605" data-name="Path 605" d="M225.852,144.692l-.5,0c-.957-1.241-3.169-2.075-5.648-1.987a6.628,6.628,0,0,0-4.848,1.9l-.534,0v1.407c0,.019,0,.039,0,.058v0h0q0,.078.011.156c.212,1.836,2.961,3.234,6.139,3.123,3.02-.106,5.339-1.536,5.38-3.253h0Z" transform="translate(-214.317 -141.363)" fill="#f1861e"/>
          <path id="Path_606" data-name="Path 606" d="M216.9,148.7c.146.074.3.144.458.21v-5.432c-.159.064-.312.135-.458.208Z" transform="translate(-214.922 -141.547)" fill="#db6309"/>
          <path id="Path_607" data-name="Path 607" d="M219.717,149.282c.221.038.447.07.678.093V143h-.678Z" transform="translate(-215.583 -141.435)" fill="#db6309"/>
          <path id="Path_608" data-name="Path 608" d="M214.564,147.429a2.564,2.564,0,0,0,.216.385v-2.627l-.216,0Z" transform="translate(-214.375 -141.947)" fill="#db6309"/>
          <path id="Path_609" data-name="Path 609" d="M215.921,148.374q.17.125.358.241v-4.586c-.126.077-.245.158-.358.241Z" transform="translate(-214.693 -141.676)" fill="#db6309"/>
          <path id="Path_610" data-name="Path 610" d="M221.283,149.412c.247.012.5.017.752.009V143h-.752Z" transform="translate(-215.95 -141.435)" fill="#db6309"/>
          <path id="Path_611" data-name="Path 611" d="M215.152,147.985a3.419,3.419,0,0,0,.3.3v-3.644a3.526,3.526,0,0,0-.3.3Z" transform="translate(-214.513 -141.819)" fill="#db6309"/>
          <path id="Path_612" data-name="Path 612" d="M218.107,148.977c.217.073.445.135.678.191v-6.157c-.234.054-.461.118-.678.189Z" transform="translate(-215.205 -141.437)" fill="#db6309"/>
          <path id="Path_613" data-name="Path 613" d="M226.48,148.881a5.772,5.772,0,0,0,.665-.346v-4.543a5.745,5.745,0,0,0-.665-.355Z" transform="translate(-217.168 -141.584)" fill="#db6309"/>
          <path id="Path_614" data-name="Path 614" d="M227.775,148.494a3.838,3.838,0,0,0,.459-.4v-3.313a3.957,3.957,0,0,0-.459-.4Z" transform="translate(-217.472 -141.76)" fill="#db6309"/>
          <path id="Path_615" data-name="Path 615" d="M228.742,145.3v2.693a2.474,2.474,0,0,0,.326-.559V145.3Z" transform="translate(-217.699 -141.973)" fill="#db6309"/>
          <path id="Path_616" data-name="Path 616" d="M223.065,149.386c.258-.023.508-.059.753-.1V143h-.753Z" transform="translate(-216.368 -141.435)" fill="#db6309"/>
          <path id="Path_617" data-name="Path 617" d="M224.8,149.177a7.635,7.635,0,0,0,.752-.219v-5.676c-.24-.087-.491-.162-.752-.228Zm.168-3.429a.135.135,0,0,1,0,.27A.135.135,0,0,1,224.971,145.748Z" transform="translate(-216.775 -141.447)" fill="#db6309"/>
          <path id="Path_618" data-name="Path 618" d="M220.469,147.608c-3.178.111-5.927-1.287-6.139-3.123s2.192-3.414,5.37-3.525,5.927,1.287,6.14,3.122S223.648,147.5,220.469,147.608Z" transform="translate(-214.317 -140.955)" fill="#db6309"/>
          <path id="Path_619" data-name="Path 619" d="M220.509,147.493c-3.087.108-5.757-1.25-5.963-3.033s2.128-3.316,5.215-3.424,5.757,1.25,5.963,3.032S223.6,147.384,220.509,147.493Z" transform="translate(-214.368 -140.973)" fill="#f1861e"/>
          <path id="Path_620" data-name="Path 620" d="M220.746,147.1c-2.543.09-4.742-1.029-4.912-2.5s1.753-2.732,4.3-2.82,4.741,1.03,4.911,2.5S223.288,147.009,220.746,147.1Z" transform="translate(-214.67 -141.147)" fill="#f1861e"/>
          <path id="Path_621" data-name="Path 621" d="M220.791,147.071c-2.438.085-4.545-.987-4.708-2.395s1.681-2.618,4.118-2.7,4.545.987,4.708,2.395S223.229,146.986,220.791,147.071Z" transform="translate(-214.729 -141.193)" fill="#db6309"/>
          <ellipse id="Ellipse_56" data-name="Ellipse 56" cx="2.339" cy="4.051" rx="2.339" ry="4.051" transform="translate(1.703 5.866) rotate(-89.69)" fill="#f1861e"/>
        </g>
      </g>
      <g id="Group_215" data-name="Group 215" transform="translate(65.025 72.535)">
        <path id="Path_622" data-name="Path 622" d="M319.941,147.54l-13.085,7.555a8.3,8.3,0,0,1-7.462.309l-4.237-2.447c-1.912-1.1-1.673-3.033.536-4.308l13.085-7.555a8.292,8.292,0,0,1,7.461-.309l4.238,2.447C322.389,144.336,322.15,146.265,319.941,147.54Z" transform="translate(-293.866 -137.075)" fill="#c3c6d4" style="mix-blend-mode: multiply;isolation: isolate"/>
        <path id="Path_623" data-name="Path 623" d="M324.175,142.083l-2.369.527-3.159-1.824a8.292,8.292,0,0,0-7.461.309l-10.932,6.311-3.979.886v2.859h0a2.243,2.243,0,0,0,1.289,1.807L301.8,155.4a8.292,8.292,0,0,0,7.461-.309l13.085-7.555a3.12,3.12,0,0,0,1.819-2.362l.008,0Z" transform="translate(-294.43 -137.075)" fill="#db6309"/>
        <path id="Path_624" data-name="Path 624" d="M322.348,143.728l-13.085,7.555a8.294,8.294,0,0,1-7.461.309l-4.238-2.447c-1.912-1.1-1.673-3.033.536-4.308l13.085-7.555a8.292,8.292,0,0,1,7.461-.309l4.238,2.446C324.8,140.525,324.557,142.454,322.348,143.728Z" transform="translate(-294.43 -136.181)" fill="#f1861e"/>
        <path id="Path_625" data-name="Path 625" d="M305.1,151.9a6.429,6.429,0,0,1-3.146-.72l-4.238-2.448a2.049,2.049,0,0,1-1.2-1.706,2.913,2.913,0,0,1,1.732-2.273l13.085-7.555a8.483,8.483,0,0,1,4.126-1.03,6.418,6.418,0,0,1,3.146.72l4.238,2.446a2.052,2.052,0,0,1,1.2,1.707,2.913,2.913,0,0,1-1.732,2.273l-13.085,7.555A8.488,8.488,0,0,1,305.1,151.9Z" transform="translate(-294.488 -136.167)" fill="#f1861e"/>
      </g>
    </g>
  </g>
</svg>
