<svg id="information1" xmlns="http://www.w3.org/2000/svg" width="16" height="16" viewBox="0 0 16 16">
  <path id="Path_3999" data-name="Path 3999" d="M8,0a8,8,0,1,0,8,8A8.009,8.009,0,0,0,8,0ZM8,14.545A6.545,6.545,0,1,1,14.545,8,6.553,6.553,0,0,1,8,14.545Z" fill="#f1861e"/>
  <path id="Path_4000" data-name="Path 4000" d="M145.948,70a.946.946,0,1,0,.946.947A.948.948,0,0,0,145.948,70Z" transform="translate(-137.948 -66.595)" fill="#f1861e"/>
  <path id="Path_4001" data-name="Path 4001" d="M150.71,140a.71.71,0,0,0-.71.71v4.259a.71.71,0,0,0,1.42,0V140.71A.71.71,0,0,0,150.71,140Z" transform="translate(-142.71 -133.119)" fill="#f1861e"/>
</svg>
