<svg xmlns="http://www.w3.org/2000/svg" width="85.622" height="25.059" viewBox="0 0 85.622 25.059">
  <g id="Group_771" data-name="Group 771" transform="translate(11708.972 92.308)">
    <g id="Group_668" data-name="Group 668" transform="translate(-11690.237 -91.173)">
      <g id="Group_666" data-name="Group 666" transform="translate(0)">
        <path id="Path_3849" data-name="Path 3849" d="M855.827,587.292" transform="translate(-808.991 -563.369)" fill="#f1861e"/>
        <path id="Path_3850" data-name="Path 3850" d="M794.6,551.435v1.092a3.226,3.226,0,0,0,3.226-3.228v-1.092a3.227,3.227,0,0,0-3.226,3.228Zm0,6.457v12.383a3.113,3.113,0,0,0,2.284-.948,3.147,3.147,0,0,0,.943-2.3V554.664a3.228,3.228,0,0,0-3.226,3.229Zm21.075-3.229H799.95a3.2,3.2,0,0,0,.943,2.3,3.113,3.113,0,0,0,2.283.948h6.307l-9.118,10.728a3.076,3.076,0,0,0-.447,1.638h15.745a3.225,3.225,0,0,0-3.225-3.228h-6.26l8.879-10.455A3.161,3.161,0,0,0,815.679,554.664Zm2.087-7.372v20.031a2.784,2.784,0,0,0,.943,2.1,3.24,3.24,0,0,0,2.267.873V550.282a2.791,2.791,0,0,0-.942-2.117A3.239,3.239,0,0,0,817.767,547.292Zm40.516,0v20.031a2.785,2.785,0,0,0,.942,2.1,3.241,3.241,0,0,0,2.268.873V550.282a2.79,2.79,0,0,0-.943-2.117A3.238,3.238,0,0,0,858.283,547.292Zm-21.964,9.653a7.761,7.761,0,0,0-13.255,5.525,7.55,7.55,0,0,0,2.268,5.525,7.465,7.465,0,0,0,5.493,2.281H837.1a3.17,3.17,0,0,0-.862-2.217,3.066,3.066,0,0,0-2.347-1.028h-3.066a4.362,4.362,0,0,1-3.21-1.333,4.594,4.594,0,0,1,0-6.456,4.316,4.316,0,0,1,3.21-1.349,4.361,4.361,0,0,1,3.209,1.333,4.55,4.55,0,0,1,1.038,1.622H830.3a3.1,3.1,0,0,0-2.267.947,3.141,3.141,0,0,0-.942,2.281h11.338a7.5,7.5,0,0,0,.16-1.606,7.722,7.722,0,0,0-2.267-5.525Zm17.609,0a7.524,7.524,0,0,1,2.268,5.525v7.806a3.211,3.211,0,0,1-3.21-3.228V562.47a4.366,4.366,0,0,0-1.342-3.228,4.492,4.492,0,0,0-6.419,0,4.412,4.412,0,0,0-1.325,3.228,4.475,4.475,0,0,0,1.325,3.245,4.362,4.362,0,0,0,3.209,1.333h1.326a3.242,3.242,0,0,1,3.225,3.228h-4.551a7.506,7.506,0,0,1-6.291-3.228,7.634,7.634,0,0,1-1.47-4.578,7.766,7.766,0,0,1,7.761-7.806h.4a7.42,7.42,0,0,1,.83.1,4.746,4.746,0,0,1,.895.193,5.567,5.567,0,0,1,.83.289,8.556,8.556,0,0,1,1.549.867l.048.032A8.859,8.859,0,0,1,853.927,556.945Z" transform="translate(-794.604 -547.292)" fill="#f1861e"/>
      </g>
    </g>
    <g id="Group_682" data-name="Group 682" transform="translate(-11708.972 -92.308)">
      <g id="Group_669" data-name="Group 669">
        <path id="Path_3854" data-name="Path 3854" d="M129.458,37.473a4.584,4.584,0,0,1,1.389-3.363,4.51,4.51,0,0,1,3.061-1.4c.158-1.033.355-1.994.49-2.677q.07-.355.158-.688c-.115,0-.23-.007-.346-.007-.251,0-.452,0-.636.017a7.4,7.4,0,0,0-3.028.853,6.779,6.779,0,0,0-1.054.636l-.033.033V25.025a3.37,3.37,0,0,0-3.38-3.363V45.6a3.394,3.394,0,0,0,3.38-3.363Z" transform="translate(-126.078 -21.662)" fill="#f1861e"/>
        <path id="Path_3855" data-name="Path 3855" d="M199.179,177.449a19.494,19.494,0,0,0-.87,3.216,4.726,4.726,0,0,1,2.716,1.354,4.536,4.536,0,0,1,1.405,3.363,4.77,4.77,0,0,1-4.768,4.768h-1.389a3.285,3.285,0,0,0-3.1,2.024,3.244,3.244,0,0,0-.268,1.338h4.752a8.139,8.139,0,0,0,5.756-13.887A7.6,7.6,0,0,0,199.179,177.449Z" transform="translate(-189.531 -169.571)" fill="#f1861e"/>
      </g>
      <path id="Path_3856" data-name="Path 3856" d="M283.064,133.123s-.146-5.748,2.441-6.907a.248.248,0,0,1,.347.2.973.973,0,0,0,.728.873,1.237,1.237,0,0,0,.916-.122,1.054,1.054,0,0,0,.607-1.067s-.165-1.658-2.227-.853a4.763,4.763,0,0,0-2.934,3.724c-.2,1.007-.636,3.083-.3,4.157Z" transform="translate(-274.606 -119.795)" fill="#f1861e"/>
      <path id="Path_3857" data-name="Path 3857" d="M226.834,272.925l-.019-.013a3.381,3.381,0,0,0-.611-.34,2.216,2.216,0,0,0-.328-.113,1.882,1.882,0,0,0-.353-.076,2.884,2.884,0,0,0-.328-.038h-.158a3.054,3.054,0,0,0-3.061,3.061,3.057,3.057,0,0,0,3.061,3.061h1.8a1.273,1.273,0,0,0-1.272-1.266h-.523a1.726,1.726,0,0,1-1.266-.523,1.75,1.75,0,0,1-.523-1.272,1.726,1.726,0,0,1,.523-1.266,1.8,1.8,0,0,1,3.061,1.266v1.8a1.212,1.212,0,0,0,.139.58,1.226,1.226,0,0,0,1.128.687v-3.061a2.943,2.943,0,0,0-.894-2.167A3.507,3.507,0,0,0,226.834,272.925Z" transform="translate(-217.128 -259.668)" fill="#f1861e"/>
      <circle id="Ellipse_67" data-name="Ellipse 67" cx="0.406" cy="0.406" r="0.406" transform="translate(7.911 14.926)" fill="#f1861e"/>
    </g>
  </g>
</svg>
