<svg xmlns="http://www.w3.org/2000/svg" width="23" height="20.319" viewBox="0 0 23 20.319">
  <g id="like" transform="translate(0 -29.836)">
    <g id="Group_2" data-name="Group 2" transform="translate(0 29.836)">
      <path id="Path_2" data-name="Path 2" d="M21.322,31.832a5.793,5.793,0,0,0-9.249.666,8.819,8.819,0,0,0-.573.928,8.811,8.811,0,0,0-.573-.928,5.793,5.793,0,0,0-9.249-.666A6.972,6.972,0,0,0,0,36.463a8.537,8.537,0,0,0,2.351,5.6,52.349,52.349,0,0,0,5.885,5.5c.89.758,1.81,1.543,2.79,2.4l.029.026a.674.674,0,0,0,.888,0l.029-.026c.98-.857,1.9-1.642,2.79-2.4a52.343,52.343,0,0,0,5.885-5.5A8.538,8.538,0,0,0,23,36.463,6.972,6.972,0,0,0,21.322,31.832Zm-7.432,14.7c-.767.654-1.557,1.327-2.39,2.051-.833-.724-1.622-1.4-2.39-2.051-4.675-3.983-7.763-6.615-7.763-10.074a5.626,5.626,0,0,1,1.341-3.74,4.5,4.5,0,0,1,3.42-1.539,4.543,4.543,0,0,1,3.718,2.093,7.989,7.989,0,0,1,1.031,2.051.674.674,0,0,0,1.281,0,7.99,7.99,0,0,1,1.031-2.051,4.447,4.447,0,0,1,7.139-.554,5.626,5.626,0,0,1,1.342,3.74C21.652,39.922,18.564,42.554,13.89,46.537Z" transform="translate(0 -29.836)" fill="#333"/>
    </g>
  </g>
</svg>
