<svg xmlns="http://www.w3.org/2000/svg" width="105.664" height="115.728" viewBox="0 0 105.664 115.728">
  <g id="Group_172" data-name="Group 172" transform="translate(-222.412 -194.061)">
    <g id="Group_169" data-name="Group 169" transform="translate(222.412 194.061)">
      <path id="Path_409" data-name="Path 409" d="M250.343,312.195l35.175-20.308a12.427,12.427,0,0,1,11.244-.021l1.215.7c3.095,1.787,3.079,4.694-.036,6.492l-35.174,20.308a12.427,12.427,0,0,1-11.244.021l-1.215-.7C247.213,316.9,247.229,313.993,250.343,312.195Z" transform="translate(-226.13 -208.081)" fill="#e3e5ef" style="mix-blend-mode: multiply;isolation: isolate"/>
      <g id="Group_168" data-name="Group 168" transform="translate(0 0)">
        <g id="Group_165" data-name="Group 165" transform="translate(0)">
          <ellipse id="Ellipse_50" data-name="Ellipse 50" cx="48.569" cy="28.04" rx="48.569" ry="28.04" transform="matrix(0.505, -0.863, 0.863, 0.505, 0, 83.859)" fill="#494440"/>
          <path id="Path_410" data-name="Path 410" d="M306,214.316l-6.186-3.571-49.928,83.3,6.977,4.06Z" transform="translate(-226.405 -196.486)" fill="#494440"/>
          <ellipse id="Ellipse_51" data-name="Ellipse 51" cx="48.569" cy="28.04" rx="48.569" ry="28.04" transform="matrix(0.505, -0.863, 0.863, 0.505, 6.175, 87.425)" fill="#57524e"/>
          <ellipse id="Ellipse_52" data-name="Ellipse 52" cx="47.412" cy="27.372" rx="47.412" ry="27.372" transform="matrix(0.505, -0.863, 0.863, 0.505, 7.938, 87.11)" fill="#65605d"/>
          <ellipse id="Ellipse_53" data-name="Ellipse 53" cx="44.185" cy="25.509" rx="44.185" ry="25.509" transform="matrix(0.505, -0.863, 0.863, 0.505, 11.174, 85.265)" fill="#807c79"/>
          <path id="Path_411" data-name="Path 411" d="M312.9,239.754c0,19.511-13.788,43.286-30.791,53.1-9.172,5.3-17.412,5.448-23.052,1.4-4.808-3.462-7.732-9.972-7.732-18.951,0-.592.015-1.185.038-1.777.031-.739.077-1.478.154-2.224a59.2,59.2,0,0,1,3.908-16c.315-.792.638-1.592.985-2.385a74.644,74.644,0,0,1,8.756-15.1c.515-.692,1.038-1.369,1.585-2.039a59.6,59.6,0,0,1,11.988-11.418c.615-.438,1.238-.854,1.862-1.246.5-.324,1-.623,1.509-.915,7.9-4.563,15.111-5.309,20.558-2.839C308.944,222.2,312.9,229.312,312.9,239.754Z" transform="translate(-226.614 -197.536)" fill="#b2b0af"/>
          <path id="Path_412" data-name="Path 412" d="M310.421,238.33c0,19.5-13.78,43.279-30.784,53.1-7.917,4.57-15.126,5.308-20.581,2.832-4.808-3.462-7.732-9.972-7.732-18.951,0-.592.015-1.185.038-1.777.031-.739.077-1.478.154-2.224a59.2,59.2,0,0,1,3.908-16c.315-.792.638-1.592.985-2.385a74.644,74.644,0,0,1,8.756-15.1c.515-.692,1.038-1.369,1.585-2.039a59.6,59.6,0,0,1,11.988-11.418c.615-.438,1.238-.854,1.862-1.246.5-.324,1-.623,1.509-.915,7.9-4.563,15.111-5.309,20.558-2.839C307.489,222.811,310.421,229.328,310.421,238.33Z" transform="translate(-226.614 -197.536)" fill="#f7fbff"/>
          <g id="Group_164" data-name="Group 164" transform="translate(24.748 20.619)">
            <g id="Group_163" data-name="Group 163">
              <path id="Path_413" data-name="Path 413" d="M283.006,249.768l-.865,1.616,8.409-28.055-1.38.138-9.06,30.222c-.044.022-.085.034-.129.06a3.631,3.631,0,0,0-.585.436L269.345,244.2l-1.317,1.865,10.048,9.981a4.239,4.239,0,0,0-.363,1.616,1.8,1.8,0,0,0,.4,1.242l-15.358,28.683.811.36,14.256-26.626-.356,1.187,1.38-.138,1.006-3.355c.044-.022.085-.034.128-.06a3.594,3.594,0,0,0,.585-.436l1.571,1.561,1.318-1.865-1.568-1.558a4.239,4.239,0,0,0,.363-1.616,1.8,1.8,0,0,0-.4-1.242l1.967-3.673Z" transform="translate(-253.023 -218.934)" fill="#cbd1d6"/>
              <path id="Path_414" data-name="Path 414" d="M282.924,263.009l-1.38.138,11.7-39.042,1.38-.138Z" transform="translate(-255.753 -219.027)" fill="#65605d"/>
              <path id="Path_415" data-name="Path 415" d="M284.581,254.9l.811.36-20.251,37.82-.811-.359Z" transform="translate(-253.252 -223.522)" fill="#f1861e"/>
              <path id="Path_416" data-name="Path 416" d="M285.927,262.4l-1.317,1.865L270.5,250.253l1.317-1.865Z" transform="translate(-254.148 -222.576)" fill="#65605d"/>
              <g id="Group_162" data-name="Group 162">
                <path id="Path_417" data-name="Path 417" d="M285.259,223.994v1.923a2.066,2.066,0,0,1-.931,1.609c-.515.292-.931.054-.931-.538V225.24C284.013,224.8,284.636,224.386,285.259,223.994Z" transform="translate(-256.023 -219.031)" fill="#65605d"/>
                <path id="Path_418" data-name="Path 418" d="M253.992,279.84a2.06,2.06,0,0,1-.932,1.608l-1.692.978c.031-.739.077-1.478.154-2.224l1.538-.892C253.569,279.017,253.992,279.255,253.992,279.84Z" transform="translate(-251.368 -227.051)" fill="#65605d"/>
                <path id="Path_419" data-name="Path 419" d="M284.327,297.068a2.053,2.053,0,0,0-.932,1.608v2.355c0,.591.418.828.932.532a2.054,2.054,0,0,0,.932-1.608V297.6C285.259,297.008,284.842,296.771,284.327,297.068Z" transform="translate(-256.022 -229.631)" fill="#65605d"/>
                <path id="Path_420" data-name="Path 420" d="M317.522,241.966l-2.053,1.185a2.055,2.055,0,0,0-.932,1.608c0,.591.418.829.932.532l2.053-1.185a2.052,2.052,0,0,0,.932-1.608C318.454,241.906,318.037,241.669,317.522,241.966Z" transform="translate(-260.548 -221.624)" fill="#65605d"/>
                <path id="Path_421" data-name="Path 421" d="M311.762,229.245l1.778-2.205a1.562,1.562,0,0,0,.341-1.657h0c-.257-.363-.827-.209-1.273.344l-1.778,2.2a1.565,1.565,0,0,0-.341,1.658C310.746,229.951,311.316,229.8,311.762,229.245Z" transform="translate(-259.941 -219.204)" fill="#65605d"/>
                <path id="Path_422" data-name="Path 422" d="M299.429,223.212h0c.446.038,1.016-.467,1.273-1.126l1.026-2.632c.257-.661.1-1.226-.342-1.264s-1.015.467-1.273,1.126l-1.026,2.632C298.831,222.608,298.983,223.174,299.429,223.212Z" transform="translate(-258.285 -218.187)" fill="#65605d"/>
                <path id="Path_423" data-name="Path 423" d="M269.172,241.043c-.446.554-1.015.708-1.269.346l-.385-.538c.515-.692,1.038-1.369,1.585-2.039l.408.578A1.546,1.546,0,0,1,269.172,241.043Z" transform="translate(-253.715 -221.184)" fill="#65605d"/>
                <path id="Path_424" data-name="Path 424" d="M258.114,260.175c-.254.662-.824,1.169-1.27,1.131l-.723-.061c.315-.792.638-1.592.985-2.385l.67.053C258.222,258.951,258.376,259.521,258.114,260.175Z" transform="translate(-252.059 -224.097)" fill="#65605d"/>
                <path id="Path_425" data-name="Path 425" d="M256.6,295.193l-1.777,2.205a1.564,1.564,0,0,0-.341,1.658c.257.362.828.209,1.273-.344l1.778-2.2a1.565,1.565,0,0,0,.34-1.658C257.612,294.486,257.042,294.641,256.6,295.193Z" transform="translate(-251.802 -229.299)" fill="#65605d"/>
                <path id="Path_426" data-name="Path 426" d="M269.061,301.146c-.446-.038-1.015.467-1.273,1.127l-1.026,2.632c-.257.661-.1,1.226.342,1.263s1.015-.467,1.273-1.127l1.026-2.632C269.66,301.749,269.507,301.183,269.061,301.146Z" transform="translate(-253.587 -230.242)" fill="#65605d"/>
                <path id="Path_427" data-name="Path 427" d="M300.722,283.338c-.258-.362-.828-.209-1.273.344a1.563,1.563,0,0,0-.34,1.658l1.027,1.446c.258.362.828.208,1.273-.345a1.562,1.562,0,0,0,.34-1.657Z" transform="translate(-258.288 -227.626)" fill="#65605d"/>
                <path id="Path_428" data-name="Path 428" d="M313.552,263.625l-1.779-.15c-.446-.038-1.016.467-1.273,1.127s-.1,1.226.342,1.263l1.779.15c.446.038,1.015-.468,1.273-1.127S314,263.663,313.552,263.625Z" transform="translate(-259.943 -224.768)" fill="#65605d"/>
              </g>
              <path id="Path_429" data-name="Path 429" d="M286.369,260.8a5,5,0,0,1-2.269,3.914c-1.253.723-2.269.144-2.269-1.294a5,5,0,0,1,2.269-3.914C285.353,258.783,286.369,259.362,286.369,260.8Z" transform="translate(-255.795 -224.146)" fill="#65605d"/>
              <path id="Path_430" data-name="Path 430" d="M285.422,261.708a2.486,2.486,0,0,1-1.128,1.945c-.623.36-1.128.072-1.128-.643a2.486,2.486,0,0,1,1.128-1.946C284.917,260.706,285.422,260.993,285.422,261.708Z" transform="translate(-255.989 -224.395)" fill="#8c8886"/>
            </g>
          </g>
        </g>
        <g id="Group_167" data-name="Group 167" transform="translate(61.949 51.998)">
          <g id="Group_166" data-name="Group 166">
            <path id="Path_431" data-name="Path 431" d="M329.8,277.652l-28.522,19.235c-1.1.633-1.868,2.767-1.868,2.767s-3.453-1.991-3.469-2.005a3.764,3.764,0,0,1-1.042-2.929V281.73c0-2.862,1.74-6.187,3.887-7.426l32.8-18.936a2.46,2.46,0,0,1,2.605-.168c.125.079,3.094,1.709,3.2,1.817.58.571-2.473,1.849-2.473,3.132l-1.233,10.078C333.683,273.089,331.943,276.413,329.8,277.652Z" transform="translate(-294.895 -254.901)" fill="#db6309"/>
            <path id="Path_432" data-name="Path 432" d="M335.258,280.8l-32.8,18.937c-2.146,1.239-3.886-.076-3.886-2.938V283.808c0-2.862,1.74-6.187,3.886-7.426l32.8-18.936c2.146-1.239,3.886.076,3.886,2.938v12.989C339.144,276.235,337.4,279.56,335.258,280.8Z" transform="translate(-295.429 -255.203)" fill="#f1861e"/>
            <path id="Path_433" data-name="Path 433" d="M301.5,300.125c-1.2,0-1.973-1.188-1.973-3.026V284.209c0-2.723,1.651-5.892,3.68-7.064l32.506-18.767a2.741,2.741,0,0,1,1.355-.415c1.2,0,1.973,1.188,1.973,3.026v12.889c0,2.724-1.651,5.893-3.681,7.065l-32.505,18.766A2.743,2.743,0,0,1,301.5,300.125Z" transform="translate(-295.568 -255.346)" fill="#f1861e"/>
          </g>
        </g>
      </g>
    </g>
    <g id="Group_171" data-name="Group 171" transform="translate(296.876 256.821)">
      <g id="Group_170" data-name="Group 170" transform="translate(0 0)">
        <path id="Path_434" data-name="Path 434" d="M310.238,292.2c.061-.623.091-.934.152-1.556a1.855,1.855,0,0,0,1.665-.341,1.509,1.509,0,0,0,.767-1.444c-.231-1.387-2.78,1.528-3.237-1.224a3.854,3.854,0,0,1,1.579-3.73,2.245,2.245,0,0,1,1.726-.516l-.116,1.544a1.837,1.837,0,0,0-1.387.354,1.532,1.532,0,0,0-.744,1.488c.227,1.366,2.778-1.54,3.229,1.18a3.88,3.88,0,0,1-1.595,3.73A2.308,2.308,0,0,1,310.238,292.2Z" transform="translate(-309.537 -269.796)" fill="#fff"/>
        <path id="Path_435" data-name="Path 435" d="M318.59,285.265l-2.161,1.566c-.06.756-.09,1.132-.149,1.887l-1.105.8c.339-3.566.509-5.349.847-8.914l1.064-.771,3.312,5.9-1.132.821C319,286.039,318.861,285.781,318.59,285.265Zm-.555-1.056-1.209-2.3c-.107,1.349-.161,2.023-.267,3.372Z" transform="translate(-310.356 -269.285)" fill="#fff"/>
        <path id="Path_436" data-name="Path 436" d="M323,280.566c.174,1.05.261,1.576.435,2.626l-1.078.78c-.175-1.058-.263-1.588-.439-2.646l-2.592-3.456,1.144-.83,1.791,2.39.7-4.192,1.057-.767C323.608,276.909,323.4,278.128,323,280.566Z" transform="translate(-310.959 -268.506)" fill="#fff"/>
        <path id="Path_437" data-name="Path 437" d="M329.141,277.62l-2.162,1.566c-.059.756-.089,1.132-.149,1.887l-1.1.8.846-8.914,1.065-.77c1.325,2.36,1.987,3.539,3.311,5.9l-1.131.82C329.547,278.393,329.412,278.135,329.141,277.62Zm-.555-1.056-1.209-2.3c-.107,1.349-.161,2.023-.268,3.372Z" transform="translate(-311.89 -268.174)" fill="#fff"/>
        <path id="Path_438" data-name="Path 438" d="M335.248,272.384l.861.515a4.788,4.788,0,0,1-1.6,2.644l.007.446c.418-.221.652.024.725.459a1.847,1.847,0,0,1-.8,1.756.987.987,0,0,1-.656.226c.016-.331.025-.5.042-.826a.734.734,0,0,0,.458-.153.6.6,0,0,0,.291-.591c-.031-.18-.144-.238-.377-.07l-.226.164c-.005-.427-.008-.642-.014-1.07-1.26.581-2.371-.273-2.7-2.274a6.026,6.026,0,0,1,1.892-5.664,1.576,1.576,0,0,1,2.133-.075c-.208.607-.314.91-.522,1.517a.973.973,0,0,0-1.316-.019,3.627,3.627,0,0,0-1.1,3.45c.232,1.4,1.013,1.923,1.884,1.291A3.011,3.011,0,0,0,335.248,272.384Z" transform="translate(-312.679 -267.492)" fill="#fff"/>
      </g>
    </g>
  </g>
</svg>
