<svg xmlns="http://www.w3.org/2000/svg" width="133" height="96.31" viewBox="0 0 133 96.31">
  <g id="XMLID_69_" transform="translate(0 -8)">
    <path id="XMLID_115_" d="M125.623,104.31H7.377A7.376,7.376,0,0,1,0,96.933V15.377A7.376,7.376,0,0,1,7.377,8H125.623A7.376,7.376,0,0,1,133,15.377V96.933a7.376,7.376,0,0,1-7.377,7.377" fill="#f1861e"/>
    <rect id="XMLID_114_" width="133" height="19" transform="translate(0 19)" fill="#fff"/>
    <path id="XMLID_113_" d="M27.931,30.586H7.293a2.293,2.293,0,1,1,0-4.586H27.931a2.293,2.293,0,1,1,0,4.586" transform="translate(6.466 23.276)" fill="#fff"/>
    <path id="XMLID_112_" d="M40.931,30.586H20.293a2.293,2.293,0,1,1,0-4.586H40.931a2.293,2.293,0,1,1,0,4.586" transform="translate(23.276 23.276)" fill="#fff"/>
    <path id="XMLID_111_" d="M9.586,35.586H7.293a2.293,2.293,0,0,1,0-4.586H9.586a2.293,2.293,0,0,1,0,4.586" transform="translate(6.466 29.741)" fill="#fff"/>
    <path id="XMLID_110_" d="M16.879,35.586H12.293a2.293,2.293,0,0,1,0-4.586h4.586a2.293,2.293,0,0,1,0,4.586" transform="translate(12.931 29.741)" fill="#fff"/>
    <path id="XMLID_109_" d="M20.586,35.586H18.293a2.293,2.293,0,0,1,0-4.586h2.293a2.293,2.293,0,0,1,0,4.586" transform="translate(20.69 29.741)" fill="#fff"/>
    <path id="XMLID_108_" d="M27.879,35.586H23.293a2.293,2.293,0,0,1,0-4.586h4.586a2.293,2.293,0,0,1,0,4.586" transform="translate(27.155 29.741)" fill="#fff"/>
    <path id="XMLID_107_" d="M29.293,35.57a2.411,2.411,0,0,1-1.628-.665A2.368,2.368,0,0,1,27,33.277a2.3,2.3,0,1,1,2.293,2.293" transform="translate(34.914 29.758)" fill="#fff"/>
    <path id="XMLID_106_" d="M61.517,46.759A13.759,13.759,0,1,1,47.759,33,13.758,13.758,0,0,1,61.517,46.759" transform="translate(43.966 32.328)" fill="#1a8ac2"/>
    <path id="XMLID_105_" d="M68.517,46.759A13.759,13.759,0,1,1,54.759,33,13.758,13.758,0,0,1,68.517,46.759" transform="translate(53.017 32.328)" fill="#aa3030"/>
  </g>
</svg>
