<svg xmlns="http://www.w3.org/2000/svg" xmlns:xlink="http://www.w3.org/1999/xlink" width="482.619" height="311.869" viewBox="0 0 482.619 311.869">
  <defs>
    <linearGradient id="linear-gradient" y1="0.5" x2="1" y2="0.5" gradientUnits="objectBoundingBox">
      <stop offset="0" stop-color="#1f3073"/>
      <stop offset="1" stop-color="#4e6cde"/>
    </linearGradient>
    <linearGradient id="linear-gradient-2" y1="0.5" x2="1" y2="0.5" gradientUnits="objectBoundingBox">
      <stop offset="0" stop-color="#7c3596"/>
      <stop offset="1" stop-color="#3098ff"/>
    </linearGradient>
    <linearGradient id="linear-gradient-3" x1="-0.272" y1="1.088" x2="1.226" y2="-0.161" gradientUnits="objectBoundingBox">
      <stop offset="0" stop-color="#354996"/>
      <stop offset="1" stop-color="#4e6cde"/>
    </linearGradient>
    <linearGradient id="linear-gradient-6" x1="0.494" y1="0.578" x2="0.444" y2="-0.361" xlink:href="#linear-gradient-3"/>
    <linearGradient id="linear-gradient-7" x1="0.5" y1="0.8" x2="0.5" y2="0.077" gradientUnits="objectBoundingBox">
      <stop offset="0" stop-color="#ffc05c"/>
      <stop offset="1" stop-color="#ff3857"/>
    </linearGradient>
    <linearGradient id="linear-gradient-8" x1="0.5" y1="1.172" x2="0.5" y2="-1.125" xlink:href="#linear-gradient-7"/>
    <linearGradient id="linear-gradient-9" x1="0.5" y1="1.032" x2="0.5" y2="-0.35" xlink:href="#linear-gradient-2"/>
    <linearGradient id="linear-gradient-10" y1="0.5" x2="1" y2="0.5" gradientUnits="objectBoundingBox">
      <stop offset="0" stop-color="#ffc05c"/>
      <stop offset="1" stop-color="#f1861e"/>
    </linearGradient>
  </defs>
  <g id="Group_1136" data-name="Group 1136" transform="translate(-57.307 -44.326)">
    <g id="Group_1135" data-name="Group 1135" transform="translate(57.307 44.326)">
      <rect id="Rectangle_342" data-name="Rectangle 342" width="229.264" height="220.715" transform="translate(96.886 40.892)" fill="#333"/>
      <g id="Group_1002" data-name="Group 1002" transform="translate(320.943 154.295)">
        <path id="Path_4278" data-name="Path 4278" d="M546.66,274.585s-12.454-34.222-41.234-25.222c0,0,24.28,3.9,36.734,24.239S546.66,274.585,546.66,274.585Z" transform="translate(-486.621 -247.842)" fill="#df6e00"/>
        <path id="Path_4279" data-name="Path 4279" d="M552.558,274.585s12.454-34.222,41.234-25.222c0,0-24.279,3.9-36.734,24.239S552.558,274.585,552.558,274.585Z" transform="translate(-497.414 -247.842)" fill="#df6e00"/>
        <path id="Path_4280" data-name="Path 4280" d="M593.355,247.894s19.527-2.012.751,28.844l10.158,1.187S640.322,246.324,593.355,247.894Z" transform="translate(-507.886 -247.837)" fill="#df6e00"/>
        <path id="Path_4281" data-name="Path 4281" d="M560.323,281.384l-3.42,1.544-.918.414s-13.467-3.786-5.909-7.025a7.533,7.533,0,0,1,4.632-.611C558.769,276.587,560.323,281.384,560.323,281.384Z" transform="translate(-496.862 -254.543)" fill="#f1861e"/>
        <path id="Path_4282" data-name="Path 4282" d="M556.9,282.928l-.918.414s-13.467-3.786-5.909-7.025a7.533,7.533,0,0,1,4.632-.611l.026.008S548.813,277.74,556.9,282.928Z" transform="translate(-496.862 -254.543)" fill="#f1861e"/>
        <rect id="Rectangle_343" data-name="Rectangle 343" width="104.888" height="82.385" transform="translate(3.72 24.927)" fill="#538ac8"/>
        <rect id="Rectangle_344" data-name="Rectangle 344" width="112.327" height="24.734" transform="translate(0 24.927)" fill="#ace0f3"/>
        <rect id="Rectangle_345" data-name="Rectangle 345" width="22.563" height="82.385" transform="translate(44.883 24.927)" fill="#df6e00"/>
      </g>
      <g id="Group_1003" data-name="Group 1003" transform="translate(411.118 193.53)">
        <path id="Path_4283" data-name="Path 4283" d="M637.5,312.768s-9.125-3.318-14.165-7.044a8.78,8.78,0,0,1-3.064-3.349,2.308,2.308,0,0,1,.716-2.741s.611-.249,2.155.392c2.29.951,6.634,3.858,14.086,12.429C637.318,312.558,637.409,312.664,637.5,312.768Z" transform="translate(-604.524 -299.587)" fill="url(#linear-gradient)"/>
        <path id="Path_4284" data-name="Path 4284" d="M634.78,312.784l-.519,2.544s-18.219,4.55-24.006-1.388c-.085-.086-.168-.174-.244-.265a4.707,4.707,0,0,1-1.005-1.792c-1.635-5.635,9.262-12.233,9.262-12.233-.249.317-.183.757.123,1.284a8.53,8.53,0,0,0,1.494,1.738C624.174,306.728,634.78,312.784,634.78,312.784Z" transform="translate(-601.805 -299.602)" fill="url(#linear-gradient-2)"/>
        <path id="Path_4285" data-name="Path 4285" d="M619.938,303.083s-3.749,1.548-4.88,3.974-1.767,4.488-3.334,5.229a4.1,4.1,0,0,0-1.66,1.8,4.707,4.707,0,0,1-1.005-1.792,5.682,5.682,0,0,1,1.3-2.992c2.331-2.757,4.689-4.75,4.978-5.751.218-.754,2.163-1.757,3.109-2.206a8.527,8.527,0,0,0,1.494,1.738Z" transform="translate(-601.858 -300.012)" fill="url(#linear-gradient-3)"/>
        <path id="Path_4286" data-name="Path 4286" d="M650.377,312.768s9.125-3.318,14.166-7.044a8.8,8.8,0,0,0,3.063-3.349,2.306,2.306,0,0,0-.716-2.741s-.609-.249-2.155.392c-2.29.951-6.634,3.858-14.086,12.429Z" transform="translate(-611.851 -299.587)" fill="url(#linear-gradient)"/>
        <path id="Path_4287" data-name="Path 4287" d="M650.377,312.784l.519,2.544s18.22,4.55,24.007-1.388c.085-.086.167-.174.244-.265a4.729,4.729,0,0,0,1.006-1.792c1.634-5.635-9.263-12.233-9.263-12.233.249.317.183.757-.124,1.284a8.452,8.452,0,0,1-1.494,1.738C660.982,306.728,650.377,312.784,650.377,312.784Z" transform="translate(-611.851 -299.602)" fill="url(#linear-gradient-2)"/>
        <path id="Path_4288" data-name="Path 4288" d="M642.051,316.6s.851-.964,1.448-.587,1.447-.723,2.359-.282,1.007-.779,2.108-.107,1.763,2.875.944,3.977-1.258-.221-1.668,0-1.164,1.2-2.422.444-3.115.688-2.99-.256S641.518,318.409,642.051,316.6Z" transform="translate(-609.771 -303.414)" fill="url(#linear-gradient-6)"/>
        <rect id="Rectangle_346" data-name="Rectangle 346" width="66.764" height="52.442" transform="translate(2.369 15.636)" fill="url(#linear-gradient-7)"/>
        <rect id="Rectangle_347" data-name="Rectangle 347" width="71.501" height="18.197" transform="translate(0 15.636)" fill="url(#linear-gradient-8)"/>
        <rect id="Rectangle_348" data-name="Rectangle 348" width="14.362" height="52.442" transform="translate(28.57 15.636)" fill="url(#linear-gradient-9)"/>
      </g>
      <g id="Group_1005" data-name="Group 1005" transform="translate(25.856 32.153)">
        <path id="Path_4289" data-name="Path 4289" d="M123.731,172.653c11.56,8.052,22.9,13.45,28.988,10.158a7.028,7.028,0,0,0,1.014-.667c3.477-2.754,4.706-9.184,2.374-20.837-6.207-31.013-25.693-35.95-43.905-45.284-17.987-9.209-11.131-28.789-10.952-29.288C76.4,130.758,104.133,159,123.731,172.653Z" transform="translate(-91.411 -86.735)" fill="#df6e00"/>
        <g id="Group_1004" data-name="Group 1004" transform="translate(15.312 43.673)">
          <path id="Path_4290" data-name="Path 4290" d="M157.6,196.742a7.024,7.024,0,0,0,1.014-.667c-2.293-6.028-7.358-17.695-14.267-24.011a117.7,117.7,0,0,0-11.053-8.528c-7.576-5.39-15.406-10.971-20.7-19.2l-.989.632c5.422,8.416,13.345,14.058,21.013,19.517a114.75,114.75,0,0,1,10.937,8.439C150.3,179.086,155.371,190.865,157.6,196.742Z" transform="translate(-111.607 -144.338)" fill="#efb57c"/>
        </g>
      </g>
      <g id="Group_1007" data-name="Group 1007" transform="translate(0 100.083)">
        <path id="Path_4291" data-name="Path 4291" d="M81.562,226.012c15.946,2.613,26.232-9.984,44.582,13.21,15.841,20.021,38.249-2.109,44.083-8.538.925-1.02,1.431-1.642,1.431-1.642s-.351.094-.963.23c-3.977.861-19.059,3.312-22.608-8.151-4.094-13.239-15.816-31.245-31.3-26.5s-18.835-6.9-30.267-15.685-29.213,7.429-29.213,7.429S65.618,223.4,81.562,226.012Z" transform="translate(-57.307 -176.332)" fill="#df6e00"/>
        <g id="Group_1006" data-name="Group 1006" transform="translate(31.832 27.48)">
          <path id="Path_4292" data-name="Path 4292" d="M141.661,230.4c3.028,5.265,6.161,10.707,13.269,13.689,9.7,4.062,19.6-.7,25.451-4.635.925-1.02,1.431-1.642,1.431-1.642s-.351.094-.963.23c-5.517,3.92-15.691,9.363-25.572,5.219-6.827-2.862-9.884-8.173-12.84-13.307-3.417-5.938-6.947-12.076-16.243-14.2a35.212,35.212,0,0,0-11.272-.349c-5.074.42-9.868.819-15.117-2.824l-.513.738c5.515,3.828,10.465,3.416,15.7,2.985a34.318,34.318,0,0,1,11,.328C134.906,218.663,138.191,224.364,141.661,230.4Z" transform="translate(-99.293 -212.578)" fill="#df6e00"/>
        </g>
      </g>
      <g id="Group_1009" data-name="Group 1009" transform="translate(321.27 22.835)">
        <path id="Path_4293" data-name="Path 4293" d="M481.142,127.222c1.71,31.51,26.71,29.942,28.687,29.769l.126-.012a24.38,24.38,0,0,1-1.521-1.93c-12.523-17.345,1.742-41.076,1.5-58.53-.244-18.1-16.377-22.074-16.377-22.074C505.431,84.432,479.365,94.415,481.142,127.222Z" transform="translate(-481.055 -74.445)" fill="#df6e00"/>
        <g id="Group_1008" data-name="Group 1008" transform="translate(11.216 17.022)">
          <path id="Path_4294" data-name="Path 4294" d="M499.349,148.524c3.393,6.053,8.749,10.642,14.057,13.9l.126-.012a24.384,24.384,0,0,1-1.521-1.93,37.412,37.412,0,0,1-11.892-12.385c-3.754-6.7-4.387-14.1-1.9-22,7.911-25.05,3.422-29.041,3.228-29.2l-.276.346-.288.335a.054.054,0,0,0,.012.01c.234.249,3.917,4.7-3.516,28.243C494.812,133.974,495.474,141.609,499.349,148.524Z" transform="translate(-495.849 -96.896)" fill="#efb57c"/>
        </g>
      </g>
      <g id="Group_1011" data-name="Group 1011" transform="translate(333.086 7.713)">
        <path id="Path_4295" data-name="Path 4295" d="M535.281,153.885c-9.935,12.247-20.457,21.573-28.026,19.922a7.918,7.918,0,0,1-1.3-.4c-4.6-1.884-7.911-8.419-9.019-21.676-2.948-35.281,16.478-46.638,33.17-62.33,16.49-15.486,10.9-34.418,10.552-34.9C581.046,94.137,552.121,133.115,535.281,153.885Z" transform="translate(-496.64 -54.499)" fill="#df6e00"/>
        <g id="Group_1010" data-name="Group 1010" transform="translate(9.318 48.978)">
          <path id="Path_4296" data-name="Path 4296" d="M510.227,189.43a7.918,7.918,0,0,1-1.3-.4c.6-7.2,2.424-21.315,7.9-30.254a131.741,131.741,0,0,1,9.24-12.6c6.475-8.148,13.167-16.581,16.308-27.072l1.26.373c-3.22,10.733-9.992,19.261-16.545,27.511a128.163,128.163,0,0,0-9.146,12.472C512.6,168.174,510.8,182.417,510.227,189.43Z" transform="translate(-508.93 -119.1)" fill="#efb57c"/>
        </g>
      </g>
      <path id="Rectangle_349" data-name="Rectangle 349" d="M19.514,0H271.2a19.516,19.516,0,0,1,19.516,19.516V160.955A19.515,19.515,0,0,1,271.2,180.47H19.515A19.515,19.515,0,0,1,0,160.955V19.514A19.514,19.514,0,0,1,19.514,0Z" transform="translate(66.158 72.558)" fill="url(#linear-gradient-10)"/>
      <g id="Group_1012" data-name="Group 1012" transform="translate(283.233 86.867)">
        <path id="Path_4297" data-name="Path 4297" d="M454.823,206.779a23.939,23.939,0,1,1,23.938-23.938A23.965,23.965,0,0,1,454.823,206.779Zm0-44.353a20.415,20.415,0,1,0,20.415,20.415A20.438,20.438,0,0,0,454.823,162.426Z" transform="translate(-430.885 -158.902)" fill="#fff"/>
      </g>
      <g id="Group_1013" data-name="Group 1013" transform="translate(89.423 194.699)">
        <path id="Path_4298" data-name="Path 4298" d="M184.542,318.182a9.756,9.756,0,0,1-3.659-.676,9.278,9.278,0,0,1-2.927-1.829,8.759,8.759,0,0,1-1.97-2.7,7.967,7.967,0,0,1,0-6.67,8.377,8.377,0,0,1,1.97-2.7,9.622,9.622,0,0,1,2.927-1.8,10.177,10.177,0,0,1,7.288,0,9.539,9.539,0,0,1,2.955,1.8,8.377,8.377,0,0,1,1.97,2.7,7.968,7.968,0,0,1,0,6.67,8.759,8.759,0,0,1-1.97,2.7,9.2,9.2,0,0,1-2.955,1.829A9.822,9.822,0,0,1,184.542,318.182Zm-6.136,20.825,15.872-18.517,14.634-19.249,3.434,3.039-15.366,18.18-15.141,19.586Zm6.136-24.6a3.117,3.117,0,0,0,1.547-.393,4.741,4.741,0,0,0,1.266-1.041,4.684,4.684,0,0,0,.872-1.52,5.409,5.409,0,0,0,.309-1.829,4.962,4.962,0,0,0-1.181-3.348,3.6,3.6,0,0,0-2.814-1.379,3.118,3.118,0,0,0-1.548.394,4.78,4.78,0,0,0-2.139,2.533,5.177,5.177,0,0,0-.31,1.8A5.079,5.079,0,0,0,181.726,313,3.568,3.568,0,0,0,184.542,314.411Zm21.724,27.8a9.788,9.788,0,0,1-3.658-.674,9.614,9.614,0,0,1-2.926-1.8,8.45,8.45,0,0,1-1.97-2.673,8.032,8.032,0,0,1,0-6.7,8.8,8.8,0,0,1,1.97-2.7,9.349,9.349,0,0,1,2.926-1.829,9.912,9.912,0,0,1,10.272,1.829,8.227,8.227,0,0,1,1.97,2.7,8.068,8.068,0,0,1-1.97,9.371,9.955,9.955,0,0,1-2.955,1.8A9.786,9.786,0,0,1,206.266,342.215Zm0-3.77a3.09,3.09,0,0,0,1.547-.395,4.769,4.769,0,0,0,2.14-2.533,5.4,5.4,0,0,0-.028-3.685,5.469,5.469,0,0,0-.872-1.519,3.9,3.9,0,0,0-1.266-1.013,3.361,3.361,0,0,0-1.521-.366,3.123,3.123,0,0,0-1.547.394,4.758,4.758,0,0,0-1.266,1.041,4.65,4.65,0,0,0-.872,1.519,5.422,5.422,0,0,0-.31,1.829,4.969,4.969,0,0,0,1.182,3.35A3.592,3.592,0,0,0,206.266,338.445Z" transform="translate(-175.254 -301.129)" fill="#fff"/>
      </g>
      <rect id="Rectangle_350" data-name="Rectangle 350" width="154.209" height="11.033" transform="translate(83.171 95.943)" fill="#fff"/>
      <rect id="Rectangle_351" data-name="Rectangle 351" width="154.209" height="2.859" transform="translate(83.171 86.868)" fill="#fff"/>
      <rect id="Rectangle_352" data-name="Rectangle 352" width="78.871" height="11.033" transform="translate(83.171 113.081)" fill="#fff"/>
      <path id="Rectangle_353" data-name="Rectangle 353" d="M14.893,0h90.891a14.894,14.894,0,0,1,14.894,14.894V135.908A14.894,14.894,0,0,1,105.784,150.8H14.893A14.893,14.893,0,0,1,0,135.908V14.893A14.893,14.893,0,0,1,14.893,0Z" transform="translate(151.179 118.598)" fill="#ace0f3" opacity="0.95"/>
      <g id="Group_1014" data-name="Group 1014" transform="translate(228.762 216.752)">
        <path id="Path_4299" data-name="Path 4299" d="M372.338,356.814a13.3,13.3,0,1,1,13.3-13.3A13.314,13.314,0,0,1,372.338,356.814Zm0-24.025a10.725,10.725,0,1,0,10.724,10.725A10.737,10.737,0,0,0,372.338,332.789Z" transform="translate(-359.039 -330.216)" fill="#f1861e"/>
      </g>
      <g id="Group_1015" data-name="Group 1015" transform="translate(235.172 225.726)">
        <path id="Path_4300" data-name="Path 4300" d="M373.535,351.611l-6.042-6.042,1.82-1.82,4.222,4.222,5.918-5.919,1.82,1.821Z" transform="translate(-367.493 -342.053)" fill="#f1861e"/>
      </g>
      <g id="Group_1016" data-name="Group 1016" transform="translate(278.995 224.196)">
        <rect id="Rectangle_354" data-name="Rectangle 354" width="3.859" height="17.787" fill="#b0dce9"/>
        <rect id="Rectangle_355" data-name="Rectangle 355" width="1.93" height="17.787" transform="translate(5.705)" fill="#b0dce9"/>
        <rect id="Rectangle_356" data-name="Rectangle 356" width="3.524" height="17.787" transform="translate(9.481)" fill="#b0dce9"/>
        <rect id="Rectangle_357" data-name="Rectangle 357" width="2.115" height="17.787" transform="translate(14.907)" fill="#b0dce9"/>
        <rect id="Rectangle_358" data-name="Rectangle 358" width="0.983" height="17.786" transform="translate(18.501 0.066)" fill="#b0dce9"/>
        <rect id="Rectangle_359" data-name="Rectangle 359" width="3.373" height="17.787" transform="translate(20.916)" fill="#b0dce9"/>
        <rect id="Rectangle_360" data-name="Rectangle 360" width="2.556" height="17.787" transform="translate(25.656)" fill="#b0dce9"/>
        <rect id="Rectangle_361" data-name="Rectangle 361" width="1.276" height="17.787" transform="translate(29.434)" fill="#b0dce9"/>
        <rect id="Rectangle_362" data-name="Rectangle 362" width="3.625" height="17.787" transform="translate(32.16)" fill="#b0dce9"/>
        <rect id="Rectangle_363" data-name="Rectangle 363" width="2.705" height="17.787" transform="translate(36.698)" fill="#b0dce9"/>
        <rect id="Rectangle_364" data-name="Rectangle 364" width="1.352" height="17.787" transform="translate(40.571)" fill="#b0dce9"/>
        <rect id="Rectangle_365" data-name="Rectangle 365" width="1.863" height="17.787" transform="translate(43.001)" fill="#b0dce9"/>
        <rect id="Rectangle_366" data-name="Rectangle 366" width="5.922" height="17.789" transform="translate(46.192 0.083)" fill="#b0dce9"/>
      </g>
      <path id="Path_4301" data-name="Path 4301" d="M175.947,79.57v32.7s6.519,9.212,14.3,0h14.3s6.518,9.212,14.3,0h14.3s6.518,9.212,14.3,0h14.3s6.519,9.212,14.3,0h14.3s6.519,9.212,14.3,0h14.3s6.518,9.212,14.3,0h14.3s6.519,9.212,14.3,0h14.3s6.519,9.212,14.3,0h14.3s6.519,9.212,14.3,0V79.57Z" transform="translate(-85.998 -52.849)" fill="#f1861e"/>
      <g id="Group_1017" data-name="Group 1017" transform="translate(104.251 26.721)">
        <path id="Path_4302" data-name="Path 4302" d="M194.812,112.267s6.519,9.212,14.3,0V79.57h-14.3Z" transform="translate(-194.812 -79.57)" fill="#ace0f3"/>
        <path id="Path_4303" data-name="Path 4303" d="M232.539,112.267s6.519,9.212,14.3,0V79.57h-14.3Z" transform="translate(-203.936 -79.57)" fill="#ace0f3"/>
        <path id="Path_4304" data-name="Path 4304" d="M270.269,112.267s6.519,9.212,14.3,0V79.57h-14.3Z" transform="translate(-213.06 -79.57)" fill="#ace0f3"/>
        <path id="Path_4305" data-name="Path 4305" d="M308,112.267s6.519,9.212,14.3,0V79.57H308Z" transform="translate(-222.184 -79.57)" fill="#ace0f3"/>
        <path id="Path_4306" data-name="Path 4306" d="M345.727,112.267s6.516,9.212,14.3,0V79.57h-14.3Z" transform="translate(-231.309 -79.57)" fill="#ace0f3"/>
        <path id="Path_4307" data-name="Path 4307" d="M383.454,112.267s6.519,9.212,14.3,0V79.57h-14.3Z" transform="translate(-240.432 -79.57)" fill="#ace0f3"/>
        <path id="Path_4308" data-name="Path 4308" d="M421.184,112.267s6.518,9.212,14.3,0V79.57h-14.3Z" transform="translate(-249.557 -79.57)" fill="#ace0f3"/>
        <path id="Path_4309" data-name="Path 4309" d="M458.91,79.57v32.7s6.519,9.212,14.3,0V79.57Z" transform="translate(-258.68 -79.57)" fill="#ace0f3"/>
      </g>
      <path id="Path_4310" data-name="Path 4310" d="M348.876,230.338l-2.014,8.875H295.221v2.014l7.429,34.5v1.007h4.209l1.069,4.469h1.539a3.774,3.774,0,1,0,2.6,0h21.223a3.774,3.774,0,1,0,2.6,0h1.677v-1.592H309.186l-.689-2.876h32.037v-1.007l6.083-28.237,3.531-15.558H371.8v-1.592Zm-35.925,54.4a2.182,2.182,0,1,1-2.181-2.181A2.185,2.185,0,0,1,312.951,284.738Zm23.824,0a2.182,2.182,0,1,1-2.183-2.181A2.185,2.185,0,0,1,336.774,284.738ZM314.84,253.062h13.5l-.705,9.82h-12.1Zm-1.068,9.82H301.7l-2.116-9.82h13.487Zm14.718-11.835h-13.8l-.7-9.82h15.2Zm2.478-9.82h15.188l-2.116,9.82H330.263ZM327.495,264.9l-.705,9.82h-10.4l-.7-9.82Zm1.774,0h11.788l-2.115,9.82H328.564Zm12.219-2.014H329.413l.705-9.82h13.487l-2.073,9.625Zm-29.27-21.655.7,9.82H299.145l-2.116-9.82ZM302.129,264.9h11.786l.706,9.82H304.242Z" transform="translate(-114.843 -89.31)" fill="#f1861e"/>
      <rect id="Rectangle_367" data-name="Rectangle 367" width="12.1" height="1.539" transform="translate(205.467 252.235)" fill="#f1861e"/>
      <rect id="Rectangle_368" data-name="Rectangle 368" width="12.1" height="1.539" transform="translate(205.467 127.211)" fill="#f1861e"/>
      <rect id="Rectangle_369" data-name="Rectangle 369" width="29.908" height="3.995" transform="translate(169.03 223.258)" fill="#f1861e"/>
      <rect id="Rectangle_370" data-name="Rectangle 370" width="44.277" height="3.996" transform="translate(169.03 232.848)" fill="#f1861e"/>
      <rect id="Rectangle_371" data-name="Rectangle 371" width="46.41" height="15.257" transform="translate(284.7 158.428)" fill="#b0dce9"/>
      <rect id="Rectangle_372" data-name="Rectangle 372" width="46.41" height="9.065" transform="translate(284.7 177.891)" fill="#afdce9"/>
      <g id="Group_1051" data-name="Group 1051" transform="translate(232.273 151.522)">
        <g id="Group_1020" data-name="Group 1020" transform="translate(70.928 74.826)">
          <g id="Group_1019" data-name="Group 1019">
            <g id="Group_1018" data-name="Group 1018">
              <path id="Path_4311" data-name="Path 4311" d="M459.757,343.591a5.307,5.307,0,0,0-.685,1.81,8.662,8.662,0,0,1-.835,2.138,20.347,20.347,0,0,0-1.015,3.564,16.708,16.708,0,0,1,.479,2.384c-.082.516-.378,1.538.086,1.607s.988-.77.988-.77a.684.684,0,0,0,.348.657,1.154,1.154,0,0,0,1.168.042s.281.523.634.594a1.436,1.436,0,0,0,1.159-.158,1.412,1.412,0,0,0,.881.284,1.157,1.157,0,0,0,.977-.608s.87.176,1.124-.231a3.859,3.859,0,0,0,.312-1.208,14.033,14.033,0,0,0-1.1-6.09,5.4,5.4,0,0,1,.288-4.732Z" transform="translate(-457.222 -342.873)" fill="#eea886"/>
            </g>
          </g>
        </g>
        <g id="Group_1022" data-name="Group 1022" transform="translate(72.358 81.567)">
          <g id="Group_1021" data-name="Group 1021">
            <path id="Path_4312" data-name="Path 4312" d="M459.11,356.162s-.077-2.985.707-3.621.876.443.876.443-.107-1.064.751-1.208.894,1.121.894,1.121a.83.83,0,0,1,1.042-.653c.9.168.686,1.217.686,1.217s.861-1.027,1.421-.042a4.4,4.4,0,0,1,.035,3.634s-.267.451-1.124.231a1.186,1.186,0,0,1-1.858.324s-1.315.723-1.793-.436A1.088,1.088,0,0,1,459.11,356.162Z" transform="translate(-459.108 -351.764)" fill="#db9c7c"/>
          </g>
        </g>
        <path id="Path_4313" data-name="Path 4313" d="M447.086,284.886s5.11,17.03,6.837,23.311c.54,1.971,1.851,20.784,2.082,21.542s6.713,1.8,6.713,1.8-.785-23.536-.858-24.819-7.152-27.567-9.209-28.5c-1.543-.7-2.357-.122-4.3,1.322C445.623,281.555,447.086,284.886,447.086,284.886Z" transform="translate(-383.748 -252.337)" fill="#538ac8"/>
        <g id="Group_1024" data-name="Group 1024" transform="translate(67.484 148.405)">
          <g id="Group_1023" data-name="Group 1023">
            <path id="Path_4314" data-name="Path 4314" d="M452.68,440.339s.466,3.232.524,3.718,5.181-.287,5.181-.287l.415-3.848S453.32,439.883,452.68,440.339Z" transform="translate(-452.68 -439.922)" fill="#424773"/>
          </g>
        </g>
        <g id="Group_1026" data-name="Group 1026" transform="translate(59.064 151.91)">
          <g id="Group_1025" data-name="Group 1025">
            <path id="Path_4315" data-name="Path 4315" d="M450.463,444.764a13.84,13.84,0,0,1-3.193,2.8c-1.569.849-4.038,1.186-4.966,2.064-.669.634-2.44,3.366,4.08,3.311s9.664.386,10.361-.662-1.01-7.729-1.01-7.729A13.828,13.828,0,0,1,450.463,444.764Z" transform="translate(-441.574 -444.545)" fill="#292c47"/>
          </g>
        </g>
        <g id="Group_1028" data-name="Group 1028" transform="translate(30.777 148.405)">
          <g id="Group_1027" data-name="Group 1027">
            <path id="Path_4316" data-name="Path 4316" d="M404.264,440.339s.468,3.232.525,3.718,5.181-.287,5.181-.287l.414-3.848S404.9,439.883,404.264,440.339Z" transform="translate(-404.264 -439.922)" fill="#424773"/>
          </g>
        </g>
        <g id="Group_1030" data-name="Group 1030" transform="translate(19.345 151.91)">
          <g id="Group_1029" data-name="Group 1029">
            <path id="Path_4317" data-name="Path 4317" d="M401.088,444.764a13.861,13.861,0,0,1-3.194,2.8c-1.568.849-7.347,1.547-8.275,2.426-.671.635-1.785,3.188,7.389,2.949,6.518-.169,9.664.386,10.363-.662s-1.011-7.729-1.011-7.729S404.906,445.138,401.088,444.764Z" transform="translate(-389.186 -444.545)" fill="#292c47"/>
          </g>
        </g>
        <g id="Group_1032" data-name="Group 1032" transform="translate(51.488 65.753)">
          <g id="Group_1031" data-name="Group 1031">
            <path id="Path_4318" data-name="Path 4318" d="M443.336,330.906s4.814,7.647,4.453,14.56,1.746,14.463,2.469,21.683c.807,8.051,4.106,27.111,4.225,31.417s-.513,18.059-.513,18.059l-6.6.151s-5.547-33.32-6.984-36.722-8.559-27.638-8.8-30.358S443.336,330.906,443.336,330.906Z" transform="translate(-431.581 -330.906)" fill="#161616"/>
          </g>
        </g>
        <g id="Group_1034" data-name="Group 1034" transform="translate(29.885 64.436)">
          <g id="Group_1033" data-name="Group 1033">
            <path id="Path_4319" data-name="Path 4319" d="M411.1,331.522S407.477,350.469,407,354.7s-.8,20.477-1.037,23.121-2.237,34.526-2.873,38.534h8.443s6.481-23.233,6.481-34.228,5.007-23.9,8.241-31.151,10.629-7.424,12.616-20.881C438.868,330.095,413.794,327.254,411.1,331.522Z" transform="translate(-403.088 -329.168)" fill="#161616"/>
          </g>
        </g>
        <g id="Group_1036" data-name="Group 1036" transform="translate(43.702 0.862)">
          <g id="Group_1035" data-name="Group 1035">
            <path id="Path_4320" data-name="Path 4320" d="M432.819,245.908s-6.46-2.414-9.44,2.5-2.692,14.764.564,15.975,8.149.577,9.817-2.5,3.173-7.526,3.1-10.5S434.516,246.766,432.819,245.908Z" transform="translate(-421.312 -245.316)" fill="#eea886"/>
          </g>
        </g>
        <g id="Group_1038" data-name="Group 1038" transform="translate(46.844 14.027)">
          <g id="Group_1037" data-name="Group 1037">
            <path id="Path_4321" data-name="Path 4321" d="M425.648,268.813a5.589,5.589,0,0,1-.176,2.6c-.444.859,8.37.881,8.37.881a58.071,58.071,0,0,1,2.073-8.623C437.271,259.725,425.648,268.813,425.648,268.813Z" transform="translate(-425.456 -262.68)" fill="#eea886"/>
          </g>
        </g>
        <g id="Group_1040" data-name="Group 1040" transform="translate(43.98 0.117)">
          <g id="Group_1039" data-name="Group 1039">
            <path id="Path_4322" data-name="Path 4322" d="M435,259.238s-.61,1-3.092.615-5.513-3.694-6.551-4.058-1.046-.971-1.046-.971l-.651.948-1.1.071s1-2.956-.51-4.161,1.573-9.567,9.537-6.783c0,0,6.117,1.687,5.895,5.165S436.371,257.506,435,259.238Z" transform="translate(-421.679 -244.334)" fill="#323657"/>
          </g>
        </g>
        <g id="Group_1042" data-name="Group 1042" transform="translate(46.337 20.244)">
          <g id="Group_1041" data-name="Group 1041">
            <path id="Path_4323" data-name="Path 4323" d="M424.787,273.3s.027-1.641.772-1.8,8.215-.876,9.129-.516v1.911S432.927,273.977,424.787,273.3Z" transform="translate(-424.787 -270.881)" fill="#e2d2ca"/>
          </g>
        </g>
        <g id="Group_1044" data-name="Group 1044" transform="translate(46.583 8.074)">
          <g id="Group_1043" data-name="Group 1043">
            <path id="Path_4324" data-name="Path 4324" d="M425.307,256.1c.14-.583,1.624-2.252,2.192-.466s-.858,4.187-1.654,3.982S424.954,257.576,425.307,256.1Z" transform="translate(-425.112 -254.828)" fill="#eea886"/>
          </g>
        </g>
        <g id="Group_1046" data-name="Group 1046" transform="translate(16.657 42.057)">
          <g id="Group_1045" data-name="Group 1045">
            <path id="Path_4325" data-name="Path 4325" d="M385.672,299.653a.019.019,0,0,1,.011,0C385.632,299.675,385.624,299.677,385.672,299.653Z" transform="translate(-385.64 -299.651)" fill="#323657"/>
          </g>
        </g>
        <g id="Group_1048" data-name="Group 1048" transform="translate(57.05 2.034)">
          <g id="Group_1047" data-name="Group 1047">
            <path id="Path_4326" data-name="Path 4326" d="M438.917,246.862s8.237.644.253,12.987Z" transform="translate(-438.917 -246.862)" fill="#323657"/>
          </g>
        </g>
        <path id="Path_4327" data-name="Path 4327" d="M364.579,248.72a1.779,1.779,0,0,1,1.149-1.068,2.858,2.858,0,0,1,1.321-.849.862.862,0,0,1,.055-.112c-.584-.628-2.283-1.8-2.381-2.024-.121-.27-.09-.3.24-.48.274-.15,3.045,1.654,3.97,2.265.227.143.411.277.447.308a7.093,7.093,0,0,1,1.21.832,1.719,1.719,0,0,1,.14.16c.458.587,1.539,5.283,1.539,5.283l-1.93.866-1.86,1.577s-2.17-1.8-2.726-2.36a5.573,5.573,0,0,1-.967-1.5,2.865,2.865,0,0,0-.183-.271c-.252-.341-.635-.8-.635-.8a3.046,3.046,0,0,1-.3-.926C363.708,249.065,364.579,248.72,364.579,248.72Z" transform="translate(-363.67 -244.179)" fill="#efaa88"/>
        <g id="Group_1050" data-name="Group 1050" transform="translate(3.23 8.072)">
          <g id="Group_1049" data-name="Group 1049">
            <path id="Path_4328" data-name="Path 4328" d="M398.681,271.9c5.123-.676,12.357-2.487,12.357-2.487l9.9-.4s9.086,2,12.665,3.618c.339.154.34,8.106,1.272,10.19l-2.967,6.259s-1.714,12.4-2.069,17.913c-.163,2.531,3.533,23.736,3.533,23.736a68.188,68.188,0,0,1-10.718,1.911c-6.757.745-23.64-.269-23.746-1.067s3.27-29.716,3.419-31.214c.229-2.3-.794-14.512-.794-14.512-1.559-1.211-15.257-7.568-18.994-10.883-1-.886-5.221-5-6.421-6.416-4.248-5.024-7.731-9.335-8.156-10.263-.481-.528,4.616-3.3,5.08-3.454.4-.136,6.147,7.307,8.358,9.7a62.107,62.107,0,0,0,5.083,4.048S395.477,272.083,398.681,271.9Z" transform="translate(-367.931 -254.827)" fill="#538ac8"/>
          </g>
        </g>
      </g>
      <g id="Group_1126" data-name="Group 1126" transform="translate(8.388 151.522)">
        <g id="Group_1052" data-name="Group 1052" transform="translate(97.526 16.928)">
          <path id="Path_4329" data-name="Path 4329" d="M197.006,270.786s1.193-2.227,1.386-2.561a6.082,6.082,0,0,1,2.318-1.256,7.065,7.065,0,0,1,3.1-.411,1.088,1.088,0,0,1,.594.685,1.817,1.817,0,0,1,0,1.064,1.36,1.36,0,0,1,.279,1.2,1.017,1.017,0,0,1,.168,1.195s.5.52.2,1.01a8.458,8.458,0,0,0-1.275.757,17.672,17.672,0,0,1-4.516,1.645S197.093,273.922,197.006,270.786Z" transform="translate(-197.006 -266.507)" fill="#eea886"/>
        </g>
        <g id="Group_1053" data-name="Group 1053" transform="translate(100.659 20.298)">
          <path id="Path_4330" data-name="Path 4330" d="M201.476,270.952a6.164,6.164,0,0,1-.327,1.6c-.211.339,2.434,1.428,2.434,1.428S203.007,271.132,201.476,270.952Z" transform="translate(-201.137 -270.952)" fill="#cf8c6c"/>
        </g>
        <g id="Group_1055" data-name="Group 1055" transform="translate(94.271 22.323)">
          <g id="Group_1054" data-name="Group 1054">
            <path id="Path_4331" data-name="Path 4331" d="M229.665,304.1l-31.6,4.111-5.356-28.935,33.033-5.652Z" transform="translate(-192.713 -273.623)" fill="#b0ddea"/>
          </g>
        </g>
        <g id="Group_1057" data-name="Group 1057" transform="translate(100.723 15.037)">
          <g id="Group_1056" data-name="Group 1056">
            <path id="Path_4332" data-name="Path 4332" d="M215.728,274.138c-.1-3.032-1.184-6.668-3.541-8.606a7.338,7.338,0,0,0-6.057-1.385c-5.132.829-5.477,6.187-4.43,9.964Zm-13.5-.707c-.879-4.02-.093-7.948,4.011-8.61a6.685,6.685,0,0,1,5.514,1.238c2.051,1.684,3.028,4.8,3.257,7.4Z" transform="translate(-201.222 -264.013)" fill="#23344a"/>
          </g>
        </g>
        <g id="Group_1059" data-name="Group 1059" transform="translate(102.424 15.037)">
          <g id="Group_1058" data-name="Group 1058">
            <path id="Path_4333" data-name="Path 4333" d="M217.55,274.138c-.105-3.032-1.465-6.668-3.822-8.606a7.338,7.338,0,0,0-6.056-1.385c-5.133.829-4.547,6.187-3.5,9.964Zm-12.849-.707c-.879-4.02-1.025-7.948,3.08-8.61a6.691,6.691,0,0,1,5.515,1.238,11.606,11.606,0,0,1,3.721,7.4Z" transform="translate(-203.465 -264.013)" fill="#23344a"/>
          </g>
        </g>
        <g id="Group_1061" data-name="Group 1061" transform="translate(89.47 23.711)">
          <g id="Group_1060" data-name="Group 1060">
            <path id="Path_4334" data-name="Path 4334" d="M223.26,309.177l-36.881-2.839,2.965-29.878,34.268-1.007Z" transform="translate(-186.38 -275.453)" fill="#b0ddea"/>
          </g>
        </g>
        <g id="Group_1062" data-name="Group 1062" transform="translate(16.221 33.519)">
          <path id="Path_4335" data-name="Path 4335" d="M96.887,295.772s.3-2.509.337-2.892a6.13,6.13,0,0,0-1.176-2.361,7.074,7.074,0,0,0-2.3-2.115,1.086,1.086,0,0,0-.881.218,1.944,1.944,0,0,0-.636.848,1.319,1.319,0,0,0-.95.8,1.069,1.069,0,0,0-.785.919s-.7.145-.73.719a8.393,8.393,0,0,1,.61,1.352,17.554,17.554,0,0,0,2.749,3.94S95.013,298.288,96.887,295.772Z" transform="translate(-89.766 -288.39)" fill="#eea886"/>
        </g>
        <g id="Group_1064" data-name="Group 1064" transform="translate(14.072 35.525)">
          <g id="Group_1063" data-name="Group 1063">
            <path id="Path_4336" data-name="Path 4336" d="M100.272,299.874c.3-2.317.008-5.3-1.549-7.112a5.124,5.124,0,0,0-3.958-1.723,7,7,0,0,0-5.544,2.11c-1.975,2.145-2.51,5.739-2.212,8.607ZM87.6,301.014c-.121-2.5.381-5.557,2.1-7.425a6.383,6.383,0,0,1,5.051-1.9,4.514,4.514,0,0,1,3.475,1.494c1.311,1.524,1.632,4.129,1.456,6.116Z" transform="translate(-86.932 -291.036)" fill="#23344a"/>
          </g>
        </g>
        <g id="Group_1066" data-name="Group 1066" transform="translate(0 47.305)">
          <g id="Group_1065" data-name="Group 1065">
            <path id="Path_4337" data-name="Path 4337" d="M68.371,337.708l2.419-31.134,5.4,30.7-3.735-.653Z" transform="translate(-68.371 -306.573)" fill="#3f74a0"/>
          </g>
        </g>
        <g id="Group_1068" data-name="Group 1068" transform="translate(2.334 42.483)">
          <g id="Group_1067" data-name="Group 1067">
            <path id="Path_4338" data-name="Path 4338" d="M76.936,335.736l32.08-5.64-5.249-29.883L71.45,304.806Z" transform="translate(-71.45 -300.213)" fill="#5b83c2"/>
          </g>
        </g>
        <g id="Group_1070" data-name="Group 1070" transform="translate(41.509 50.88)">
          <g id="Group_1069" data-name="Group 1069">
            <path id="Path_4339" data-name="Path 4339" d="M123.757,311.463a7.046,7.046,0,0,1-.636,4.9l.575.04a7.342,7.342,0,0,0,.569-5.11Z" transform="translate(-123.121 -311.289)" fill="#23344a"/>
          </g>
        </g>
        <g id="Group_1072" data-name="Group 1072" transform="translate(18.508 53.821)">
          <g id="Group_1071" data-name="Group 1071">
            <path id="Path_4340" data-name="Path 4340" d="M92.782,340.546l26.29,3.421,4.473-24.1-27.486-4.7Z" transform="translate(-92.782 -315.168)" fill="#df6e00"/>
          </g>
        </g>
        <g id="Group_1074" data-name="Group 1074" transform="translate(13.152 53.84)">
          <g id="Group_1073" data-name="Group 1073">
            <path id="Path_4341" data-name="Path 4341" d="M85.719,339.792l8.615-24.6-3.26,25.2-2.791-1.037Z" transform="translate(-85.719 -315.193)" fill="#df6e00"/>
          </g>
        </g>
        <g id="Group_1076" data-name="Group 1076" transform="translate(42.738 49.7)">
          <g id="Group_1075" data-name="Group 1075">
            <path id="Path_4342" data-name="Path 4342" d="M124.742,310.4a8.4,8.4,0,0,1,.311,5.093l.538.2c.177-.742.8-3.819-.576-5.957Z" transform="translate(-124.742 -309.732)" fill="#23344a"/>
          </g>
        </g>
        <g id="Group_1078" data-name="Group 1078" transform="translate(15.716 55.546)">
          <g id="Group_1077" data-name="Group 1077">
            <path id="Path_4343" data-name="Path 4343" d="M89.1,344.021l5.847-26.577,1,27.355-3.19-1.22Z" transform="translate(-89.101 -317.443)" fill="#df6e00"/>
          </g>
        </g>
        <g id="Group_1079" data-name="Group 1079" transform="translate(19.58 39.65)">
          <path id="Path_4344" data-name="Path 4344" d="M94.2,299.158s1.969,1.748,2.982,1.778,1.531-2.752,1.531-2.752l-.875-1.707Z" transform="translate(-94.196 -296.477)" fill="#eea886"/>
        </g>
        <g id="Group_1080" data-name="Group 1080" transform="translate(95.915 20.954)">
          <path id="Path_4345" data-name="Path 4345" d="M195.154,273.653a8.723,8.723,0,0,0,1.417-1.735c.435-.806,2.4,3.44,2.4,3.44a8.614,8.614,0,0,0-3.519.857C194.373,276.973,195.154,273.653,195.154,273.653Z" transform="translate(-194.88 -271.817)" fill="#eea886"/>
        </g>
        <g id="Group_1081" data-name="Group 1081" transform="translate(100.74 16.979)">
          <path id="Path_4346" data-name="Path 4346" d="M204.526,266.68s-2.909,1.207-2.772,1.7a.8.8,0,0,0,.484.589l-.971,1.04s-.255,1.052.966,1.022c0,0-.34.957.832.787,0,0,.059.733.616.751a10.461,10.461,0,0,0,2.4-.836s.307-.356-.149-1.01a1.084,1.084,0,0,0-.119-1.224,1.194,1.194,0,0,0-.322-1.183s.4-1.312-.654-1.741C204.833,266.574,204.647,266.629,204.526,266.68Z" transform="translate(-201.245 -266.574)" fill="#db9c7c"/>
        </g>
        <g id="Group_1082" data-name="Group 1082" transform="translate(98.675 18.597)">
          <path id="Path_4347" data-name="Path 4347" d="M198.846,268.709a10.7,10.7,0,0,1,3.287.785c.256.139.48.319.448.609s-.492.613-1.428.585a7.9,7.9,0,0,0-2.16.366S198.039,270.745,198.846,268.709Z" transform="translate(-198.522 -268.709)" fill="#eea886"/>
        </g>
        <g id="Group_1083" data-name="Group 1083" transform="translate(17.556 38.002)">
          <path id="Path_4348" data-name="Path 4348" d="M94.994,294.465a6.231,6.231,0,0,0-.655,1.5c-.021.4-2.812-.229-2.812-.229S93.636,293.731,94.994,294.465Z" transform="translate(-91.527 -294.303)" fill="#cf8c6c"/>
        </g>
        <g id="Group_1084" data-name="Group 1084" transform="translate(16.22 33.5)">
          <path id="Path_4349" data-name="Path 4349" d="M93.94,288.661s1.687,2.658,1.292,2.983a.8.8,0,0,1-.736.2l.2,1.409s-.395,1.007-1.377.282c0,0-.271.979-1.136.165,0,0-.468.566-.934.26a10.5,10.5,0,0,1-1.481-2.061s-.048-.468.7-.741a1.088,1.088,0,0,1,.8-.935,1.191,1.191,0,0,1,.943-.782s.429-1.3,1.537-1.049C93.748,288.4,93.87,288.548,93.94,288.661Z" transform="translate(-89.765 -288.365)" fill="#db9c7c"/>
        </g>
        <g id="Group_1085" data-name="Group 1085" transform="translate(19.734 36.66)">
          <path id="Path_4350" data-name="Path 4350" d="M98.3,293.793a10.685,10.685,0,0,0-3.143-1.246c-.288-.035-.575-.016-.716.24s.051.784.832,1.3a7.884,7.884,0,0,1,1.557,1.541S97.791,295.921,98.3,293.793Z" transform="translate(-94.4 -292.533)" fill="#eea886"/>
        </g>
        <g id="Group_1087" data-name="Group 1087" transform="translate(47.165 146.966)">
          <g id="Group_1086" data-name="Group 1086">
            <path id="Path_4351" data-name="Path 4351" d="M141.579,445.189c-1.5.451-1.956,3.01-3.236,3.763s-7.525,1.28-7.751-.678,2.62-3.71,3.9-4.689a24.342,24.342,0,0,0,4.739-5.47s.518.815,2.047.565,1.785-.657,1.785-.657a8.81,8.81,0,0,0,.624,3.177A3.141,3.141,0,0,1,141.579,445.189Z" transform="translate(-130.58 -438.024)" fill="#161616"/>
          </g>
        </g>
        <g id="Group_1089" data-name="Group 1089" transform="translate(58.641 146.881)">
          <g id="Group_1088" data-name="Group 1088">
            <path id="Path_4352" data-name="Path 4352" d="M155.445,445.513c-1.161,1.058-1.381,2.745-2.661,3.5a6.7,6.7,0,0,1-1.955.588c-1.563.281-3.545.34-4.515-.227a1.066,1.066,0,0,1-.584-.809c-.226-1.955,2.674-4.149,3.954-5.127a10.561,10.561,0,0,0,2.251-3.287c.406-.8.745-1.562.971-2.055h0a.862.862,0,0,0,.263.276,2.145,2.145,0,0,0,1.641.235,3.79,3.79,0,0,0,1.836-.644l.019-.018.019-.018.005-.007,0,0h0c.252,1.223.651,2.472.8,3.059C158.024,443,156.544,444.512,155.445,445.513Z" transform="translate(-145.718 -437.912)" fill="#161616"/>
          </g>
        </g>
        <g id="Group_1091" data-name="Group 1091" transform="translate(47.037)">
          <g id="Group_1090" data-name="Group 1090">
            <path id="Path_4353" data-name="Path 4353" d="M140.7,244.2a6.529,6.529,0,0,1,6.648,4.208c1.761,4.72,3.419,6.265,3.626,8.745.84,10.028,5.523,7.761,4.206,13.542s-2.229,6.655-2.229,6.655l-11.2-2.2-11.343.036s4.438-2.216,3.45-6.936-3.45-12.456-2.059-17.724S137.779,244.6,140.7,244.2Z" transform="translate(-130.412 -244.18)" fill="#223247"/>
          </g>
        </g>
        <g id="Group_1093" data-name="Group 1093" transform="translate(21.59 55.416)">
          <g id="Group_1092" data-name="Group 1092">
            <path id="Path_4354" data-name="Path 4354" d="M97.821,344.756l28.367-.994.52-26.491H96.848Z" transform="translate(-96.848 -317.272)" fill="#faa146"/>
          </g>
        </g>
        <g id="Group_1095" data-name="Group 1095" transform="translate(127.305 22.323)">
          <g id="Group_1094" data-name="Group 1094">
            <path id="Path_4355" data-name="Path 4355" d="M247.641,301.981l-11.358-28.358L240.2,304.1l3.309-1.938Z" transform="translate(-236.283 -273.623)" fill="#b0ddea"/>
          </g>
        </g>
        <g id="Group_1097" data-name="Group 1097" transform="translate(126.351 23.711)">
          <g id="Group_1096" data-name="Group 1096">
            <path id="Path_4356" data-name="Path 4356" d="M243.252,308.243l-7.875-32.79-.352,33.724,3.833-1.467Z" transform="translate(-235.024 -275.453)" fill="#538ac8"/>
          </g>
        </g>
        <g id="Group_1099" data-name="Group 1099" transform="translate(41.467 52.988)">
          <g id="Group_1098" data-name="Group 1098">
            <path id="Path_4357" data-name="Path 4357" d="M130.852,328.4s-4.118,14.354-4.836,18.018-2.73,21.405-2.945,24.422,6.724,17.163,7.1,18.183c1.467,3.95,7.454,18.272,7.454,18.272s3.869,2.3,3.436-1.067c-1.315-10.225-1.933-12.754-2.854-18.062-2.017-11.621-6.182-13.147-5.545-14.842,6.446-17.14,7.744-28.77,8.606-29.775s.98.513,1.484,2.74-.2,17.555.7,23.471c.493,3.221,1.6,10.441,1.962,14.608s2.24,23.448,2.24,23.448.247.719,3.121-.872c.477-.265,2.756-17.042,2.828-22s-2.119-5.664-.362-15.26c3.768-20.567,3.246-24.11-1.147-38.892C141.347,294.62,130.852,328.4,130.852,328.4Z" transform="translate(-123.066 -314.069)" fill="#eea886"/>
          </g>
        </g>
        <g id="Group_1101" data-name="Group 1101" transform="translate(20.156 21.95)">
          <g id="Group_1100" data-name="Group 1100">
            <path id="Path_4358" data-name="Path 4358" d="M174.3,276.465c-.171-.177-10.622,7.826-11.763,8.485-2.242,1.3-4.682,1.23-7.218,1.385-2.842.174-6.071-.128-8.861.433-1.447.29-1.617.666-2.371,2.206-2.05,4.187-2.715,9.391-2.987,14-.284,4.8,1.558,8.135,3.492,12.371.657,1.438,1.585,2.923.309,4.237-1.147,1.184-3.4,1.424-4.9,1.619-3.7.484-9.372.781-12.935-.689-4.359-1.8-3.579-7.287-4.046-11.118a68.826,68.826,0,0,0-2.263-8.893,14.965,14.965,0,0,1-.644-6.093c-1.359,3.86-2.507,10.46-6.166,12.911-2.833,1.9-5.363-.648-7.4-2.42q-5.793-5.039-11.587-10.082l2.469-2.28a8.006,8.006,0,0,1,.592-.563c.721-.578.639-.789,1.384-.28.5.34,1.836,1.579,2.26,1.974,1.4,1.3,2.627,2.092,4.026,3.394,1.217,1.131,3.3,3.757,5.168,2.84,1.436-.706,1.829-3.628,2.321-4.931,1.372-3.623,2.753-7.268,4.387-10.782,1.749-3.76,5.62-5.757,9.375-7.253,3.25-1.3,7.6-1.038,10.9-.2,2.312.589,3.14.624,5.443,1.264,2.2.612,4.26,1.4,6.491,1.856a41.536,41.536,0,0,0,7.91.758,6.6,6.6,0,0,0,4.705-1.544c2.359-1.637,5.813-4.468,8.405-5.778C172.458,272.449,173.027,275.161,174.3,276.465Z" transform="translate(-94.957 -273.131)" fill="#f1861e"/>
          </g>
        </g>
        <g id="Group_1103" data-name="Group 1103" transform="translate(53.467 19.198)">
          <g id="Group_1102" data-name="Group 1102">
            <path id="Path_4359" data-name="Path 4359" d="M146.127,269.927s-.393,4.879.546,6.341-.8,3.445-4.4,2.767-3.383-2.715-3.383-2.715a14.873,14.873,0,0,0,.711-5.421C139.313,268.488,146.127,269.927,146.127,269.927Z" transform="translate(-138.893 -269.501)" fill="#eea886"/>
          </g>
        </g>
        <g id="Group_1105" data-name="Group 1105" transform="translate(52.386 24.359)">
          <g id="Group_1104" data-name="Group 1104">
            <path id="Path_4360" data-name="Path 4360" d="M148.118,277.5s-3.24,7.568-7.437,9.149c0,0-4.139-3.674-3.024-9.118C137.657,277.533,143,274.8,148.118,277.5Z" transform="translate(-137.467 -276.308)" fill="#eea886"/>
          </g>
        </g>
        <g id="Group_1107" data-name="Group 1107" transform="translate(50.259 2.723)">
          <g id="Group_1106" data-name="Group 1106">
            <path id="Path_4361" data-name="Path 4361" d="M142.372,247.824s6.472.935,5.525,10.49-6.66,8.8-7.042,8.791-5.732.2-6.193-11.463C134.662,255.642,134.446,247.02,142.372,247.824Z" transform="translate(-134.661 -247.771)" fill="#eea886"/>
          </g>
        </g>
        <g id="Group_1109" data-name="Group 1109" transform="translate(49.615 1.212)">
          <g id="Group_1108" data-name="Group 1108">
            <path id="Path_4362" data-name="Path 4362" d="M141.426,250.806s3.024,3.18,4.429,4.789,1.567,4.72,1.567,4.72a7.454,7.454,0,0,0,1.377-6.257c-.991-3.366-3.331-9.915-9.259-7.9s-6.146,10.868-5.452,15.258C134.088,261.413,136.749,251.721,141.426,250.806Z" transform="translate(-133.812 -245.779)" fill="#223247"/>
          </g>
        </g>
        <g id="Group_1110" data-name="Group 1110" transform="translate(54.74 20.851)">
          <path id="Path_4363" data-name="Path 4363" d="M140.572,272.483a5.431,5.431,0,0,0,5.574-.8,4.091,4.091,0,0,1-2.956,1.889A2.862,2.862,0,0,1,140.572,272.483Z" transform="translate(-140.572 -271.681)" fill="#a77860"/>
        </g>
        <g id="Group_1111" data-name="Group 1111" transform="translate(31.849 47.828)">
          <path id="Path_4364" data-name="Path 4364" d="M115.488,307.264a2.1,2.1,0,0,1-.9.889c-2.959,1.6-3.473,5.366-3.577,6.7l-.629-.006C110.9,307.9,115.488,307.264,115.488,307.264Z" transform="translate(-110.379 -307.264)" fill="#23344a"/>
        </g>
        <g id="Group_1112" data-name="Group 1112" transform="translate(30.659 47.867)">
          <path id="Path_4365" data-name="Path 4365" d="M114.935,307.315s-4.779.225-6.125,7.471l.491.078s.936-5.34,4.751-6.773A2.205,2.205,0,0,0,114.935,307.315Z" transform="translate(-108.81 -307.315)" fill="#23344a"/>
        </g>
        <g id="Group_1113" data-name="Group 1113" transform="translate(39.42 64.277)">
          <path id="Path_4366" data-name="Path 4366" d="M151.549,330.767s6.536,13.536,2.142,41c0,0-13.332-1.25-33.326-2.678,0,0,9.1-36.945,9.35-39.293S151.549,330.767,151.549,330.767Z" transform="translate(-120.365 -328.96)" fill="#f1861e"/>
        </g>
        <g id="Group_1115" data-name="Group 1115" transform="translate(55.915 145.524)">
          <g id="Group_1114" data-name="Group 1114">
            <path id="Path_4367" data-name="Path 4367" d="M142.121,436.537a2.9,2.9,0,0,0,3.594-.415l.139,1.442s-2.95,2.653-3.733-.2Z" transform="translate(-142.121 -436.122)" fill="#eea886"/>
          </g>
        </g>
        <g id="Group_1117" data-name="Group 1117" transform="translate(65.966 145.199)">
          <g id="Group_1116" data-name="Group 1116">
            <path id="Path_4368" data-name="Path 4368" d="M156.014,436.193s1.115,1.006,2.8-.5l.216,1.682s-2.87,2.936-3.652.085Z" transform="translate(-155.378 -435.693)" fill="#eea886"/>
          </g>
        </g>
        <g id="Group_1119" data-name="Group 1119" transform="translate(54.52 146.769)">
          <g id="Group_1118" data-name="Group 1118">
            <path id="Path_4369" data-name="Path 4369" d="M141.676,437.764s-1.535,1.832-1.384,2.133,3.5.978,4.007.262a14.358,14.358,0,0,0,1.111-2.2S142.48,439.26,141.676,437.764Z" transform="translate(-140.281 -437.764)" fill="#333"/>
          </g>
        </g>
        <g id="Group_1121" data-name="Group 1121" transform="translate(64.767 146.73)">
          <g id="Group_1120" data-name="Group 1120">
            <path id="Path_4370" data-name="Path 4370" d="M155.09,437.713s-1.431,2.017-1.281,2.319,3.121.781,3.629.067a19,19,0,0,0,1.21-2.235S155.893,439.211,155.09,437.713Z" transform="translate(-153.797 -437.713)" fill="#333"/>
          </g>
        </g>
        <g id="Group_1122" data-name="Group 1122" transform="translate(48.544 59.666)">
          <path id="Path_4371" data-name="Path 4371" d="M132.43,326.377s7.852,2.91,19.194-3.5c0,0,.453.924.959,2.194,0,0-10.338,6.383-19.957,3.258A7.023,7.023,0,0,1,132.43,326.377Z" transform="translate(-132.4 -322.877)" fill="#fff"/>
        </g>
        <g id="Group_1123" data-name="Group 1123" transform="translate(44.538 36.633)">
          <path id="Path_4372" data-name="Path 4372" d="M128.889,292.5a25.445,25.445,0,0,0-1,6.591s-.294,1.11-.765,2.431C126.992,295.21,128.889,292.5,128.889,292.5Z" transform="translate(-127.116 -292.497)" fill="#ad3434"/>
        </g>
        <g id="Group_1125" data-name="Group 1125" transform="translate(53.711 24.165)">
          <g id="Group_1124" data-name="Group 1124">
            <path id="Path_4373" data-name="Path 4373" d="M142.195,278.006a5.9,5.9,0,0,1-1.105-.1,3.412,3.412,0,0,1-1.874-.9l.161-.61a4.12,4.12,0,0,0,1.875.866,7.1,7.1,0,0,0,4.993-1.209l.256.579A8.079,8.079,0,0,1,142.195,278.006Z" transform="translate(-139.215 -276.053)" fill="#c43b3b"/>
          </g>
        </g>
      </g>
      <g id="Group_1128" data-name="Group 1128" transform="translate(32.541 75.556)">
        <path id="Path_4374" data-name="Path 4374" d="M152.844,144.05l-15.126,2.837a3.876,3.876,0,0,0-2.22,1.276l-34.325,39.7a3.879,3.879,0,0,0,.4,5.472l3.762,3.253,10.744,9.29a3.88,3.88,0,0,0,5.472-.4l34.324-39.7a3.874,3.874,0,0,0,.942-2.38l.621-15.379A3.88,3.88,0,0,0,152.844,144.05Zm2.186,5.286a2.076,2.076,0,1,1-.212-2.928A2.076,2.076,0,0,1,155.03,149.336Z" transform="translate(-100.228 -143.983)" fill="#b0dce9"/>
      </g>
      <g id="Group_1132" data-name="Group 1132" transform="translate(87.067 12.987)">
        <g id="Group_1129" data-name="Group 1129" transform="translate(0 63.571)">
          <path id="Path_4379" data-name="Path 4379" d="M172.273,146.971l-.127-.487a12.732,12.732,0,0,0,2.7-1.18l.248.437A12.9,12.9,0,0,1,172.273,146.971Z" transform="translate(-172.146 -145.305)" fill="#e6e6e6"/>
        </g>
        <g id="Group_1130" data-name="Group 1130" transform="translate(7.176)">
          <path id="Path_4380" data-name="Path 4380" d="M359.74,166.93l-.477-.161c.688-2.029,1.291-3.9,1.845-5.733l.483.145C361.034,163.016,360.429,164.9,359.74,166.93Zm3.478-11.57-.487-.124c.514-2.019.96-3.994,1.324-5.869l.493.1C364.184,151.348,363.735,153.331,363.219,155.36Zm2.267-11.872-.5-.059c.241-2.069.383-4.084.418-5.988l.5.009C365.872,139.371,365.73,141.4,365.486,143.488Zm-.334-12.034a36.572,36.572,0,0,0-1.119-5.875l.484-.136a36.729,36.729,0,0,1,1.133,5.957ZM182.008,121.5l-.4-.31a15.336,15.336,0,0,0,2.645-5.268l.484.137A15.784,15.784,0,0,1,182.008,121.5Zm179.859-1.475a26.969,26.969,0,0,0-3.292-4.964l.387-.324a27.514,27.514,0,0,1,3.351,5.057Zm-7.585-9.094a33.582,33.582,0,0,0-5.027-3.218l.234-.446a33.973,33.973,0,0,1,5.1,3.267Zm-168.8-.9-.5-.011a54.276,54.276,0,0,1,.513-6.048l.5.068A53.451,53.451,0,0,0,185.487,110.029Zm158.277-4.7a55.005,55.005,0,0,0-5.755-1.679l.115-.491a55.8,55.8,0,0,1,5.809,1.694Zm-11.655-2.793c-1.9-.279-3.91-.5-5.972-.664l.039-.5c2.074.162,4.1.387,6.008.667ZM320.125,101.4c-2.077-.206-4.089-.46-5.983-.755l.079-.5c1.884.294,3.886.547,5.952.752Zm-11.9-1.892c-2.033-.47-3.986-1.017-5.811-1.625l.16-.478c1.807.6,3.747,1.146,5.764,1.613ZM187.087,98.122l-.491-.114c.456-1.983,1-3.947,1.622-5.837l.478.157C188.082,94.2,187.541,96.153,187.087,98.122ZM296.8,95.648a46.109,46.109,0,0,1-5.289-2.92l.272-.424a45.685,45.685,0,0,0,5.231,2.888Zm-10.174-6.47c-1.667-1.353-3.237-2.76-4.551-3.958l.337-.372c1.311,1.193,2.873,2.6,4.53,3.938Zm-95.782-2.463-.46-.2a53.294,53.294,0,0,1,2.756-5.4l.435.256A52.751,52.751,0,0,0,190.845,86.716Zm86.783-5.553c-1.693-1.509-3.151-2.736-4.594-3.861l.309-.4c1.453,1.131,2.92,2.365,4.62,3.883Zm-80.691-4.754-.4-.309a40.224,40.224,0,0,1,4.074-4.487l.345.365A39.9,39.9,0,0,0,196.937,76.409Zm71.21-2.572c-1.659-1.06-3.407-2.061-5.2-2.975l.228-.449c1.8.922,3.566,1.93,5.24,3ZM257.5,68.376c-1.783-.725-3.679-1.414-5.635-2.049l.156-.478c1.966.638,3.873,1.332,5.668,2.061Zm-51.874-.132-.282-.418a35.876,35.876,0,0,1,5.3-2.938l.206.459A35.342,35.342,0,0,0,205.626,68.244Zm40.48-3.592c-1.541-.4-3.157-.785-4.8-1.143q-.527-.114-1.046-.219l.1-.494c.348.071.7.144,1.052.221,1.653.359,3.276.746,4.823,1.149ZM216.481,63.36l-.129-.487A42.049,42.049,0,0,1,222.3,61.76l.056.5A41.385,41.385,0,0,0,216.481,63.36Zm17.845-1.019a58.055,58.055,0,0,0-5.99-.381l0-.5a58.159,58.159,0,0,1,6.042.385Z" transform="translate(-181.611 -61.456)" fill="#e6e6e6"/>
        </g>
        <g id="Group_1131" data-name="Group 1131" transform="translate(181.673 111.303)">
          <path id="Path_4381" data-name="Path 4381" d="M412.24,211.27l-.472-.174q.511-1.381,1.041-2.833l.473.173Q412.752,209.887,412.24,211.27Z" transform="translate(-411.768 -208.262)" fill="#e6e6e6"/>
        </g>
      </g>
      <g id="Group_1133" data-name="Group 1133" transform="translate(392.687 102.382)">
        <path id="Path_4382" data-name="Path 4382" d="M575.252,205.143l15.9-9.153,15.213-9.983,1.673,3.017-15.464,9.041-15.655,10.094Zm9.576-13.234a7.362,7.362,0,0,1-2.425-1.4,7.016,7.016,0,0,1-1.617-2.032,6.573,6.573,0,0,1-.718-2.411,5.8,5.8,0,0,1,.319-2.56,5.866,5.866,0,0,1,1.353-2.172,6.287,6.287,0,0,1,2.077-1.422,7.228,7.228,0,0,1,2.528-.544,7.335,7.335,0,0,1,2.763.439,7.421,7.421,0,0,1,2.406,1.39,7.141,7.141,0,0,1,1.644,2.019,6.269,6.269,0,0,1,.719,2.411,6,6,0,0,1-1.673,4.732,6.606,6.606,0,0,1-2.076,1.422,6.948,6.948,0,0,1-2.553.556A7.41,7.41,0,0,1,584.828,191.909Zm.946-2.675a2.353,2.353,0,0,0,1.2.108,3.567,3.567,0,0,0,1.159-.421,3.516,3.516,0,0,0,1-.859,4.093,4.093,0,0,0,.677-1.219,3.737,3.737,0,0,0,0-2.673,2.7,2.7,0,0,0-1.651-1.684,2.344,2.344,0,0,0-1.2-.109,3.584,3.584,0,0,0-1.161.421,3.539,3.539,0,0,0-.992.84,3.861,3.861,0,0,0-.672,1.2,3.813,3.813,0,0,0-.009,2.691A2.685,2.685,0,0,0,585.775,189.234Zm8.436,25.175a7.324,7.324,0,0,1-2.425-1.4A7.168,7.168,0,0,1,590.161,211a6.327,6.327,0,0,1-.727-2.391,6.042,6.042,0,0,1,1.681-4.751,6.626,6.626,0,0,1,2.074-1.422,7.015,7.015,0,0,1,2.536-.563,7.456,7.456,0,0,1,6.828,3.874,6.219,6.219,0,0,1,.719,2.411,6.263,6.263,0,0,1-1.679,4.751,5.956,5.956,0,0,1-2.069,1.4,7.5,7.5,0,0,1-2.55.537A7.343,7.343,0,0,1,594.211,214.409Zm.946-2.675a2.363,2.363,0,0,0,1.2.109,3.609,3.609,0,0,0,2.152-1.26,4.065,4.065,0,0,0,.905-2.622,4.119,4.119,0,0,0-.237-1.3,2.956,2.956,0,0,0-.645-1.036,2.521,2.521,0,0,0-.987-.641,2.33,2.33,0,0,0-1.2-.109,3.6,3.6,0,0,0-1.158.421,3.491,3.491,0,0,0-1,.86,4.054,4.054,0,0,0-.68,1.22,3.743,3.743,0,0,0,0,2.671A2.7,2.7,0,0,0,595.157,211.734Z" transform="translate(-575.252 -179.366)" fill="#f1861e"/>
      </g>
      <g id="Group_1134" data-name="Group 1134" transform="translate(42.614)">
        <path id="Path_4383" data-name="Path 4383" d="M120.416,58.132a4.875,4.875,0,0,1-1.715.729,4.685,4.685,0,0,1-1.728.043,4.41,4.41,0,0,1-1.569-.585,4,4,0,0,1-1.841-2.787,4.174,4.174,0,0,1,.077-1.673,4.814,4.814,0,0,1,.726-1.56,4.893,4.893,0,0,1,1.34-1.292,4.949,4.949,0,0,1,1.7-.72,4.779,4.779,0,0,1,1.732-.063,4.22,4.22,0,0,1,1.569.585,3.929,3.929,0,0,1,1.222,1.185,3.874,3.874,0,0,1,.619,1.6,4.43,4.43,0,0,1-.077,1.673,4.636,4.636,0,0,1-.73,1.58A4.906,4.906,0,0,1,120.416,58.132Zm-1.042-1.575a1.571,1.571,0,0,0,.539-.591,2.4,2.4,0,0,0,.241-.786,2.35,2.35,0,0,0-.055-.876,2.739,2.739,0,0,0-.376-.849,2.491,2.491,0,0,0-1.419-1.074,1.8,1.8,0,0,0-1.557.2,1.566,1.566,0,0,0-.538.592,2.405,2.405,0,0,0-.194,1.649,2.59,2.59,0,0,0,.368.838,2.542,2.542,0,0,0,1.426,1.085A1.785,1.785,0,0,0,119.374,56.557Zm4.229,11.97,1.518-12.12.8-12.081,2.274.321-1.4,11.837-.918,12.363Zm12.525-6.353a4.846,4.846,0,0,1-1.715.729,4.767,4.767,0,0,1-1.72.055,4.189,4.189,0,0,1-1.561-.572,4.022,4.022,0,0,1-1.851-2.8,4.432,4.432,0,0,1,.078-1.673,4.682,4.682,0,0,1,.717-1.573,4.9,4.9,0,0,1,1.343-1.291,4.871,4.871,0,0,1,3.453-.78,4.1,4.1,0,0,1,1.569.585,4.045,4.045,0,0,1,1.765,4.46,5,5,0,0,1-.737,1.568A4.891,4.891,0,0,1,136.128,62.174Zm-1.04-1.575a1.565,1.565,0,0,0,.538-.592,2.405,2.405,0,0,0,.194-1.649,2.715,2.715,0,0,0-1.03-1.532,2.734,2.734,0,0,0-.783-.393,1.958,1.958,0,0,0-.808-.075,1.69,1.69,0,0,0-.737.268,1.564,1.564,0,0,0-.538.592,2.364,2.364,0,0,0-.187,1.66,2.7,2.7,0,0,0,.376.85,2.487,2.487,0,0,0,1.419,1.073A1.8,1.8,0,0,0,135.088,60.6Z" transform="translate(-113.513 -44.326)" fill="#f1861e"/>
      </g>
    </g>
  </g>
</svg>
