<svg id="shopping-cart_1_" data-name="shopping-cart (1)" xmlns="http://www.w3.org/2000/svg" width="127.5" height="127.5" viewBox="0 0 127.5 127.5">
  <path id="Path_4042" data-name="Path 4042" d="M126.751,39.094a3.735,3.735,0,0,0-2.987-1.492H97.055a22.413,22.413,0,0,0-44.2,0H29.639L24.758,3.211A3.735,3.735,0,0,0,21.06,0H3.735a3.735,3.735,0,0,0,0,7.471H17.818L22.7,41.862h0l5.639,39.719a18.677,18.677,0,0,0,5.876,11.127,11.2,11.2,0,0,0,4.181,19.454,11.205,11.205,0,1,0,20.977.395H90.54a11.205,11.205,0,1,0,10.564-7.471H41.338a3.735,3.735,0,1,1,0-7.471H97.3a18.752,18.752,0,0,0,17.954-13.532l12.094-41.707a3.736,3.736,0,0,0-.6-3.284Z" fill="#f1861e"/>
  <g id="Group_899" data-name="Group 899" transform="translate(48.809 15.19)">
    <g id="Group_898" data-name="Group 898">
      <path id="Path_4043" data-name="Path 4043" d="M222.147,61a26.147,26.147,0,1,0,26.147,26.147A26.177,26.177,0,0,0,222.147,61Zm10.112,25.053L221.053,97.26a3.735,3.735,0,0,1-5.282,0l-3.735-3.735a3.735,3.735,0,1,1,5.283-5.283l1.094,1.094,8.565-8.565a3.735,3.735,0,1,1,5.282,5.283Z" transform="translate(-196 -61)" fill="#fff"/>
    </g>
  </g>
</svg>
