<svg xmlns="http://www.w3.org/2000/svg" xmlns:xlink="http://www.w3.org/1999/xlink" width="353.465" height="351.902" viewBox="0 0 353.465 351.902">
  <defs>
    <linearGradient id="linear-gradient" x1="0.5" x2="0.51" y2="0.452" gradientUnits="objectBoundingBox">
      <stop offset="0" stop-color="#333"/>
      <stop offset="1" stop-color="#333"/>
    </linearGradient>
    <linearGradient id="linear-gradient-2" x1="0.5" x2="0.51" y2="0.452" gradientUnits="objectBoundingBox">
      <stop offset="0" stop-color="#f1861e"/>
      <stop offset="1" stop-color="#f1861e"/>
    </linearGradient>
    <linearGradient id="linear-gradient-3" x1="24.277" y1="-0.262" x2="23.495" y2="0.844" gradientUnits="objectBoundingBox">
      <stop offset="0" stop-color="#febbba"/>
      <stop offset="1" stop-color="#ff928e"/>
    </linearGradient>
    <linearGradient id="linear-gradient-4" x1="-28.126" y1="-5.78" x2="-27.902" y2="-6.69" xlink:href="#linear-gradient-3"/>
    <linearGradient id="linear-gradient-5" x1="-73.672" y1="-8.112" x2="-72.266" y2="-6.79" xlink:href="#linear-gradient-3"/>
    <linearGradient id="linear-gradient-6" x1="-62.998" y1="-9.392" x2="-59.611" y2="-5.142" xlink:href="#linear-gradient-3"/>
    <linearGradient id="linear-gradient-7" x1="-14.942" y1="1.169" x2="-13.541" y2="0.033" xlink:href="#linear-gradient-3"/>
    <linearGradient id="linear-gradient-8" x1="-26.803" y1="0.376" x2="-30.7" y2="0.707" xlink:href="#linear-gradient-3"/>
    <linearGradient id="linear-gradient-9" x1="209.66" y1="-0.013" x2="207.56" y2="0.802" xlink:href="#linear-gradient-3"/>
    <linearGradient id="linear-gradient-10" x1="0.415" y1="0.055" x2="0.711" y2="1.198" xlink:href="#linear-gradient-3"/>
  </defs>
  <g id="Group_1001" data-name="Group 1001" transform="translate(-448.782 -455)">
    <path id="Path_4219" data-name="Path 4219" d="M761.657,766.185a126.179,126.179,0,0,1-19.306,16.255c-62.981,45.19-137.5,32.017-153.342,28.8-23.388-4.75-68.6-13.932-101.282-52.369-49.45-58.152-41.75-149.769-3.393-210.246,7.016-11.062,44.077-72.461,119.4-82.308,45.586-5.959,98.725,6.06,137.207,38.3C821.72,572.292,815.97,709.007,761.657,766.185Z" transform="translate(-3.76 -8.609)" fill="#f5f5f5"/>
    <g id="Group_975" data-name="Group 975" transform="translate(628.372 472.793)">
      <path id="Path_4220" data-name="Path 4220" d="M1877.741,799.753s16.286-126.363,69.76-199.975a7.724,7.724,0,0,1,13.453,1.711C1975.808,639.595,2008.89,756.433,1877.741,799.753Z" transform="translate(-1877.741 -596.578)" fill="#df6e00"/>
      <path id="Path_4221" data-name="Path 4221" d="M1968.27,1072.074a.337.337,0,0,0,.489.463c11.482-10.566,54.858-61.118,63.129-153.667a.236.236,0,0,0-.466-.069C2027.58,940.455,2010.992,1020.558,1968.27,1072.074Z" transform="translate(-1956.82 -878.138)" fill="#fff" opacity="0.5"/>
    </g>
    <g id="Group_976" data-name="Group 976" transform="translate(677.915 494.456)">
      <path id="Path_4222" data-name="Path 4222" d="M2271.941,910.971s28.272-92.231,77.57-140.349a5.848,5.848,0,0,1,9.822,2.993C2365.558,803.948,2375.346,895.367,2271.941,910.971Z" transform="translate(-2271.941 -768.946)" fill="#df6e00"/>
      <path id="Path_4223" data-name="Path 4223" d="M2345.882,1143.621a.246.246,0,0,0,.295.393c9.558-6.189,46.969-37.217,64.294-102.766a.172.172,0,0,0-.326-.107C2404.719,1056.243,2382.942,1111.818,2345.882,1143.621Z" transform="translate(-2336.51 -1006.833)" fill="#fff" opacity="0.5"/>
    </g>
    <g id="Group_978" data-name="Group 978" transform="translate(624.333 552.549)">
      <g id="Group_977" data-name="Group 977" transform="translate(0 0.405)">
        <path id="Path_4224" data-name="Path 4224" d="M2406.368,1293.434c-.015-.385-1.664-38.685-18.091-52.193a20.084,20.084,0,0,0-16.536-4.364c-13.429,2.114-22.725,12.2-27.627,29.986a101.488,101.488,0,0,0-3.35,26.5l-2.175.066a103.988,103.988,0,0,1,3.428-27.14c5.078-18.418,15.24-29.331,29.387-31.558a22.18,22.18,0,0,1,18.259,4.834c17.181,14.131,18.82,52.176,18.881,53.789Z" transform="translate(-2276.62 -1234.402)" fill="#333"/>
        <path id="Path_4225" data-name="Path 4225" d="M1845.692,1774.418l25.684-177.12,96.486-1.622,31.1,188.586H1854.047A8.543,8.543,0,0,1,1845.692,1774.418Z" transform="translate(-1845.6 -1550.271)" fill="#f1861e"/>
        <path id="Path_4226" data-name="Path 4226" d="M2837.155,1597.3l-18.739-1.622,31.1,188.586h18.6a6.022,6.022,0,0,0,5.822-7.282Z" transform="translate(-2696.153 -1550.271)" fill="#df6e00"/>
      </g>
      <path id="Path_4227" data-name="Path 4227" d="M2174.711,1291.256a1.088,1.088,0,0,1-1.087-1.055,104.011,104.011,0,0,1,3.427-27.14c5.078-18.418,15.24-29.33,29.387-31.558a22.182,22.182,0,0,1,18.258,4.834c17.181,14.131,18.82,52.176,18.881,53.789a1.088,1.088,0,0,1-2.174.083c-.015-.385-1.664-38.684-18.091-52.193a20.084,20.084,0,0,0-16.536-4.363c-13.429,2.114-22.725,12.2-27.627,29.986a101.476,101.476,0,0,0-3.35,26.5,1.089,1.089,0,0,1-1.054,1.121Z" transform="translate(-2132.389 -1231.177)" fill="#333"/>
    </g>
    <g id="Group_993" data-name="Group 993" transform="translate(448.782 455)">
      <g id="Group_980" data-name="Group 980" transform="translate(20.235 0)">
        <g id="Group_979" data-name="Group 979">
          <path id="Path_4228" data-name="Path 4228" d="M811.092,780.627c-.067,6.613-5.748,11.974-12.691,11.989l-167.829.366c-6.993.015-12.8-5.342-12.964-11.981l-7.82-312.594A12.99,12.99,0,0,1,622.9,455l178.149.852a13.3,13.3,0,0,1,13.2,13.477Z" transform="translate(-609.784 -455)" fill="url(#linear-gradient)"/>
          <path id="Path_4229" data-name="Path 4229" d="M926.135,617.774a13.027,13.027,0,0,0-13.09-13l-141.4-.622a12.727,12.727,0,0,0-12.981,12.933l5.813,265.779c.142,6.51,5.9,11.767,12.858,11.756L911.67,894.4c6.918-.011,12.561-5.269,12.607-11.758Z" transform="translate(-739.954 -585.405)" fill="#ececec"/>
          <path id="Path_4230" data-name="Path 4230" d="M1303.094,509.876a2.481,2.481,0,0,1-2.489,2.5l-36.8-.167a2.557,2.557,0,0,1-2.532-2.523h0a2.459,2.459,0,0,1,2.474-2.5l36.84.172a2.527,2.527,0,0,1,2.505,2.523Z" transform="translate(-1179.396 -500.623)" fill="#fff"/>
        </g>
      </g>
      <g id="Group_989" data-name="Group 989" transform="translate(0 18.74)">
        <g id="Group_984" data-name="Group 984" transform="translate(0.439)">
          <path id="Path_4231" data-name="Path 4231" d="M485.587,604.108a2.571,2.571,0,0,0-2.267,1.118c-10.347,16.328-20.7,33.238-31.042,48.854h30.507c7.958-15.617,15.917-33.018,23.875-49.973Z" transform="translate(-452.277 -604.108)" fill="#ace0f3"/>
          <path id="Path_4232" data-name="Path 4232" d="M725.52,655.261H695.013l23.875-50.233h22.548Z" transform="translate(-664.506 -604.912)" fill="url(#linear-gradient-2)"/>
          <g id="Group_981" data-name="Group 981" transform="translate(61.014 0.116)">
            <path id="Path_4233" data-name="Path 4233" d="M968.255,655.261H937.748l15.917-50.233h22.549Z" transform="translate(-937.748 -605.028)" fill="#ace0f3"/>
          </g>
          <path id="Path_4234" data-name="Path 4234" d="M1210.993,655.261h-30.507l7.959-50.233h22.548Z" transform="translate(-1088.965 -604.912)" fill="#f1861e"/>
          <g id="Group_982" data-name="Group 982" transform="translate(122.028 0.116)">
            <path id="Path_4235" data-name="Path 4235" d="M1453.731,655.261h-30.507V605.028h22.549Q1449.751,630.145,1453.731,655.261Z" transform="translate(-1423.224 -605.028)" fill="#ace0f3"/>
          </g>
          <path id="Path_4236" data-name="Path 4236" d="M1641.1,655.261H1610.6l-7.958-50.233h22.548Z" transform="translate(-1458.062 -604.912)" fill="#f1861e"/>
          <g id="Group_983" data-name="Group 983" transform="translate(167.125 0.116)">
            <path id="Path_4237" data-name="Path 4237" d="M1828.475,655.261h-30.507l-15.917-50.233H1804.6Q1816.537,630.145,1828.475,655.261Z" transform="translate(-1782.051 -605.028)" fill="#ace0f3"/>
          </g>
          <path id="Path_4238" data-name="Path 4238" d="M1984.807,605.226a2.571,2.571,0,0,0-2.267-1.118h-21.072c7.958,16.955,15.916,34.356,23.875,49.973h30.507C2005.5,638.464,1995.154,621.554,1984.807,605.226Z" transform="translate(-1771.794 -604.108)" fill="#f1861e"/>
        </g>
        <g id="Group_985" data-name="Group 985" transform="translate(0 49.973)">
          <path id="Path_4239" data-name="Path 4239" d="M448.782,1001.728v8.7c0,7.248,7.363,12.715,15.765,12.715h.327c8.4,0,15.141-5.467,15.141-12.715v-8.7Z" transform="translate(-448.782 -1001.728)" fill="#538ac8"/>
          <path id="Path_4240" data-name="Path 4240" d="M697.294,1001.728v8.7c0,7.248,6.494,12.715,14.754,12.715h.322c8.26,0,14.818-5.467,14.818-12.715v-8.7Z" transform="translate(-666.061 -1001.728)" fill="#df6e00"/>
        </g>
        <g id="Group_986" data-name="Group 986" transform="translate(61.127 49.973)">
          <path id="Path_4241" data-name="Path 4241" d="M935.156,1001.728v8.7c0,7.248,7.193,12.715,15.6,12.715h.327c8.4,0,14.864-5.467,14.864-12.715v-8.7Z" transform="translate(-935.156 -1001.728)" fill="#538ac8"/>
          <path id="Path_4242" data-name="Path 4242" d="M1180.119,1001.728v8.7c0,7.248,6.771,12.715,15.031,12.715h.322c8.26,0,14.988-5.467,14.988-12.715v-8.7Z" transform="translate(-1149.332 -1001.728)" fill="#df6e00"/>
        </g>
        <g id="Group_987" data-name="Group 987" transform="translate(122.254 49.973)">
          <path id="Path_4243" data-name="Path 4243" d="M1421.531,1001.728v8.7c0,7.248,7.024,12.715,15.426,12.715h.327c8.4,0,14.588-5.467,14.588-12.715v-8.7Z" transform="translate(-1421.531 -1001.728)" fill="#538ac8"/>
          <path id="Path_4244" data-name="Path 4244" d="M1662.943,1001.728v8.7c0,7.248,7.047,12.715,15.307,12.715h.322c8.26,0,15.158-5.467,15.158-12.715v-8.7Z" transform="translate(-1632.602 -1001.728)" fill="#df6e00"/>
        </g>
        <g id="Group_988" data-name="Group 988" transform="translate(183.381 49.973)">
          <path id="Path_4245" data-name="Path 4245" d="M1907.906,1001.728v8.7c0,7.248,6.854,12.715,15.256,12.715h.327c8.4,0,15.2-5.467,15.2-12.715v-8.7Z" transform="translate(-1907.906 -1001.728)" fill="#538ac8"/>
          <path id="Path_4246" data-name="Path 4246" d="M2152.868,1001.728v8.7c0,7.248,6.431,12.715,14.691,12.715h.322c8.26,0,14.882-5.467,14.882-12.715v-8.7Z" transform="translate(-2122.081 -1001.728)" fill="#df6e00"/>
        </g>
      </g>
      <g id="Group_992" data-name="Group 992" transform="translate(63.685 168.992)">
        <path id="Path_4250" data-name="Path 4250" d="M1062.328,1427.041a2.921,2.921,0,0,0-2.4-.967l-85.935,1.8-2.171-6.9a2.236,2.236,0,0,0-2.227-1.549l-11.8.31a2.217,2.217,0,0,0-2.29,2.176,2.089,2.089,0,0,0,2.29,2.061l10.083-.238,18.245,58.3a2.408,2.408,0,0,0,2.273,1.67l60.317.81a2.319,2.319,0,0,0,2.565-2.208,2.387,2.387,0,0,0-2.565-2.27l-58.557-.631-4.7-15.137,64.349.1a2.981,2.981,0,0,0,2.848-2.056l10.156-32.838A2.585,2.585,0,0,0,1062.328,1427.041Z" transform="translate(-955.506 -1419.431)" fill="#f1861e"/>
        <path id="Path_4251" data-name="Path 4251" d="M1224.952,1959.485a8.7,8.7,0,0,0-8.978,8.61,9.155,9.155,0,0,0,8.978,8.985,8.7,8.7,0,0,0,9.077-8.608A9.153,9.153,0,0,0,1224.952,1959.485Zm0,12.9a4.272,4.272,0,0,1-4.2-4.193,4.062,4.062,0,0,1,4.2-4.018,4.272,4.272,0,0,1,4.224,4.194A4.062,4.062,0,0,1,1224.952,1972.388Z" transform="translate(-1183.239 -1891.611)" fill="#f1861e"/>
        <path id="Path_4252" data-name="Path 4252" d="M1541.786,1964.458a9.033,9.033,0,0,0-9.422,8.816,9.5,9.5,0,0,0,9.422,9.21,9.035,9.035,0,0,0,9.529-8.814A9.5,9.5,0,0,0,1541.786,1964.458Zm0,13.22a4.434,4.434,0,0,1-4.41-4.3,4.216,4.216,0,0,1,4.41-4.114,4.434,4.434,0,0,1,4.433,4.3A4.216,4.216,0,0,1,1541.786,1977.678Z" transform="translate(-1459.865 -1895.959)" fill="#f1861e"/>
      </g>
    </g>
    <g id="Group_1000" data-name="Group 1000" transform="translate(678.522 613.593)">
      <path id="Path_4253" data-name="Path 4253" d="M2542.286,1725.4s-4.211-10.318,11.673-8.238,12.023,8.077,13.279,12.763,7.919,10,26.463,17.227,13.046,26.942,4.717,33.484-12.872,2.194-14.809,13.486-9.666,20.463-19.308,10.89-20.6-20.891-17.536-35.734-.406-12.035-6.389-18.844S2547.073,1737.039,2542.286,1725.4Z" transform="translate(-2505.812 -1716.889)" fill="#333"/>
      <path id="Path_4254" data-name="Path 4254" d="M2349.166,1966.106c-2.521-2.558-4.975,3.59-5.63,5.131-1.654,3.891-3.373,7.383-6.863,10.049-2.159,1.649-5.077,2.707-7.809,1.914-9.839-2.855-9.885-10.758-10.107-16.679a3.8,3.8,0,0,0-2-3.863,3.949,3.949,0,0,1-1.959-2.069s-.963,2.134.22,3.135a1.386,1.386,0,0,1,.522,1.154c-.138-.023-.28-.044-.429-.063-2.958-.37.011,3.864.011,3.864s-2.863,15.5,10.252,21.655c6.492,3.049,11.471,2.326,14.855.818a11.031,11.031,0,0,0,4.444-3.036,9.2,9.2,0,0,0,.767-.849v-.049C2350.676,1980.563,2351.584,1968.559,2349.166,1966.106Z" transform="translate(-2309.147 -1929.962)" fill="url(#linear-gradient-3)"/>
      <path id="Path_4255" data-name="Path 4255" d="M2526.418,1991.866a17.592,17.592,0,0,1,17.219,4.388,4.42,4.42,0,0,1,1.274,4.4c-1.917,7.058-6.975,27.91-2.54,36.933,0,0-7.816,8.616-16.342,1.672,0,0-3.826-16.674-8.836-23.993-3.46-5.054,5.516-18.977,7.787-22.341A2.661,2.661,0,0,1,2526.418,1991.866Z" transform="translate(-2486.291 -1956.705)" fill="#df6e00"/>
      <path id="Path_4256" data-name="Path 4256" d="M2617.187,1885.083s3.812,10.781,4.1,15.538a8.152,8.152,0,0,1-8.182-1.318s-.417-10.769-1.019-12.7Z" transform="translate(-2569.943 -1863.944)" fill="url(#linear-gradient-4)"/>
      <path id="Path_4257" data-name="Path 4257" d="M2569.521,1773.623a4.407,4.407,0,0,1,3.8-2.221c2.1-.013,4.972.274,6.454,1.75,2.512,2.5.479,10.216.479,10.216s-6.73,10.167-12.833,6.335C2562.753,1786.773,2567.177,1777.724,2569.521,1773.623Z" transform="translate(-2529.095 -1764.55)" fill="url(#linear-gradient-5)"/>
      <path id="Path_4258" data-name="Path 4258" d="M2635.88,1753.9c-.667-4.874-6.689-5.069-6.689-5.069s-4.706-.117-5.854,1.723c-.517.828.5,2.027,1.942,3.151a12.308,12.308,0,0,1,4.722,10.526l-.063.936S2636.547,1758.775,2635.88,1753.9Z" transform="translate(-2579.661 -1744.817)" fill="#333"/>
      <path id="Path_4259" data-name="Path 4259" d="M2656.338,1849.784s3.714-4.633,5.363-1.761-3.3,5.253-5.1,3.88Z" transform="translate(-2608.634 -1830.722)" fill="url(#linear-gradient-6)"/>
      <path id="Path_4260" data-name="Path 4260" d="M2498.779,2652.333c.03.757-1.3,6.761-2.023,9.964a5.278,5.278,0,0,0,.568,3.784l25.049,42.158a5.75,5.75,0,0,1,.658,1.64,36.171,36.171,0,0,1,.914,11.238l-1.3,2.692,5.6-1.273,1.219-15.05-1.587-.968a7.542,7.542,0,0,1-3.049-3.569c-2.265-5.5-7.889-19.507-9.339-26.332-1.648-7.757-10.261-14.057-10.261-14.057l1.513-3.578Z" transform="translate(-2468.995 -2534.767)" fill="url(#linear-gradient-7)"/>
      <path id="Path_4261" data-name="Path 4261" d="M2703.788,3093.041s-3.026-4.8-3.382-6.666-1.347-5.166-3.213-4.173c0,0-.879,9.073-.576,12.618s-4.008,3.431-4.008,3.431a4.026,4.026,0,0,0-2.058,1.037,1.009,1.009,0,0,0,.677,1.7,24.248,24.248,0,0,0,6-.34,1.837,1.837,0,0,0,1.481-1.694l.621-10.442,3.818,4.82Z" transform="translate(-2638.302 -2910.451)" fill="#333"/>
      <path id="Path_4262" data-name="Path 4262" d="M2596.562,2698.7s.884,37.71,1,43.066-.846,17.225-6.215,20.773l2.336,1.73a31.223,31.223,0,0,0,5.772-7.258c3.2-5.365,4.173-6.345,4.173-6.345l-1.063-2.177a4.79,4.79,0,0,1-.388-3.071c1.159-5.615,5.029-24.293,6.085-28.316,1.246-4.748,1.335-11.089-3-16.4S2596.562,2698.7,2596.562,2698.7Z" transform="translate(-2551.814 -2574.421)" fill="url(#linear-gradient-8)"/>
      <path id="Path_4263" data-name="Path 4263" d="M2583.207,3128.268a.33.33,0,0,0,.332-.282c.179-1.257.922-6.3,1.531-7.6.7-1.495,2.975-7.786,0-8.32,0,0-7.4,10.809-8.819,12.267a2.784,2.784,0,0,1-3.213.509,5.346,5.346,0,0,0-2.427,1.742.98.98,0,0,0,.772,1.574l4.983.048a3.507,3.507,0,0,0,3.287-2.209c.877-2.191,2.384-5.4,4.14-6.83l-.913,8.738a.332.332,0,0,0,.327.367Z" transform="translate(-2533.501 -2936.719)" fill="#333"/>
      <path id="Path_4264" data-name="Path 4264" d="M2504.618,2324.256s1.123,3.579-.6,9.475l-10.7,37.372a1.157,1.157,0,0,0,.724,1.408,71.394,71.394,0,0,0,28.09,3.406,1.631,1.631,0,0,0,1.487-1.27c.946-4.261,4.176-18.8,4.841-21.784,2.534-11.381,5.363-23.654-7.083-31.076C2515.636,2324.244,2510.287,2325.692,2504.618,2324.256Z" transform="translate(-2466.06 -2245.764)" fill="#161616"/>
      <g id="Group_994" data-name="Group 994" transform="translate(1.184 17.666)">
        <path id="Path_4265" data-name="Path 4265" d="M2308.91,1882.425a4.324,4.324,0,0,0,.151-2.117c-.15-1.519-.138-3.033-.162-4.559-.064-3.953-.029-7.917-.342-11.86-.068-.851.023-1.705-.043-2.553-.168-2.151-1.43-2.786-3.529-3.235-1.775-.38-3.711-.9-5.545-.512a1.687,1.687,0,0,0-1.508,1.3c-.365,3.045-.273,23,3.4,23.546,1.241.185,2.473.4,3.707.625a6.42,6.42,0,0,0,2.933.194A1.507,1.507,0,0,0,2308.91,1882.425Z" transform="translate(-2296.332 -1857.451)" fill="#538ac8"/>
        <path id="Path_4266" data-name="Path 4266" d="M2297.311,1882.425a4.324,4.324,0,0,0,.151-2.117c-.15-1.519-.138-3.033-.163-4.559-.064-3.953-.029-7.917-.342-11.86-.067-.851.023-1.705-.043-2.553-.168-2.151-1.43-2.786-3.529-3.235-1.775-.38-3.711-.9-5.545-.512a1.687,1.687,0,0,0-1.508,1.3c-.364,3.045-.273,23,3.4,23.546,1.241.185,2.473.4,3.707.625a6.42,6.42,0,0,0,2.933.194A1.507,1.507,0,0,0,2297.311,1882.425Z" transform="translate(-2286.19 -1857.451)" fill="#538ac8"/>
      </g>
      <path id="Path_4267" data-name="Path 4267" d="M2279,1939.923s-.8-.546-1.465-3.81-1.317-5.24,0-6.755,3.357-1.58,3.357,0a61.229,61.229,0,0,0-.105,6.755C2281.021,1938.378,2280.462,1943.733,2279,1939.923Z" transform="translate(-2276.771 -1901.641)" fill="url(#linear-gradient-9)"/>
      <path id="Path_4268" data-name="Path 4268" d="M2697.175,1758.252a8.216,8.216,0,0,1,4.115,2.173,5.928,5.928,0,0,1,1.263,2.017l.187.573.107.592c.076.4.112.767.177,1.151a17.989,17.989,0,0,0,3.859,8.265,17.041,17.041,0,0,0,3.363,3.129,26.129,26.129,0,0,0,4.051,2.231q2.106,1,4.276,1.861a41.426,41.426,0,0,0,4.408,1.533,47.159,47.159,0,0,1-8.851-3.025,23.325,23.325,0,0,1-4.159-2.207,17.475,17.475,0,0,1-3.493-3.186,18,18,0,0,1-3.853-8.536c-.053-.387-.082-.8-.142-1.165l-.083-.561-.16-.543a5.7,5.7,0,0,0-1.138-1.952A8.382,8.382,0,0,0,2697.175,1758.252Z" transform="translate(-2644.339 -1753.053)" fill="#fff"/>
      <path id="Path_4269" data-name="Path 4269" d="M2991.259,2018.413a20.021,20.021,0,0,1,2.74,6.168,18.187,18.187,0,0,1,.46,6.775,15.992,15.992,0,0,1-2.377,6.361c-.329.464-.635.943-1.006,1.374-.18.219-.351.446-.54.657l-.579.621c-.377.422-.823.776-1.23,1.164-.424.372-.877.71-1.317,1.058a22.864,22.864,0,0,0,4.328-5.089,18.175,18.175,0,0,0,1.424-3,16.47,16.47,0,0,0,.775-3.219,18.657,18.657,0,0,0-.33-6.61,22.632,22.632,0,0,0-.955-3.2A21.729,21.729,0,0,0,2991.259,2018.413Z" transform="translate(-2898.098 -1980.518)" fill="#91b3fa"/>
      <g id="Group_999" data-name="Group 999" transform="translate(61.586 98.558)">
        <g id="Group_995" data-name="Group 995" transform="translate(6.089)">
          <path id="Path_4270" data-name="Path 4270" d="M2823.512,2512.077a.162.162,0,0,1-.159-.136c-.014-.087-1.411-8.768-4.106-10.3a1.522,1.522,0,0,0-1.391-.1c-3.646,1.451-1.809,9.668-1.79,9.751a.162.162,0,1,1-.315.073c-.08-.349-1.915-8.571,1.986-10.124a1.852,1.852,0,0,1,1.671.122c2.829,1.612,4.208,10.17,4.265,10.533a.162.162,0,0,1-.134.185Z" transform="translate(-2815.25 -2501.091)" fill="#fff"/>
        </g>
        <path id="Path_4271" data-name="Path 4271" d="M2783.686,2575.439l-13.761-1.272-3.063,1.7,2.625,3.285,12.569-1.281Z" transform="translate(-2766.854 -2564.983)" fill="#7d97f4"/>
        <path id="Path_4272" data-name="Path 4272" d="M2888.4,2617.194l4.719-2.712-11.36-30.2-2.727,1.841Z" transform="translate(-2864.927 -2573.831)" fill="#91b3fa"/>
        <g id="Group_996" data-name="Group 996" transform="translate(2.004 1.371)">
          <path id="Path_4273" data-name="Path 4273" d="M2791.409,2525.136h-.012a.162.162,0,0,1-.149-.174c.007-.088.615-8.886-1.895-11.756a2.386,2.386,0,0,0-1.693-.88,2.267,2.267,0,0,0-1.72.666c-2.712,2.527-2.869,11.235-2.871,11.323a.158.158,0,0,1-.164.159.162.162,0,0,1-.159-.164c.006-.364.162-8.935,2.974-11.554a2.588,2.588,0,0,1,1.959-.752,2.7,2.7,0,0,1,1.918.99c2.638,3.018,1.98,11.9,1.973,11.994A.162.162,0,0,1,2791.409,2525.136Z" transform="translate(-2782.747 -2511.998)" fill="#fff"/>
        </g>
        <path id="Path_4274" data-name="Path 4274" d="M2766.8,2588.468l14.105,1.315,9.368,31.067-20.25.529Z" transform="translate(-2766.799 -2577.487)" fill="#bdd0fb"/>
        <g id="Group_997" data-name="Group 997" transform="translate(17.329 16.78)" opacity="0.66">
          <path id="Path_4275" data-name="Path 4275" d="M2911.109,2660.7a.2.2,0,0,1-.047-.006.188.188,0,0,1-.134-.229l.905-3.452-7.144-22.165a.188.188,0,0,1,.357-.116l7.161,22.218a.19.19,0,0,1,0,.106l-.919,3.505A.188.188,0,0,1,2911.109,2660.7Z" transform="translate(-2904.681 -2634.606)" fill="#fff"/>
        </g>
        <g id="Group_998" data-name="Group 998" transform="translate(25.221 39.171)" opacity="0.66">
          <path id="Path_4276" data-name="Path 4276" d="M2970.108,2814.308a.183.183,0,0,1-.08-.019l-2.442-1.167a.188.188,0,0,1,.161-.339l2.442,1.168a.188.188,0,0,1-.081.357Z" transform="translate(-2967.478 -2812.766)" fill="#fff"/>
        </g>
      </g>
      <path id="Path_4277" data-name="Path 4277" d="M2685.769,2053.676c.675.9,10.9,13.06,13.828,26.634s1.944,22.639,1.944,22.639-2.975,2.219-1.906,3.793.788,2.645,2.155,2.95,3.063.736,2.855-1.963,3.015-3.242,2.48-4.874,3.113-45.434-14.523-57.317q-.125-.084-.251-.166C2684.895,2048.065,2684.684,2052.237,2685.769,2053.676Z" transform="translate(-2633.948 -2004.088)" fill="url(#linear-gradient-10)"/>
    </g>
  </g>
</svg>
